G04 #@! TF.FileFunction,Legend,Top*
%FSLAX46Y46*%
G04 Gerber Fmt 4.6, Leading zero omitted, Abs format (unit mm)*
G04 Created by KiCad (PCBNEW 4.0.7) date 06/20/18 14:00:11*
%MOMM*%
%LPD*%
G01*
G04 APERTURE LIST*
%ADD10C,0.100000*%
%ADD11C,0.300000*%
%ADD12C,0.200000*%
%ADD13C,0.120000*%
%ADD14C,0.150000*%
G04 APERTURE END LIST*
D10*
D11*
X158003071Y-42636500D02*
X159074500Y-42636500D01*
X159288786Y-42707928D01*
X159431643Y-42850785D01*
X159503071Y-43065071D01*
X159503071Y-43207928D01*
X158003071Y-42136500D02*
X158003071Y-41279357D01*
X159503071Y-41707928D02*
X158003071Y-41707928D01*
X159074500Y-40850786D02*
X159074500Y-40136500D01*
X159503071Y-40993643D02*
X158003071Y-40493643D01*
X159503071Y-39993643D01*
X158074500Y-38707929D02*
X158003071Y-38850786D01*
X158003071Y-39065072D01*
X158074500Y-39279357D01*
X158217357Y-39422215D01*
X158360214Y-39493643D01*
X158645929Y-39565072D01*
X158860214Y-39565072D01*
X159145929Y-39493643D01*
X159288786Y-39422215D01*
X159431643Y-39279357D01*
X159503071Y-39065072D01*
X159503071Y-38922215D01*
X159431643Y-38707929D01*
X159360214Y-38636500D01*
X158860214Y-38636500D01*
X158860214Y-38922215D01*
X157883071Y-56610785D02*
X158954500Y-56610785D01*
X159168786Y-56682213D01*
X159311643Y-56825070D01*
X159383071Y-57039356D01*
X159383071Y-57182213D01*
X157883071Y-56110785D02*
X157883071Y-55253642D01*
X159383071Y-55682213D02*
X157883071Y-55682213D01*
X158954500Y-54825071D02*
X158954500Y-54110785D01*
X159383071Y-54967928D02*
X157883071Y-54467928D01*
X159383071Y-53967928D01*
X157954500Y-52682214D02*
X157883071Y-52825071D01*
X157883071Y-53039357D01*
X157954500Y-53253642D01*
X158097357Y-53396500D01*
X158240214Y-53467928D01*
X158525929Y-53539357D01*
X158740214Y-53539357D01*
X159025929Y-53467928D01*
X159168786Y-53396500D01*
X159311643Y-53253642D01*
X159383071Y-53039357D01*
X159383071Y-52896500D01*
X159311643Y-52682214D01*
X159240214Y-52610785D01*
X158740214Y-52610785D01*
X158740214Y-52896500D01*
X159383071Y-49967928D02*
X158668786Y-50467928D01*
X159383071Y-50825071D02*
X157883071Y-50825071D01*
X157883071Y-50253643D01*
X157954500Y-50110785D01*
X158025929Y-50039357D01*
X158168786Y-49967928D01*
X158383071Y-49967928D01*
X158525929Y-50039357D01*
X158597357Y-50110785D01*
X158668786Y-50253643D01*
X158668786Y-50825071D01*
X158597357Y-48825071D02*
X158597357Y-49325071D01*
X159383071Y-49325071D02*
X157883071Y-49325071D01*
X157883071Y-48610785D01*
D12*
X28653071Y-56825547D02*
X28700690Y-56711261D01*
X28748310Y-56673166D01*
X28843548Y-56635071D01*
X28986405Y-56635071D01*
X29081643Y-56673166D01*
X29129262Y-56711261D01*
X29176881Y-56787452D01*
X29176881Y-57092214D01*
X28176881Y-57092214D01*
X28176881Y-56825547D01*
X28224500Y-56749357D01*
X28272119Y-56711261D01*
X28367357Y-56673166D01*
X28462595Y-56673166D01*
X28557833Y-56711261D01*
X28605452Y-56749357D01*
X28653071Y-56825547D01*
X28653071Y-57092214D01*
X29176881Y-55949357D02*
X28653071Y-55949357D01*
X28557833Y-55987452D01*
X28510214Y-56063642D01*
X28510214Y-56216023D01*
X28557833Y-56292214D01*
X29129262Y-55949357D02*
X29176881Y-56025547D01*
X29176881Y-56216023D01*
X29129262Y-56292214D01*
X29034024Y-56330309D01*
X28938786Y-56330309D01*
X28843548Y-56292214D01*
X28795929Y-56216023D01*
X28795929Y-56025547D01*
X28748310Y-55949357D01*
X28510214Y-55682690D02*
X28510214Y-55377928D01*
X28176881Y-55568404D02*
X29034024Y-55568404D01*
X29129262Y-55530309D01*
X29176881Y-55454118D01*
X29176881Y-55377928D01*
X28129262Y-54539832D02*
X29414976Y-55225547D01*
X29176881Y-53854118D02*
X29176881Y-54311261D01*
X29176881Y-54082690D02*
X28176881Y-54082690D01*
X28319738Y-54158880D01*
X28414976Y-54235071D01*
X28462595Y-54311261D01*
X28272119Y-53549356D02*
X28224500Y-53511261D01*
X28176881Y-53435070D01*
X28176881Y-53244594D01*
X28224500Y-53168404D01*
X28272119Y-53130308D01*
X28367357Y-53092213D01*
X28462595Y-53092213D01*
X28605452Y-53130308D01*
X29176881Y-53587451D01*
X29176881Y-53092213D01*
X28176881Y-52863642D02*
X29176881Y-52596975D01*
X28176881Y-52330308D01*
X28129262Y-51492213D02*
X29414976Y-52177928D01*
X28176881Y-51301737D02*
X28176881Y-50806499D01*
X28557833Y-51073166D01*
X28557833Y-50958880D01*
X28605452Y-50882690D01*
X28653071Y-50844594D01*
X28748310Y-50806499D01*
X28986405Y-50806499D01*
X29081643Y-50844594D01*
X29129262Y-50882690D01*
X29176881Y-50958880D01*
X29176881Y-51187452D01*
X29129262Y-51263642D01*
X29081643Y-51301737D01*
X28176881Y-50577928D02*
X29176881Y-50311261D01*
X28176881Y-50044594D01*
X28176881Y-49854118D02*
X28176881Y-49358880D01*
X28557833Y-49625547D01*
X28557833Y-49511261D01*
X28605452Y-49435071D01*
X28653071Y-49396975D01*
X28748310Y-49358880D01*
X28986405Y-49358880D01*
X29081643Y-49396975D01*
X29129262Y-49435071D01*
X29176881Y-49511261D01*
X29176881Y-49739833D01*
X29129262Y-49816023D01*
X29081643Y-49854118D01*
X28129262Y-48444594D02*
X29414976Y-49130309D01*
X28224500Y-47758880D02*
X28176881Y-47835071D01*
X28176881Y-47949356D01*
X28224500Y-48063642D01*
X28319738Y-48139833D01*
X28414976Y-48177928D01*
X28605452Y-48216023D01*
X28748310Y-48216023D01*
X28938786Y-48177928D01*
X29034024Y-48139833D01*
X29129262Y-48063642D01*
X29176881Y-47949356D01*
X29176881Y-47873166D01*
X29129262Y-47758880D01*
X29081643Y-47720785D01*
X28748310Y-47720785D01*
X28748310Y-47873166D01*
X29176881Y-47377928D02*
X28176881Y-47377928D01*
X29176881Y-46920785D01*
X28176881Y-46920785D01*
X29176881Y-46539833D02*
X28176881Y-46539833D01*
X28176881Y-46349357D01*
X28224500Y-46235071D01*
X28319738Y-46158880D01*
X28414976Y-46120785D01*
X28605452Y-46082690D01*
X28748310Y-46082690D01*
X28938786Y-46120785D01*
X29034024Y-46158880D01*
X29129262Y-46235071D01*
X29176881Y-46349357D01*
X29176881Y-46539833D01*
D11*
X156793071Y-81072214D02*
X156793071Y-80786500D01*
X156864500Y-80643642D01*
X157007357Y-80500785D01*
X157293071Y-80429357D01*
X157793071Y-80429357D01*
X158078786Y-80500785D01*
X158221643Y-80643642D01*
X158293071Y-80786500D01*
X158293071Y-81072214D01*
X158221643Y-81215071D01*
X158078786Y-81357928D01*
X157793071Y-81429357D01*
X157293071Y-81429357D01*
X157007357Y-81357928D01*
X156864500Y-81215071D01*
X156793071Y-81072214D01*
X157507357Y-79286499D02*
X157578786Y-79072213D01*
X157650214Y-79000785D01*
X157793071Y-78929356D01*
X158007357Y-78929356D01*
X158150214Y-79000785D01*
X158221643Y-79072213D01*
X158293071Y-79215071D01*
X158293071Y-79786499D01*
X156793071Y-79786499D01*
X156793071Y-79286499D01*
X156864500Y-79143642D01*
X156935929Y-79072213D01*
X157078786Y-79000785D01*
X157221643Y-79000785D01*
X157364500Y-79072213D01*
X157435929Y-79143642D01*
X157507357Y-79286499D01*
X157507357Y-79786499D01*
X158150214Y-77429356D02*
X158221643Y-77500785D01*
X158293071Y-77715071D01*
X158293071Y-77857928D01*
X158221643Y-78072213D01*
X158078786Y-78215071D01*
X157935929Y-78286499D01*
X157650214Y-78357928D01*
X157435929Y-78357928D01*
X157150214Y-78286499D01*
X157007357Y-78215071D01*
X156864500Y-78072213D01*
X156793071Y-77857928D01*
X156793071Y-77715071D01*
X156864500Y-77500785D01*
X156935929Y-77429356D01*
X158293071Y-74786499D02*
X157578786Y-75286499D01*
X158293071Y-75643642D02*
X156793071Y-75643642D01*
X156793071Y-75072214D01*
X156864500Y-74929356D01*
X156935929Y-74857928D01*
X157078786Y-74786499D01*
X157293071Y-74786499D01*
X157435929Y-74857928D01*
X157507357Y-74929356D01*
X157578786Y-75072214D01*
X157578786Y-75643642D01*
X158221643Y-73572214D02*
X158293071Y-73715071D01*
X158293071Y-74000785D01*
X158221643Y-74143642D01*
X158078786Y-74215071D01*
X157507357Y-74215071D01*
X157364500Y-74143642D01*
X157293071Y-74000785D01*
X157293071Y-73715071D01*
X157364500Y-73572214D01*
X157507357Y-73500785D01*
X157650214Y-73500785D01*
X157793071Y-74215071D01*
X158221643Y-72929357D02*
X158293071Y-72786500D01*
X158293071Y-72500785D01*
X158221643Y-72357928D01*
X158078786Y-72286500D01*
X158007357Y-72286500D01*
X157864500Y-72357928D01*
X157793071Y-72500785D01*
X157793071Y-72715071D01*
X157721643Y-72857928D01*
X157578786Y-72929357D01*
X157507357Y-72929357D01*
X157364500Y-72857928D01*
X157293071Y-72715071D01*
X157293071Y-72500785D01*
X157364500Y-72357928D01*
X158221643Y-71072214D02*
X158293071Y-71215071D01*
X158293071Y-71500785D01*
X158221643Y-71643642D01*
X158078786Y-71715071D01*
X157507357Y-71715071D01*
X157364500Y-71643642D01*
X157293071Y-71500785D01*
X157293071Y-71215071D01*
X157364500Y-71072214D01*
X157507357Y-71000785D01*
X157650214Y-71000785D01*
X157793071Y-71715071D01*
X157293071Y-70572214D02*
X157293071Y-70000785D01*
X156793071Y-70357928D02*
X158078786Y-70357928D01*
X158221643Y-70286500D01*
X158293071Y-70143642D01*
X158293071Y-70000785D01*
X158133071Y-94249357D02*
X156633071Y-94249357D01*
X157704500Y-93749357D01*
X156633071Y-93249357D01*
X158133071Y-93249357D01*
X158133071Y-91677928D02*
X157418786Y-92177928D01*
X158133071Y-92535071D02*
X156633071Y-92535071D01*
X156633071Y-91963643D01*
X156704500Y-91820785D01*
X156775929Y-91749357D01*
X156918786Y-91677928D01*
X157133071Y-91677928D01*
X157275929Y-91749357D01*
X157347357Y-91820785D01*
X157418786Y-91963643D01*
X157418786Y-92535071D01*
X158133071Y-90177928D02*
X157418786Y-90677928D01*
X158133071Y-91035071D02*
X156633071Y-91035071D01*
X156633071Y-90463643D01*
X156704500Y-90320785D01*
X156775929Y-90249357D01*
X156918786Y-90177928D01*
X157133071Y-90177928D01*
X157275929Y-90249357D01*
X157347357Y-90320785D01*
X157418786Y-90463643D01*
X157418786Y-91035071D01*
X158133071Y-87535071D02*
X157418786Y-88035071D01*
X158133071Y-88392214D02*
X156633071Y-88392214D01*
X156633071Y-87820786D01*
X156704500Y-87677928D01*
X156775929Y-87606500D01*
X156918786Y-87535071D01*
X157133071Y-87535071D01*
X157275929Y-87606500D01*
X157347357Y-87677928D01*
X157418786Y-87820786D01*
X157418786Y-88392214D01*
X158061643Y-86320786D02*
X158133071Y-86463643D01*
X158133071Y-86749357D01*
X158061643Y-86892214D01*
X157918786Y-86963643D01*
X157347357Y-86963643D01*
X157204500Y-86892214D01*
X157133071Y-86749357D01*
X157133071Y-86463643D01*
X157204500Y-86320786D01*
X157347357Y-86249357D01*
X157490214Y-86249357D01*
X157633071Y-86963643D01*
X158061643Y-85677929D02*
X158133071Y-85535072D01*
X158133071Y-85249357D01*
X158061643Y-85106500D01*
X157918786Y-85035072D01*
X157847357Y-85035072D01*
X157704500Y-85106500D01*
X157633071Y-85249357D01*
X157633071Y-85463643D01*
X157561643Y-85606500D01*
X157418786Y-85677929D01*
X157347357Y-85677929D01*
X157204500Y-85606500D01*
X157133071Y-85463643D01*
X157133071Y-85249357D01*
X157204500Y-85106500D01*
X158061643Y-83820786D02*
X158133071Y-83963643D01*
X158133071Y-84249357D01*
X158061643Y-84392214D01*
X157918786Y-84463643D01*
X157347357Y-84463643D01*
X157204500Y-84392214D01*
X157133071Y-84249357D01*
X157133071Y-83963643D01*
X157204500Y-83820786D01*
X157347357Y-83749357D01*
X157490214Y-83749357D01*
X157633071Y-84463643D01*
X157133071Y-83320786D02*
X157133071Y-82749357D01*
X156633071Y-83106500D02*
X157918786Y-83106500D01*
X158061643Y-83035072D01*
X158133071Y-82892214D01*
X158133071Y-82749357D01*
X146494501Y-108545071D02*
X145994501Y-107830786D01*
X145637358Y-108545071D02*
X145637358Y-107045071D01*
X146208786Y-107045071D01*
X146351644Y-107116500D01*
X146423072Y-107187929D01*
X146494501Y-107330786D01*
X146494501Y-107545071D01*
X146423072Y-107687929D01*
X146351644Y-107759357D01*
X146208786Y-107830786D01*
X145637358Y-107830786D01*
X147637358Y-107759357D02*
X147851644Y-107830786D01*
X147923072Y-107902214D01*
X147994501Y-108045071D01*
X147994501Y-108259357D01*
X147923072Y-108402214D01*
X147851644Y-108473643D01*
X147708786Y-108545071D01*
X147137358Y-108545071D01*
X147137358Y-107045071D01*
X147637358Y-107045071D01*
X147780215Y-107116500D01*
X147851644Y-107187929D01*
X147923072Y-107330786D01*
X147923072Y-107473643D01*
X147851644Y-107616500D01*
X147780215Y-107687929D01*
X147637358Y-107759357D01*
X147137358Y-107759357D01*
X149137358Y-107759357D02*
X148637358Y-107759357D01*
X148637358Y-108545071D02*
X148637358Y-107045071D01*
X149351644Y-107045071D01*
X151065929Y-108545071D02*
X151065929Y-107045071D01*
X151780215Y-107545071D02*
X151780215Y-108545071D01*
X151780215Y-107687929D02*
X151851643Y-107616500D01*
X151994501Y-107545071D01*
X152208786Y-107545071D01*
X152351643Y-107616500D01*
X152423072Y-107759357D01*
X152423072Y-108545071D01*
X153065929Y-108473643D02*
X153208786Y-108545071D01*
X153494501Y-108545071D01*
X153637358Y-108473643D01*
X153708786Y-108330786D01*
X153708786Y-108259357D01*
X153637358Y-108116500D01*
X153494501Y-108045071D01*
X153280215Y-108045071D01*
X153137358Y-107973643D01*
X153065929Y-107830786D01*
X153065929Y-107759357D01*
X153137358Y-107616500D01*
X153280215Y-107545071D01*
X153494501Y-107545071D01*
X153637358Y-107616500D01*
X154923072Y-108473643D02*
X154780215Y-108545071D01*
X154494501Y-108545071D01*
X154351644Y-108473643D01*
X154280215Y-108330786D01*
X154280215Y-107759357D01*
X154351644Y-107616500D01*
X154494501Y-107545071D01*
X154780215Y-107545071D01*
X154923072Y-107616500D01*
X154994501Y-107759357D01*
X154994501Y-107902214D01*
X154280215Y-108045071D01*
X155637358Y-108545071D02*
X155637358Y-107545071D01*
X155637358Y-107830786D02*
X155708786Y-107687929D01*
X155780215Y-107616500D01*
X155923072Y-107545071D01*
X156065929Y-107545071D01*
X156351643Y-107545071D02*
X156923072Y-107545071D01*
X156565929Y-107045071D02*
X156565929Y-108330786D01*
X156637357Y-108473643D01*
X156780215Y-108545071D01*
X156923072Y-108545071D01*
X157994500Y-108473643D02*
X157851643Y-108545071D01*
X157565929Y-108545071D01*
X157423072Y-108473643D01*
X157351643Y-108330786D01*
X157351643Y-107759357D01*
X157423072Y-107616500D01*
X157565929Y-107545071D01*
X157851643Y-107545071D01*
X157994500Y-107616500D01*
X158065929Y-107759357D01*
X158065929Y-107902214D01*
X157351643Y-108045071D01*
X159351643Y-108545071D02*
X159351643Y-107045071D01*
X159351643Y-108473643D02*
X159208786Y-108545071D01*
X158923072Y-108545071D01*
X158780214Y-108473643D01*
X158708786Y-108402214D01*
X158637357Y-108259357D01*
X158637357Y-107830786D01*
X158708786Y-107687929D01*
X158780214Y-107616500D01*
X158923072Y-107545071D01*
X159208786Y-107545071D01*
X159351643Y-107616500D01*
X129994501Y-52112214D02*
X129923072Y-52183643D01*
X129708786Y-52255071D01*
X129565929Y-52255071D01*
X129351644Y-52183643D01*
X129208786Y-52040786D01*
X129137358Y-51897929D01*
X129065929Y-51612214D01*
X129065929Y-51397929D01*
X129137358Y-51112214D01*
X129208786Y-50969357D01*
X129351644Y-50826500D01*
X129565929Y-50755071D01*
X129708786Y-50755071D01*
X129923072Y-50826500D01*
X129994501Y-50897929D01*
X130565929Y-50897929D02*
X130637358Y-50826500D01*
X130780215Y-50755071D01*
X131137358Y-50755071D01*
X131280215Y-50826500D01*
X131351644Y-50897929D01*
X131423072Y-51040786D01*
X131423072Y-51183643D01*
X131351644Y-51397929D01*
X130494501Y-52255071D01*
X131423072Y-52255071D01*
X55647358Y-51442214D02*
X55575929Y-51513643D01*
X55361643Y-51585071D01*
X55218786Y-51585071D01*
X55004501Y-51513643D01*
X54861643Y-51370786D01*
X54790215Y-51227929D01*
X54718786Y-50942214D01*
X54718786Y-50727929D01*
X54790215Y-50442214D01*
X54861643Y-50299357D01*
X55004501Y-50156500D01*
X55218786Y-50085071D01*
X55361643Y-50085071D01*
X55575929Y-50156500D01*
X55647358Y-50227929D01*
X57075929Y-51585071D02*
X56218786Y-51585071D01*
X56647358Y-51585071D02*
X56647358Y-50085071D01*
X56504501Y-50299357D01*
X56361643Y-50442214D01*
X56218786Y-50513643D01*
X57718786Y-51442214D02*
X57790214Y-51513643D01*
X57718786Y-51585071D01*
X57647357Y-51513643D01*
X57718786Y-51442214D01*
X57718786Y-51585071D01*
D13*
X141692620Y-113498260D02*
X144352620Y-113498260D01*
X141692620Y-39778260D02*
X141692620Y-113498260D01*
X144352620Y-39778260D02*
X144352620Y-113498260D01*
X141692620Y-39778260D02*
X144352620Y-39778260D01*
X141692620Y-38508260D02*
X141692620Y-37178260D01*
X141692620Y-37178260D02*
X143022620Y-37178260D01*
X42005240Y-113378880D02*
X44665240Y-113378880D01*
X42005240Y-39658880D02*
X42005240Y-113378880D01*
X44665240Y-39658880D02*
X44665240Y-113378880D01*
X42005240Y-39658880D02*
X44665240Y-39658880D01*
X42005240Y-38388880D02*
X42005240Y-37058880D01*
X42005240Y-37058880D02*
X43335240Y-37058880D01*
X153262940Y-101826960D02*
X153262940Y-99166960D01*
X150662940Y-101826960D02*
X153262940Y-101826960D01*
X150662940Y-99166960D02*
X153262940Y-99166960D01*
X150662940Y-101826960D02*
X150662940Y-99166960D01*
X149392940Y-101826960D02*
X148062940Y-101826960D01*
X148062940Y-101826960D02*
X148062940Y-100496960D01*
X147981660Y-103058240D02*
X147981660Y-105718240D01*
X150581660Y-103058240D02*
X147981660Y-103058240D01*
X150581660Y-105718240D02*
X147981660Y-105718240D01*
X150581660Y-103058240D02*
X150581660Y-105718240D01*
X151851660Y-103058240D02*
X153181660Y-103058240D01*
X153181660Y-103058240D02*
X153181660Y-104388240D01*
X150313380Y-81705080D02*
X152973380Y-81705080D01*
X150313380Y-76565080D02*
X150313380Y-81705080D01*
X152973380Y-76565080D02*
X152973380Y-81705080D01*
X150313380Y-76565080D02*
X152973380Y-76565080D01*
X150313380Y-75295080D02*
X150313380Y-73965080D01*
X150313380Y-73965080D02*
X151643380Y-73965080D01*
X150404820Y-90826220D02*
X153064820Y-90826220D01*
X150404820Y-85686220D02*
X150404820Y-90826220D01*
X153064820Y-85686220D02*
X153064820Y-90826220D01*
X150404820Y-85686220D02*
X153064820Y-85686220D01*
X150404820Y-84416220D02*
X150404820Y-83086220D01*
X150404820Y-83086220D02*
X151734820Y-83086220D01*
X148189940Y-94140300D02*
X148189940Y-96800300D01*
X150789940Y-94140300D02*
X148189940Y-94140300D01*
X150789940Y-96800300D02*
X148189940Y-96800300D01*
X150789940Y-94140300D02*
X150789940Y-96800300D01*
X152059940Y-94140300D02*
X153389940Y-94140300D01*
X153389940Y-94140300D02*
X153389940Y-95470300D01*
D14*
X156606140Y-36710440D02*
X156606140Y-44710440D01*
X156606140Y-36710440D02*
X150206140Y-36710440D01*
X150206140Y-36710440D02*
X150206140Y-44710440D01*
X156606140Y-44710440D02*
X150206140Y-44710440D01*
X156606140Y-48727180D02*
X156606140Y-56727180D01*
X156606140Y-48727180D02*
X150206140Y-48727180D01*
X150206140Y-48727180D02*
X150206140Y-56727180D01*
X156606140Y-56727180D02*
X150206140Y-56727180D01*
D13*
X146925880Y-95143200D02*
X146925880Y-96143200D01*
X145565880Y-96143200D02*
X145565880Y-95143200D01*
X31146063Y-61969764D02*
G75*
G03X40943857Y-61966500I4898437J1383264D01*
G01*
X31146063Y-59203236D02*
G75*
G02X40943857Y-59206500I4898437J-1383264D01*
G01*
X31146063Y-59203236D02*
G75*
G03X31145143Y-61966500I4898437J-1383264D01*
G01*
X36044500Y-65636500D02*
X36044500Y-55536500D01*
X36004500Y-65636500D02*
X36004500Y-55536500D01*
X35964500Y-65636500D02*
X35964500Y-55536500D01*
X35924500Y-65635500D02*
X35924500Y-55537500D01*
X35884500Y-65634500D02*
X35884500Y-55538500D01*
X35844500Y-65633500D02*
X35844500Y-55539500D01*
X35804500Y-65631500D02*
X35804500Y-55541500D01*
X35764500Y-65629500D02*
X35764500Y-55543500D01*
X35724500Y-65626500D02*
X35724500Y-55546500D01*
X35684500Y-65624500D02*
X35684500Y-55548500D01*
X35644500Y-65621500D02*
X35644500Y-55551500D01*
X35604500Y-65617500D02*
X35604500Y-55555500D01*
X35564500Y-65614500D02*
X35564500Y-55558500D01*
X35524500Y-65610500D02*
X35524500Y-55562500D01*
X35484500Y-65606500D02*
X35484500Y-55566500D01*
X35444500Y-65601500D02*
X35444500Y-55571500D01*
X35404500Y-65596500D02*
X35404500Y-55576500D01*
X35364500Y-65591500D02*
X35364500Y-55581500D01*
X35323500Y-65585500D02*
X35323500Y-55587500D01*
X35283500Y-65579500D02*
X35283500Y-55593500D01*
X35243500Y-65573500D02*
X35243500Y-55599500D01*
X35203500Y-65567500D02*
X35203500Y-55605500D01*
X35163500Y-65560500D02*
X35163500Y-55612500D01*
X35123500Y-65553500D02*
X35123500Y-55619500D01*
X35083500Y-65545500D02*
X35083500Y-55627500D01*
X35043500Y-65537500D02*
X35043500Y-55635500D01*
X35003500Y-65529500D02*
X35003500Y-55643500D01*
X34963500Y-65521500D02*
X34963500Y-55651500D01*
X34923500Y-65512500D02*
X34923500Y-55660500D01*
X34883500Y-65503500D02*
X34883500Y-55669500D01*
X34843500Y-65493500D02*
X34843500Y-55679500D01*
X34803500Y-65483500D02*
X34803500Y-55689500D01*
X34763500Y-65473500D02*
X34763500Y-55699500D01*
X34723500Y-65462500D02*
X34723500Y-61767500D01*
X34723500Y-59405500D02*
X34723500Y-55710500D01*
X34683500Y-65451500D02*
X34683500Y-61767500D01*
X34683500Y-59405500D02*
X34683500Y-55721500D01*
X34643500Y-65440500D02*
X34643500Y-61767500D01*
X34643500Y-59405500D02*
X34643500Y-55732500D01*
X34603500Y-65429500D02*
X34603500Y-61767500D01*
X34603500Y-59405500D02*
X34603500Y-55743500D01*
X34563500Y-65417500D02*
X34563500Y-61767500D01*
X34563500Y-59405500D02*
X34563500Y-55755500D01*
X34523500Y-65404500D02*
X34523500Y-61767500D01*
X34523500Y-59405500D02*
X34523500Y-55768500D01*
X34483500Y-65392500D02*
X34483500Y-61767500D01*
X34483500Y-59405500D02*
X34483500Y-55780500D01*
X34443500Y-65378500D02*
X34443500Y-61767500D01*
X34443500Y-59405500D02*
X34443500Y-55794500D01*
X34403500Y-65365500D02*
X34403500Y-61767500D01*
X34403500Y-59405500D02*
X34403500Y-55807500D01*
X34363500Y-65351500D02*
X34363500Y-61767500D01*
X34363500Y-59405500D02*
X34363500Y-55821500D01*
X34323500Y-65337500D02*
X34323500Y-61767500D01*
X34323500Y-59405500D02*
X34323500Y-55835500D01*
X34283500Y-65323500D02*
X34283500Y-61767500D01*
X34283500Y-59405500D02*
X34283500Y-55849500D01*
X34243500Y-65308500D02*
X34243500Y-61767500D01*
X34243500Y-59405500D02*
X34243500Y-55864500D01*
X34203500Y-65292500D02*
X34203500Y-61767500D01*
X34203500Y-59405500D02*
X34203500Y-55880500D01*
X34163500Y-65277500D02*
X34163500Y-61767500D01*
X34163500Y-59405500D02*
X34163500Y-55895500D01*
X34123500Y-65260500D02*
X34123500Y-61767500D01*
X34123500Y-59405500D02*
X34123500Y-55912500D01*
X34083500Y-65244500D02*
X34083500Y-61767500D01*
X34083500Y-59405500D02*
X34083500Y-55928500D01*
X34043500Y-65227500D02*
X34043500Y-61767500D01*
X34043500Y-59405500D02*
X34043500Y-55945500D01*
X34003500Y-65210500D02*
X34003500Y-61767500D01*
X34003500Y-59405500D02*
X34003500Y-55962500D01*
X33963500Y-65192500D02*
X33963500Y-61767500D01*
X33963500Y-59405500D02*
X33963500Y-55980500D01*
X33923500Y-65174500D02*
X33923500Y-61767500D01*
X33923500Y-59405500D02*
X33923500Y-55998500D01*
X33883500Y-65155500D02*
X33883500Y-61767500D01*
X33883500Y-59405500D02*
X33883500Y-56017500D01*
X33843500Y-65136500D02*
X33843500Y-61767500D01*
X33843500Y-59405500D02*
X33843500Y-56036500D01*
X33803500Y-65117500D02*
X33803500Y-61767500D01*
X33803500Y-59405500D02*
X33803500Y-56055500D01*
X33763500Y-65097500D02*
X33763500Y-61767500D01*
X33763500Y-59405500D02*
X33763500Y-56075500D01*
X33723500Y-65077500D02*
X33723500Y-61767500D01*
X33723500Y-59405500D02*
X33723500Y-56095500D01*
X33683500Y-65056500D02*
X33683500Y-61767500D01*
X33683500Y-59405500D02*
X33683500Y-56116500D01*
X33643500Y-65035500D02*
X33643500Y-61767500D01*
X33643500Y-59405500D02*
X33643500Y-56137500D01*
X33603500Y-65014500D02*
X33603500Y-61767500D01*
X33603500Y-59405500D02*
X33603500Y-56158500D01*
X33563500Y-64991500D02*
X33563500Y-61767500D01*
X33563500Y-59405500D02*
X33563500Y-56181500D01*
X33523500Y-64969500D02*
X33523500Y-61767500D01*
X33523500Y-59405500D02*
X33523500Y-56203500D01*
X33483500Y-64946500D02*
X33483500Y-61767500D01*
X33483500Y-59405500D02*
X33483500Y-56226500D01*
X33443500Y-64922500D02*
X33443500Y-61767500D01*
X33443500Y-59405500D02*
X33443500Y-56250500D01*
X33403500Y-64898500D02*
X33403500Y-61767500D01*
X33403500Y-59405500D02*
X33403500Y-56274500D01*
X33363500Y-64874500D02*
X33363500Y-61767500D01*
X33363500Y-59405500D02*
X33363500Y-56298500D01*
X33323500Y-64849500D02*
X33323500Y-61767500D01*
X33323500Y-59405500D02*
X33323500Y-56323500D01*
X33283500Y-64823500D02*
X33283500Y-61767500D01*
X33283500Y-59405500D02*
X33283500Y-56349500D01*
X33243500Y-64797500D02*
X33243500Y-61767500D01*
X33243500Y-59405500D02*
X33243500Y-56375500D01*
X33203500Y-64771500D02*
X33203500Y-61767500D01*
X33203500Y-59405500D02*
X33203500Y-56401500D01*
X33163500Y-64743500D02*
X33163500Y-61767500D01*
X33163500Y-59405500D02*
X33163500Y-56429500D01*
X33123500Y-64716500D02*
X33123500Y-61767500D01*
X33123500Y-59405500D02*
X33123500Y-56456500D01*
X33083500Y-64687500D02*
X33083500Y-61767500D01*
X33083500Y-59405500D02*
X33083500Y-56485500D01*
X33043500Y-64658500D02*
X33043500Y-61767500D01*
X33043500Y-59405500D02*
X33043500Y-56514500D01*
X33003500Y-64629500D02*
X33003500Y-61767500D01*
X33003500Y-59405500D02*
X33003500Y-56543500D01*
X32963500Y-64599500D02*
X32963500Y-61767500D01*
X32963500Y-59405500D02*
X32963500Y-56573500D01*
X32923500Y-64568500D02*
X32923500Y-61767500D01*
X32923500Y-59405500D02*
X32923500Y-56604500D01*
X32883500Y-64537500D02*
X32883500Y-61767500D01*
X32883500Y-59405500D02*
X32883500Y-56635500D01*
X32843500Y-64505500D02*
X32843500Y-61767500D01*
X32843500Y-59405500D02*
X32843500Y-56667500D01*
X32803500Y-64472500D02*
X32803500Y-61767500D01*
X32803500Y-59405500D02*
X32803500Y-56700500D01*
X32763500Y-64439500D02*
X32763500Y-61767500D01*
X32763500Y-59405500D02*
X32763500Y-56733500D01*
X32723500Y-64405500D02*
X32723500Y-61767500D01*
X32723500Y-59405500D02*
X32723500Y-56767500D01*
X32683500Y-64370500D02*
X32683500Y-61767500D01*
X32683500Y-59405500D02*
X32683500Y-56802500D01*
X32643500Y-64334500D02*
X32643500Y-61767500D01*
X32643500Y-59405500D02*
X32643500Y-56838500D01*
X32603500Y-64298500D02*
X32603500Y-61767500D01*
X32603500Y-59405500D02*
X32603500Y-56874500D01*
X32563500Y-64261500D02*
X32563500Y-61767500D01*
X32563500Y-59405500D02*
X32563500Y-56911500D01*
X32523500Y-64223500D02*
X32523500Y-61767500D01*
X32523500Y-59405500D02*
X32523500Y-56949500D01*
X32483500Y-64184500D02*
X32483500Y-61767500D01*
X32483500Y-59405500D02*
X32483500Y-56988500D01*
X32443500Y-64145500D02*
X32443500Y-61767500D01*
X32443500Y-59405500D02*
X32443500Y-57027500D01*
X32403500Y-64104500D02*
X32403500Y-61767500D01*
X32403500Y-59405500D02*
X32403500Y-57068500D01*
X32363500Y-64063500D02*
X32363500Y-57109500D01*
X32323500Y-64021500D02*
X32323500Y-57151500D01*
X32283500Y-63977500D02*
X32283500Y-57195500D01*
X32243500Y-63933500D02*
X32243500Y-57239500D01*
X32203500Y-63888500D02*
X32203500Y-57284500D01*
X32163500Y-63841500D02*
X32163500Y-57331500D01*
X32123500Y-63793500D02*
X32123500Y-57379500D01*
X32083500Y-63744500D02*
X32083500Y-57428500D01*
X32043500Y-63694500D02*
X32043500Y-57478500D01*
X32003500Y-63643500D02*
X32003500Y-57529500D01*
X31963500Y-63590500D02*
X31963500Y-57582500D01*
X31923500Y-63535500D02*
X31923500Y-57637500D01*
X31883500Y-63480500D02*
X31883500Y-57692500D01*
X31843500Y-63422500D02*
X31843500Y-57750500D01*
X31803500Y-63363500D02*
X31803500Y-57809500D01*
X31763500Y-63301500D02*
X31763500Y-57871500D01*
X31723500Y-63238500D02*
X31723500Y-57934500D01*
X31683500Y-63173500D02*
X31683500Y-57999500D01*
X31643500Y-63105500D02*
X31643500Y-58067500D01*
X31603500Y-63035500D02*
X31603500Y-58137500D01*
X31563500Y-62963500D02*
X31563500Y-58209500D01*
X31523500Y-62887500D02*
X31523500Y-58285500D01*
X31483500Y-62808500D02*
X31483500Y-58364500D01*
X31443500Y-62726500D02*
X31443500Y-58446500D01*
X31403500Y-62639500D02*
X31403500Y-58533500D01*
X31363500Y-62548500D02*
X31363500Y-58624500D01*
X31323500Y-62452500D02*
X31323500Y-58720500D01*
X31283500Y-62349500D02*
X31283500Y-58823500D01*
X31243500Y-62240500D02*
X31243500Y-58932500D01*
X31203500Y-62122500D02*
X31203500Y-59050500D01*
X31163500Y-61993500D02*
X31163500Y-59179500D01*
X31123500Y-61851500D02*
X31123500Y-59321500D01*
X31083500Y-61690500D02*
X31083500Y-59482500D01*
X31043500Y-61499500D02*
X31043500Y-59673500D01*
X31003500Y-61258500D02*
X31003500Y-59914500D01*
X30963500Y-60865500D02*
X30963500Y-60307500D01*
X41244500Y-60586500D02*
X39744500Y-60586500D01*
X40494500Y-61336500D02*
X40494500Y-59836500D01*
X31136063Y-51479764D02*
G75*
G03X40933857Y-51476500I4898437J1383264D01*
G01*
X31136063Y-48713236D02*
G75*
G02X40933857Y-48716500I4898437J-1383264D01*
G01*
X31136063Y-48713236D02*
G75*
G03X31135143Y-51476500I4898437J-1383264D01*
G01*
X36034500Y-55146500D02*
X36034500Y-45046500D01*
X35994500Y-55146500D02*
X35994500Y-45046500D01*
X35954500Y-55146500D02*
X35954500Y-45046500D01*
X35914500Y-55145500D02*
X35914500Y-45047500D01*
X35874500Y-55144500D02*
X35874500Y-45048500D01*
X35834500Y-55143500D02*
X35834500Y-45049500D01*
X35794500Y-55141500D02*
X35794500Y-45051500D01*
X35754500Y-55139500D02*
X35754500Y-45053500D01*
X35714500Y-55136500D02*
X35714500Y-45056500D01*
X35674500Y-55134500D02*
X35674500Y-45058500D01*
X35634500Y-55131500D02*
X35634500Y-45061500D01*
X35594500Y-55127500D02*
X35594500Y-45065500D01*
X35554500Y-55124500D02*
X35554500Y-45068500D01*
X35514500Y-55120500D02*
X35514500Y-45072500D01*
X35474500Y-55116500D02*
X35474500Y-45076500D01*
X35434500Y-55111500D02*
X35434500Y-45081500D01*
X35394500Y-55106500D02*
X35394500Y-45086500D01*
X35354500Y-55101500D02*
X35354500Y-45091500D01*
X35313500Y-55095500D02*
X35313500Y-45097500D01*
X35273500Y-55089500D02*
X35273500Y-45103500D01*
X35233500Y-55083500D02*
X35233500Y-45109500D01*
X35193500Y-55077500D02*
X35193500Y-45115500D01*
X35153500Y-55070500D02*
X35153500Y-45122500D01*
X35113500Y-55063500D02*
X35113500Y-45129500D01*
X35073500Y-55055500D02*
X35073500Y-45137500D01*
X35033500Y-55047500D02*
X35033500Y-45145500D01*
X34993500Y-55039500D02*
X34993500Y-45153500D01*
X34953500Y-55031500D02*
X34953500Y-45161500D01*
X34913500Y-55022500D02*
X34913500Y-45170500D01*
X34873500Y-55013500D02*
X34873500Y-45179500D01*
X34833500Y-55003500D02*
X34833500Y-45189500D01*
X34793500Y-54993500D02*
X34793500Y-45199500D01*
X34753500Y-54983500D02*
X34753500Y-45209500D01*
X34713500Y-54972500D02*
X34713500Y-51277500D01*
X34713500Y-48915500D02*
X34713500Y-45220500D01*
X34673500Y-54961500D02*
X34673500Y-51277500D01*
X34673500Y-48915500D02*
X34673500Y-45231500D01*
X34633500Y-54950500D02*
X34633500Y-51277500D01*
X34633500Y-48915500D02*
X34633500Y-45242500D01*
X34593500Y-54939500D02*
X34593500Y-51277500D01*
X34593500Y-48915500D02*
X34593500Y-45253500D01*
X34553500Y-54927500D02*
X34553500Y-51277500D01*
X34553500Y-48915500D02*
X34553500Y-45265500D01*
X34513500Y-54914500D02*
X34513500Y-51277500D01*
X34513500Y-48915500D02*
X34513500Y-45278500D01*
X34473500Y-54902500D02*
X34473500Y-51277500D01*
X34473500Y-48915500D02*
X34473500Y-45290500D01*
X34433500Y-54888500D02*
X34433500Y-51277500D01*
X34433500Y-48915500D02*
X34433500Y-45304500D01*
X34393500Y-54875500D02*
X34393500Y-51277500D01*
X34393500Y-48915500D02*
X34393500Y-45317500D01*
X34353500Y-54861500D02*
X34353500Y-51277500D01*
X34353500Y-48915500D02*
X34353500Y-45331500D01*
X34313500Y-54847500D02*
X34313500Y-51277500D01*
X34313500Y-48915500D02*
X34313500Y-45345500D01*
X34273500Y-54833500D02*
X34273500Y-51277500D01*
X34273500Y-48915500D02*
X34273500Y-45359500D01*
X34233500Y-54818500D02*
X34233500Y-51277500D01*
X34233500Y-48915500D02*
X34233500Y-45374500D01*
X34193500Y-54802500D02*
X34193500Y-51277500D01*
X34193500Y-48915500D02*
X34193500Y-45390500D01*
X34153500Y-54787500D02*
X34153500Y-51277500D01*
X34153500Y-48915500D02*
X34153500Y-45405500D01*
X34113500Y-54770500D02*
X34113500Y-51277500D01*
X34113500Y-48915500D02*
X34113500Y-45422500D01*
X34073500Y-54754500D02*
X34073500Y-51277500D01*
X34073500Y-48915500D02*
X34073500Y-45438500D01*
X34033500Y-54737500D02*
X34033500Y-51277500D01*
X34033500Y-48915500D02*
X34033500Y-45455500D01*
X33993500Y-54720500D02*
X33993500Y-51277500D01*
X33993500Y-48915500D02*
X33993500Y-45472500D01*
X33953500Y-54702500D02*
X33953500Y-51277500D01*
X33953500Y-48915500D02*
X33953500Y-45490500D01*
X33913500Y-54684500D02*
X33913500Y-51277500D01*
X33913500Y-48915500D02*
X33913500Y-45508500D01*
X33873500Y-54665500D02*
X33873500Y-51277500D01*
X33873500Y-48915500D02*
X33873500Y-45527500D01*
X33833500Y-54646500D02*
X33833500Y-51277500D01*
X33833500Y-48915500D02*
X33833500Y-45546500D01*
X33793500Y-54627500D02*
X33793500Y-51277500D01*
X33793500Y-48915500D02*
X33793500Y-45565500D01*
X33753500Y-54607500D02*
X33753500Y-51277500D01*
X33753500Y-48915500D02*
X33753500Y-45585500D01*
X33713500Y-54587500D02*
X33713500Y-51277500D01*
X33713500Y-48915500D02*
X33713500Y-45605500D01*
X33673500Y-54566500D02*
X33673500Y-51277500D01*
X33673500Y-48915500D02*
X33673500Y-45626500D01*
X33633500Y-54545500D02*
X33633500Y-51277500D01*
X33633500Y-48915500D02*
X33633500Y-45647500D01*
X33593500Y-54524500D02*
X33593500Y-51277500D01*
X33593500Y-48915500D02*
X33593500Y-45668500D01*
X33553500Y-54501500D02*
X33553500Y-51277500D01*
X33553500Y-48915500D02*
X33553500Y-45691500D01*
X33513500Y-54479500D02*
X33513500Y-51277500D01*
X33513500Y-48915500D02*
X33513500Y-45713500D01*
X33473500Y-54456500D02*
X33473500Y-51277500D01*
X33473500Y-48915500D02*
X33473500Y-45736500D01*
X33433500Y-54432500D02*
X33433500Y-51277500D01*
X33433500Y-48915500D02*
X33433500Y-45760500D01*
X33393500Y-54408500D02*
X33393500Y-51277500D01*
X33393500Y-48915500D02*
X33393500Y-45784500D01*
X33353500Y-54384500D02*
X33353500Y-51277500D01*
X33353500Y-48915500D02*
X33353500Y-45808500D01*
X33313500Y-54359500D02*
X33313500Y-51277500D01*
X33313500Y-48915500D02*
X33313500Y-45833500D01*
X33273500Y-54333500D02*
X33273500Y-51277500D01*
X33273500Y-48915500D02*
X33273500Y-45859500D01*
X33233500Y-54307500D02*
X33233500Y-51277500D01*
X33233500Y-48915500D02*
X33233500Y-45885500D01*
X33193500Y-54281500D02*
X33193500Y-51277500D01*
X33193500Y-48915500D02*
X33193500Y-45911500D01*
X33153500Y-54253500D02*
X33153500Y-51277500D01*
X33153500Y-48915500D02*
X33153500Y-45939500D01*
X33113500Y-54226500D02*
X33113500Y-51277500D01*
X33113500Y-48915500D02*
X33113500Y-45966500D01*
X33073500Y-54197500D02*
X33073500Y-51277500D01*
X33073500Y-48915500D02*
X33073500Y-45995500D01*
X33033500Y-54168500D02*
X33033500Y-51277500D01*
X33033500Y-48915500D02*
X33033500Y-46024500D01*
X32993500Y-54139500D02*
X32993500Y-51277500D01*
X32993500Y-48915500D02*
X32993500Y-46053500D01*
X32953500Y-54109500D02*
X32953500Y-51277500D01*
X32953500Y-48915500D02*
X32953500Y-46083500D01*
X32913500Y-54078500D02*
X32913500Y-51277500D01*
X32913500Y-48915500D02*
X32913500Y-46114500D01*
X32873500Y-54047500D02*
X32873500Y-51277500D01*
X32873500Y-48915500D02*
X32873500Y-46145500D01*
X32833500Y-54015500D02*
X32833500Y-51277500D01*
X32833500Y-48915500D02*
X32833500Y-46177500D01*
X32793500Y-53982500D02*
X32793500Y-51277500D01*
X32793500Y-48915500D02*
X32793500Y-46210500D01*
X32753500Y-53949500D02*
X32753500Y-51277500D01*
X32753500Y-48915500D02*
X32753500Y-46243500D01*
X32713500Y-53915500D02*
X32713500Y-51277500D01*
X32713500Y-48915500D02*
X32713500Y-46277500D01*
X32673500Y-53880500D02*
X32673500Y-51277500D01*
X32673500Y-48915500D02*
X32673500Y-46312500D01*
X32633500Y-53844500D02*
X32633500Y-51277500D01*
X32633500Y-48915500D02*
X32633500Y-46348500D01*
X32593500Y-53808500D02*
X32593500Y-51277500D01*
X32593500Y-48915500D02*
X32593500Y-46384500D01*
X32553500Y-53771500D02*
X32553500Y-51277500D01*
X32553500Y-48915500D02*
X32553500Y-46421500D01*
X32513500Y-53733500D02*
X32513500Y-51277500D01*
X32513500Y-48915500D02*
X32513500Y-46459500D01*
X32473500Y-53694500D02*
X32473500Y-51277500D01*
X32473500Y-48915500D02*
X32473500Y-46498500D01*
X32433500Y-53655500D02*
X32433500Y-51277500D01*
X32433500Y-48915500D02*
X32433500Y-46537500D01*
X32393500Y-53614500D02*
X32393500Y-51277500D01*
X32393500Y-48915500D02*
X32393500Y-46578500D01*
X32353500Y-53573500D02*
X32353500Y-46619500D01*
X32313500Y-53531500D02*
X32313500Y-46661500D01*
X32273500Y-53487500D02*
X32273500Y-46705500D01*
X32233500Y-53443500D02*
X32233500Y-46749500D01*
X32193500Y-53398500D02*
X32193500Y-46794500D01*
X32153500Y-53351500D02*
X32153500Y-46841500D01*
X32113500Y-53303500D02*
X32113500Y-46889500D01*
X32073500Y-53254500D02*
X32073500Y-46938500D01*
X32033500Y-53204500D02*
X32033500Y-46988500D01*
X31993500Y-53153500D02*
X31993500Y-47039500D01*
X31953500Y-53100500D02*
X31953500Y-47092500D01*
X31913500Y-53045500D02*
X31913500Y-47147500D01*
X31873500Y-52990500D02*
X31873500Y-47202500D01*
X31833500Y-52932500D02*
X31833500Y-47260500D01*
X31793500Y-52873500D02*
X31793500Y-47319500D01*
X31753500Y-52811500D02*
X31753500Y-47381500D01*
X31713500Y-52748500D02*
X31713500Y-47444500D01*
X31673500Y-52683500D02*
X31673500Y-47509500D01*
X31633500Y-52615500D02*
X31633500Y-47577500D01*
X31593500Y-52545500D02*
X31593500Y-47647500D01*
X31553500Y-52473500D02*
X31553500Y-47719500D01*
X31513500Y-52397500D02*
X31513500Y-47795500D01*
X31473500Y-52318500D02*
X31473500Y-47874500D01*
X31433500Y-52236500D02*
X31433500Y-47956500D01*
X31393500Y-52149500D02*
X31393500Y-48043500D01*
X31353500Y-52058500D02*
X31353500Y-48134500D01*
X31313500Y-51962500D02*
X31313500Y-48230500D01*
X31273500Y-51859500D02*
X31273500Y-48333500D01*
X31233500Y-51750500D02*
X31233500Y-48442500D01*
X31193500Y-51632500D02*
X31193500Y-48560500D01*
X31153500Y-51503500D02*
X31153500Y-48689500D01*
X31113500Y-51361500D02*
X31113500Y-48831500D01*
X31073500Y-51200500D02*
X31073500Y-48992500D01*
X31033500Y-51009500D02*
X31033500Y-49183500D01*
X30993500Y-50768500D02*
X30993500Y-49424500D01*
X30953500Y-50375500D02*
X30953500Y-49817500D01*
X41234500Y-50096500D02*
X39734500Y-50096500D01*
X40484500Y-50846500D02*
X40484500Y-49346500D01*
X31076063Y-41019764D02*
G75*
G03X40873857Y-41016500I4898437J1383264D01*
G01*
X31076063Y-38253236D02*
G75*
G02X40873857Y-38256500I4898437J-1383264D01*
G01*
X31076063Y-38253236D02*
G75*
G03X31075143Y-41016500I4898437J-1383264D01*
G01*
X35974500Y-44686500D02*
X35974500Y-34586500D01*
X35934500Y-44686500D02*
X35934500Y-34586500D01*
X35894500Y-44686500D02*
X35894500Y-34586500D01*
X35854500Y-44685500D02*
X35854500Y-34587500D01*
X35814500Y-44684500D02*
X35814500Y-34588500D01*
X35774500Y-44683500D02*
X35774500Y-34589500D01*
X35734500Y-44681500D02*
X35734500Y-34591500D01*
X35694500Y-44679500D02*
X35694500Y-34593500D01*
X35654500Y-44676500D02*
X35654500Y-34596500D01*
X35614500Y-44674500D02*
X35614500Y-34598500D01*
X35574500Y-44671500D02*
X35574500Y-34601500D01*
X35534500Y-44667500D02*
X35534500Y-34605500D01*
X35494500Y-44664500D02*
X35494500Y-34608500D01*
X35454500Y-44660500D02*
X35454500Y-34612500D01*
X35414500Y-44656500D02*
X35414500Y-34616500D01*
X35374500Y-44651500D02*
X35374500Y-34621500D01*
X35334500Y-44646500D02*
X35334500Y-34626500D01*
X35294500Y-44641500D02*
X35294500Y-34631500D01*
X35253500Y-44635500D02*
X35253500Y-34637500D01*
X35213500Y-44629500D02*
X35213500Y-34643500D01*
X35173500Y-44623500D02*
X35173500Y-34649500D01*
X35133500Y-44617500D02*
X35133500Y-34655500D01*
X35093500Y-44610500D02*
X35093500Y-34662500D01*
X35053500Y-44603500D02*
X35053500Y-34669500D01*
X35013500Y-44595500D02*
X35013500Y-34677500D01*
X34973500Y-44587500D02*
X34973500Y-34685500D01*
X34933500Y-44579500D02*
X34933500Y-34693500D01*
X34893500Y-44571500D02*
X34893500Y-34701500D01*
X34853500Y-44562500D02*
X34853500Y-34710500D01*
X34813500Y-44553500D02*
X34813500Y-34719500D01*
X34773500Y-44543500D02*
X34773500Y-34729500D01*
X34733500Y-44533500D02*
X34733500Y-34739500D01*
X34693500Y-44523500D02*
X34693500Y-34749500D01*
X34653500Y-44512500D02*
X34653500Y-40817500D01*
X34653500Y-38455500D02*
X34653500Y-34760500D01*
X34613500Y-44501500D02*
X34613500Y-40817500D01*
X34613500Y-38455500D02*
X34613500Y-34771500D01*
X34573500Y-44490500D02*
X34573500Y-40817500D01*
X34573500Y-38455500D02*
X34573500Y-34782500D01*
X34533500Y-44479500D02*
X34533500Y-40817500D01*
X34533500Y-38455500D02*
X34533500Y-34793500D01*
X34493500Y-44467500D02*
X34493500Y-40817500D01*
X34493500Y-38455500D02*
X34493500Y-34805500D01*
X34453500Y-44454500D02*
X34453500Y-40817500D01*
X34453500Y-38455500D02*
X34453500Y-34818500D01*
X34413500Y-44442500D02*
X34413500Y-40817500D01*
X34413500Y-38455500D02*
X34413500Y-34830500D01*
X34373500Y-44428500D02*
X34373500Y-40817500D01*
X34373500Y-38455500D02*
X34373500Y-34844500D01*
X34333500Y-44415500D02*
X34333500Y-40817500D01*
X34333500Y-38455500D02*
X34333500Y-34857500D01*
X34293500Y-44401500D02*
X34293500Y-40817500D01*
X34293500Y-38455500D02*
X34293500Y-34871500D01*
X34253500Y-44387500D02*
X34253500Y-40817500D01*
X34253500Y-38455500D02*
X34253500Y-34885500D01*
X34213500Y-44373500D02*
X34213500Y-40817500D01*
X34213500Y-38455500D02*
X34213500Y-34899500D01*
X34173500Y-44358500D02*
X34173500Y-40817500D01*
X34173500Y-38455500D02*
X34173500Y-34914500D01*
X34133500Y-44342500D02*
X34133500Y-40817500D01*
X34133500Y-38455500D02*
X34133500Y-34930500D01*
X34093500Y-44327500D02*
X34093500Y-40817500D01*
X34093500Y-38455500D02*
X34093500Y-34945500D01*
X34053500Y-44310500D02*
X34053500Y-40817500D01*
X34053500Y-38455500D02*
X34053500Y-34962500D01*
X34013500Y-44294500D02*
X34013500Y-40817500D01*
X34013500Y-38455500D02*
X34013500Y-34978500D01*
X33973500Y-44277500D02*
X33973500Y-40817500D01*
X33973500Y-38455500D02*
X33973500Y-34995500D01*
X33933500Y-44260500D02*
X33933500Y-40817500D01*
X33933500Y-38455500D02*
X33933500Y-35012500D01*
X33893500Y-44242500D02*
X33893500Y-40817500D01*
X33893500Y-38455500D02*
X33893500Y-35030500D01*
X33853500Y-44224500D02*
X33853500Y-40817500D01*
X33853500Y-38455500D02*
X33853500Y-35048500D01*
X33813500Y-44205500D02*
X33813500Y-40817500D01*
X33813500Y-38455500D02*
X33813500Y-35067500D01*
X33773500Y-44186500D02*
X33773500Y-40817500D01*
X33773500Y-38455500D02*
X33773500Y-35086500D01*
X33733500Y-44167500D02*
X33733500Y-40817500D01*
X33733500Y-38455500D02*
X33733500Y-35105500D01*
X33693500Y-44147500D02*
X33693500Y-40817500D01*
X33693500Y-38455500D02*
X33693500Y-35125500D01*
X33653500Y-44127500D02*
X33653500Y-40817500D01*
X33653500Y-38455500D02*
X33653500Y-35145500D01*
X33613500Y-44106500D02*
X33613500Y-40817500D01*
X33613500Y-38455500D02*
X33613500Y-35166500D01*
X33573500Y-44085500D02*
X33573500Y-40817500D01*
X33573500Y-38455500D02*
X33573500Y-35187500D01*
X33533500Y-44064500D02*
X33533500Y-40817500D01*
X33533500Y-38455500D02*
X33533500Y-35208500D01*
X33493500Y-44041500D02*
X33493500Y-40817500D01*
X33493500Y-38455500D02*
X33493500Y-35231500D01*
X33453500Y-44019500D02*
X33453500Y-40817500D01*
X33453500Y-38455500D02*
X33453500Y-35253500D01*
X33413500Y-43996500D02*
X33413500Y-40817500D01*
X33413500Y-38455500D02*
X33413500Y-35276500D01*
X33373500Y-43972500D02*
X33373500Y-40817500D01*
X33373500Y-38455500D02*
X33373500Y-35300500D01*
X33333500Y-43948500D02*
X33333500Y-40817500D01*
X33333500Y-38455500D02*
X33333500Y-35324500D01*
X33293500Y-43924500D02*
X33293500Y-40817500D01*
X33293500Y-38455500D02*
X33293500Y-35348500D01*
X33253500Y-43899500D02*
X33253500Y-40817500D01*
X33253500Y-38455500D02*
X33253500Y-35373500D01*
X33213500Y-43873500D02*
X33213500Y-40817500D01*
X33213500Y-38455500D02*
X33213500Y-35399500D01*
X33173500Y-43847500D02*
X33173500Y-40817500D01*
X33173500Y-38455500D02*
X33173500Y-35425500D01*
X33133500Y-43821500D02*
X33133500Y-40817500D01*
X33133500Y-38455500D02*
X33133500Y-35451500D01*
X33093500Y-43793500D02*
X33093500Y-40817500D01*
X33093500Y-38455500D02*
X33093500Y-35479500D01*
X33053500Y-43766500D02*
X33053500Y-40817500D01*
X33053500Y-38455500D02*
X33053500Y-35506500D01*
X33013500Y-43737500D02*
X33013500Y-40817500D01*
X33013500Y-38455500D02*
X33013500Y-35535500D01*
X32973500Y-43708500D02*
X32973500Y-40817500D01*
X32973500Y-38455500D02*
X32973500Y-35564500D01*
X32933500Y-43679500D02*
X32933500Y-40817500D01*
X32933500Y-38455500D02*
X32933500Y-35593500D01*
X32893500Y-43649500D02*
X32893500Y-40817500D01*
X32893500Y-38455500D02*
X32893500Y-35623500D01*
X32853500Y-43618500D02*
X32853500Y-40817500D01*
X32853500Y-38455500D02*
X32853500Y-35654500D01*
X32813500Y-43587500D02*
X32813500Y-40817500D01*
X32813500Y-38455500D02*
X32813500Y-35685500D01*
X32773500Y-43555500D02*
X32773500Y-40817500D01*
X32773500Y-38455500D02*
X32773500Y-35717500D01*
X32733500Y-43522500D02*
X32733500Y-40817500D01*
X32733500Y-38455500D02*
X32733500Y-35750500D01*
X32693500Y-43489500D02*
X32693500Y-40817500D01*
X32693500Y-38455500D02*
X32693500Y-35783500D01*
X32653500Y-43455500D02*
X32653500Y-40817500D01*
X32653500Y-38455500D02*
X32653500Y-35817500D01*
X32613500Y-43420500D02*
X32613500Y-40817500D01*
X32613500Y-38455500D02*
X32613500Y-35852500D01*
X32573500Y-43384500D02*
X32573500Y-40817500D01*
X32573500Y-38455500D02*
X32573500Y-35888500D01*
X32533500Y-43348500D02*
X32533500Y-40817500D01*
X32533500Y-38455500D02*
X32533500Y-35924500D01*
X32493500Y-43311500D02*
X32493500Y-40817500D01*
X32493500Y-38455500D02*
X32493500Y-35961500D01*
X32453500Y-43273500D02*
X32453500Y-40817500D01*
X32453500Y-38455500D02*
X32453500Y-35999500D01*
X32413500Y-43234500D02*
X32413500Y-40817500D01*
X32413500Y-38455500D02*
X32413500Y-36038500D01*
X32373500Y-43195500D02*
X32373500Y-40817500D01*
X32373500Y-38455500D02*
X32373500Y-36077500D01*
X32333500Y-43154500D02*
X32333500Y-40817500D01*
X32333500Y-38455500D02*
X32333500Y-36118500D01*
X32293500Y-43113500D02*
X32293500Y-36159500D01*
X32253500Y-43071500D02*
X32253500Y-36201500D01*
X32213500Y-43027500D02*
X32213500Y-36245500D01*
X32173500Y-42983500D02*
X32173500Y-36289500D01*
X32133500Y-42938500D02*
X32133500Y-36334500D01*
X32093500Y-42891500D02*
X32093500Y-36381500D01*
X32053500Y-42843500D02*
X32053500Y-36429500D01*
X32013500Y-42794500D02*
X32013500Y-36478500D01*
X31973500Y-42744500D02*
X31973500Y-36528500D01*
X31933500Y-42693500D02*
X31933500Y-36579500D01*
X31893500Y-42640500D02*
X31893500Y-36632500D01*
X31853500Y-42585500D02*
X31853500Y-36687500D01*
X31813500Y-42530500D02*
X31813500Y-36742500D01*
X31773500Y-42472500D02*
X31773500Y-36800500D01*
X31733500Y-42413500D02*
X31733500Y-36859500D01*
X31693500Y-42351500D02*
X31693500Y-36921500D01*
X31653500Y-42288500D02*
X31653500Y-36984500D01*
X31613500Y-42223500D02*
X31613500Y-37049500D01*
X31573500Y-42155500D02*
X31573500Y-37117500D01*
X31533500Y-42085500D02*
X31533500Y-37187500D01*
X31493500Y-42013500D02*
X31493500Y-37259500D01*
X31453500Y-41937500D02*
X31453500Y-37335500D01*
X31413500Y-41858500D02*
X31413500Y-37414500D01*
X31373500Y-41776500D02*
X31373500Y-37496500D01*
X31333500Y-41689500D02*
X31333500Y-37583500D01*
X31293500Y-41598500D02*
X31293500Y-37674500D01*
X31253500Y-41502500D02*
X31253500Y-37770500D01*
X31213500Y-41399500D02*
X31213500Y-37873500D01*
X31173500Y-41290500D02*
X31173500Y-37982500D01*
X31133500Y-41172500D02*
X31133500Y-38100500D01*
X31093500Y-41043500D02*
X31093500Y-38229500D01*
X31053500Y-40901500D02*
X31053500Y-38371500D01*
X31013500Y-40740500D02*
X31013500Y-38532500D01*
X30973500Y-40549500D02*
X30973500Y-38723500D01*
X30933500Y-40308500D02*
X30933500Y-38964500D01*
X30893500Y-39915500D02*
X30893500Y-39357500D01*
X41174500Y-39636500D02*
X39674500Y-39636500D01*
X40424500Y-40386500D02*
X40424500Y-38886500D01*
X27414500Y-45376500D02*
X30074500Y-45376500D01*
X27414500Y-37696500D02*
X27414500Y-45376500D01*
X30074500Y-37696500D02*
X30074500Y-45376500D01*
X27414500Y-37696500D02*
X30074500Y-37696500D01*
X27414500Y-36426500D02*
X27414500Y-35096500D01*
X27414500Y-35096500D02*
X28744500Y-35096500D01*
X146159500Y-39946500D02*
X148819500Y-39946500D01*
X146159500Y-37346500D02*
X146159500Y-39946500D01*
X148819500Y-37346500D02*
X148819500Y-39946500D01*
X146159500Y-37346500D02*
X148819500Y-37346500D01*
X146159500Y-36076500D02*
X146159500Y-34746500D01*
X146159500Y-34746500D02*
X147489500Y-34746500D01*
X150194500Y-60211500D02*
X147534500Y-60211500D01*
X150194500Y-62811500D02*
X150194500Y-60211500D01*
X147534500Y-62811500D02*
X147534500Y-60211500D01*
X150194500Y-62811500D02*
X147534500Y-62811500D01*
X150194500Y-64081500D02*
X150194500Y-65411500D01*
X150194500Y-65411500D02*
X148864500Y-65411500D01*
X39500000Y-85000000D02*
G75*
G03X39500000Y-85000000I-5500000J0D01*
G01*
X39500000Y-73000000D02*
G75*
G03X39500000Y-73000000I-5500000J0D01*
G01*
X39500000Y-109000000D02*
G75*
G03X39500000Y-109000000I-5500000J0D01*
G01*
X39500000Y-97000000D02*
G75*
G03X39500000Y-97000000I-5500000J0D01*
G01*
X155761380Y-77306500D02*
X155761380Y-79306500D01*
X153621380Y-79306500D02*
X153621380Y-77306500D01*
X151553540Y-73698080D02*
X149553540Y-73698080D01*
X149553540Y-71558080D02*
X151553540Y-71558080D01*
X151629740Y-93753920D02*
X149629740Y-93753920D01*
X149629740Y-91613920D02*
X151629740Y-91613920D01*
X155685180Y-84526020D02*
X155685180Y-86526020D01*
X153545180Y-86526020D02*
X153545180Y-84526020D01*
D14*
X142689287Y-35630641D02*
X142689287Y-36344927D01*
X142641667Y-36487784D01*
X142546429Y-36583022D01*
X142403572Y-36630641D01*
X142308334Y-36630641D01*
X143308334Y-36059212D02*
X143213096Y-36011593D01*
X143165477Y-35963974D01*
X143117858Y-35868736D01*
X143117858Y-35821117D01*
X143165477Y-35725879D01*
X143213096Y-35678260D01*
X143308334Y-35630641D01*
X143498811Y-35630641D01*
X143594049Y-35678260D01*
X143641668Y-35725879D01*
X143689287Y-35821117D01*
X143689287Y-35868736D01*
X143641668Y-35963974D01*
X143594049Y-36011593D01*
X143498811Y-36059212D01*
X143308334Y-36059212D01*
X143213096Y-36106831D01*
X143165477Y-36154450D01*
X143117858Y-36249689D01*
X143117858Y-36440165D01*
X143165477Y-36535403D01*
X143213096Y-36583022D01*
X143308334Y-36630641D01*
X143498811Y-36630641D01*
X143594049Y-36583022D01*
X143641668Y-36535403D01*
X143689287Y-36440165D01*
X143689287Y-36249689D01*
X143641668Y-36154450D01*
X143594049Y-36106831D01*
X143498811Y-36059212D01*
X51055143Y-61596376D02*
X51102762Y-61643995D01*
X51150381Y-61786852D01*
X51150381Y-61882090D01*
X51102762Y-62024948D01*
X51007524Y-62120186D01*
X50912286Y-62167805D01*
X50721810Y-62215424D01*
X50578952Y-62215424D01*
X50388476Y-62167805D01*
X50293238Y-62120186D01*
X50198000Y-62024948D01*
X50150381Y-61882090D01*
X50150381Y-61786852D01*
X50198000Y-61643995D01*
X50245619Y-61596376D01*
X50150381Y-60977329D02*
X50150381Y-60786852D01*
X50198000Y-60691614D01*
X50293238Y-60596376D01*
X50483714Y-60548757D01*
X50817048Y-60548757D01*
X51007524Y-60596376D01*
X51102762Y-60691614D01*
X51150381Y-60786852D01*
X51150381Y-60977329D01*
X51102762Y-61072567D01*
X51007524Y-61167805D01*
X50817048Y-61215424D01*
X50483714Y-61215424D01*
X50293238Y-61167805D01*
X50198000Y-61072567D01*
X50150381Y-60977329D01*
X51150381Y-60120186D02*
X50150381Y-60120186D01*
X51150381Y-59548757D01*
X50150381Y-59548757D01*
X51150381Y-58548757D02*
X51150381Y-59120186D01*
X51150381Y-58834472D02*
X50150381Y-58834472D01*
X50293238Y-58929710D01*
X50388476Y-59024948D01*
X50436095Y-59120186D01*
X51150381Y-57596376D02*
X51150381Y-58167805D01*
X51150381Y-57882091D02*
X50150381Y-57882091D01*
X50293238Y-57977329D01*
X50388476Y-58072567D01*
X50436095Y-58167805D01*
X129055143Y-61596376D02*
X129102762Y-61643995D01*
X129150381Y-61786852D01*
X129150381Y-61882090D01*
X129102762Y-62024948D01*
X129007524Y-62120186D01*
X128912286Y-62167805D01*
X128721810Y-62215424D01*
X128578952Y-62215424D01*
X128388476Y-62167805D01*
X128293238Y-62120186D01*
X128198000Y-62024948D01*
X128150381Y-61882090D01*
X128150381Y-61786852D01*
X128198000Y-61643995D01*
X128245619Y-61596376D01*
X128150381Y-60977329D02*
X128150381Y-60786852D01*
X128198000Y-60691614D01*
X128293238Y-60596376D01*
X128483714Y-60548757D01*
X128817048Y-60548757D01*
X129007524Y-60596376D01*
X129102762Y-60691614D01*
X129150381Y-60786852D01*
X129150381Y-60977329D01*
X129102762Y-61072567D01*
X129007524Y-61167805D01*
X128817048Y-61215424D01*
X128483714Y-61215424D01*
X128293238Y-61167805D01*
X128198000Y-61072567D01*
X128150381Y-60977329D01*
X129150381Y-60120186D02*
X128150381Y-60120186D01*
X129150381Y-59548757D01*
X128150381Y-59548757D01*
X128245619Y-59120186D02*
X128198000Y-59072567D01*
X128150381Y-58977329D01*
X128150381Y-58739233D01*
X128198000Y-58643995D01*
X128245619Y-58596376D01*
X128340857Y-58548757D01*
X128436095Y-58548757D01*
X128578952Y-58596376D01*
X129150381Y-59167805D01*
X129150381Y-58548757D01*
X129150381Y-57596376D02*
X129150381Y-58167805D01*
X129150381Y-57882091D02*
X128150381Y-57882091D01*
X128293238Y-57977329D01*
X128388476Y-58072567D01*
X128436095Y-58167805D01*
X43001907Y-35511261D02*
X43001907Y-36225547D01*
X42954287Y-36368404D01*
X42859049Y-36463642D01*
X42716192Y-36511261D01*
X42620954Y-36511261D01*
X44001907Y-36511261D02*
X43430478Y-36511261D01*
X43716192Y-36511261D02*
X43716192Y-35511261D01*
X43620954Y-35654118D01*
X43525716Y-35749356D01*
X43430478Y-35796975D01*
X146729607Y-99949341D02*
X146729607Y-100663627D01*
X146681987Y-100806484D01*
X146586749Y-100901722D01*
X146443892Y-100949341D01*
X146348654Y-100949341D01*
X147158178Y-100044579D02*
X147205797Y-99996960D01*
X147301035Y-99949341D01*
X147539131Y-99949341D01*
X147634369Y-99996960D01*
X147681988Y-100044579D01*
X147729607Y-100139817D01*
X147729607Y-100235055D01*
X147681988Y-100377912D01*
X147110559Y-100949341D01*
X147729607Y-100949341D01*
X153848327Y-103840621D02*
X153848327Y-104554907D01*
X153800707Y-104697764D01*
X153705469Y-104793002D01*
X153562612Y-104840621D01*
X153467374Y-104840621D01*
X154229279Y-103840621D02*
X154848327Y-103840621D01*
X154514993Y-104221573D01*
X154657851Y-104221573D01*
X154753089Y-104269192D01*
X154800708Y-104316811D01*
X154848327Y-104412050D01*
X154848327Y-104650145D01*
X154800708Y-104745383D01*
X154753089Y-104793002D01*
X154657851Y-104840621D01*
X154372136Y-104840621D01*
X154276898Y-104793002D01*
X154229279Y-104745383D01*
X148771167Y-74408881D02*
X148771167Y-75123167D01*
X148723547Y-75266024D01*
X148628309Y-75361262D01*
X148485452Y-75408881D01*
X148390214Y-75408881D01*
X149675929Y-74742214D02*
X149675929Y-75408881D01*
X149437833Y-74361262D02*
X149199738Y-75075548D01*
X149818786Y-75075548D01*
X148531167Y-83888881D02*
X148531167Y-84603167D01*
X148483547Y-84746024D01*
X148388309Y-84841262D01*
X148245452Y-84888881D01*
X148150214Y-84888881D01*
X149483548Y-83888881D02*
X149007357Y-83888881D01*
X148959738Y-84365071D01*
X149007357Y-84317452D01*
X149102595Y-84269833D01*
X149340691Y-84269833D01*
X149435929Y-84317452D01*
X149483548Y-84365071D01*
X149531167Y-84460310D01*
X149531167Y-84698405D01*
X149483548Y-84793643D01*
X149435929Y-84841262D01*
X149340691Y-84888881D01*
X149102595Y-84888881D01*
X149007357Y-84841262D01*
X148959738Y-84793643D01*
X154056607Y-94922681D02*
X154056607Y-95636967D01*
X154008987Y-95779824D01*
X153913749Y-95875062D01*
X153770892Y-95922681D01*
X153675654Y-95922681D01*
X154961369Y-94922681D02*
X154770892Y-94922681D01*
X154675654Y-94970300D01*
X154628035Y-95017919D01*
X154532797Y-95160776D01*
X154485178Y-95351252D01*
X154485178Y-95732205D01*
X154532797Y-95827443D01*
X154580416Y-95875062D01*
X154675654Y-95922681D01*
X154866131Y-95922681D01*
X154961369Y-95875062D01*
X155008988Y-95827443D01*
X155056607Y-95732205D01*
X155056607Y-95494110D01*
X155008988Y-95398871D01*
X154961369Y-95351252D01*
X154866131Y-95303633D01*
X154675654Y-95303633D01*
X154580416Y-95351252D01*
X154532797Y-95398871D01*
X154485178Y-95494110D01*
X153072807Y-45962821D02*
X153072807Y-46677107D01*
X153025187Y-46819964D01*
X152929949Y-46915202D01*
X152787092Y-46962821D01*
X152691854Y-46962821D01*
X153453759Y-45962821D02*
X154120426Y-45962821D01*
X153691854Y-46962821D01*
X153072807Y-57979561D02*
X153072807Y-58693847D01*
X153025187Y-58836704D01*
X152929949Y-58931942D01*
X152787092Y-58979561D01*
X152691854Y-58979561D01*
X153596616Y-58979561D02*
X153787092Y-58979561D01*
X153882331Y-58931942D01*
X153929950Y-58884323D01*
X154025188Y-58741466D01*
X154072807Y-58550990D01*
X154072807Y-58170037D01*
X154025188Y-58074799D01*
X153977569Y-58027180D01*
X153882331Y-57979561D01*
X153691854Y-57979561D01*
X153596616Y-58027180D01*
X153548997Y-58074799D01*
X153501378Y-58170037D01*
X153501378Y-58408132D01*
X153548997Y-58503370D01*
X153596616Y-58550990D01*
X153691854Y-58598609D01*
X153882331Y-58598609D01*
X153977569Y-58550990D01*
X154025188Y-58503370D01*
X154072807Y-58408132D01*
X146546881Y-92873166D02*
X146070690Y-93206500D01*
X146546881Y-93444595D02*
X145546881Y-93444595D01*
X145546881Y-93063642D01*
X145594500Y-92968404D01*
X145642119Y-92920785D01*
X145737357Y-92873166D01*
X145880214Y-92873166D01*
X145975452Y-92920785D01*
X146023071Y-92968404D01*
X146070690Y-93063642D01*
X146070690Y-93444595D01*
X146546881Y-91920785D02*
X146546881Y-92492214D01*
X146546881Y-92206500D02*
X145546881Y-92206500D01*
X145689738Y-92301738D01*
X145784976Y-92396976D01*
X145832595Y-92492214D01*
X39967834Y-65883643D02*
X39920215Y-65931262D01*
X39777358Y-65978881D01*
X39682120Y-65978881D01*
X39539262Y-65931262D01*
X39444024Y-65836024D01*
X39396405Y-65740786D01*
X39348786Y-65550310D01*
X39348786Y-65407452D01*
X39396405Y-65216976D01*
X39444024Y-65121738D01*
X39539262Y-65026500D01*
X39682120Y-64978881D01*
X39777358Y-64978881D01*
X39920215Y-65026500D01*
X39967834Y-65074119D01*
X40920215Y-65978881D02*
X40348786Y-65978881D01*
X40634500Y-65978881D02*
X40634500Y-64978881D01*
X40539262Y-65121738D01*
X40444024Y-65216976D01*
X40348786Y-65264595D01*
X39967834Y-55473643D02*
X39920215Y-55521262D01*
X39777358Y-55568881D01*
X39682120Y-55568881D01*
X39539262Y-55521262D01*
X39444024Y-55426024D01*
X39396405Y-55330786D01*
X39348786Y-55140310D01*
X39348786Y-54997452D01*
X39396405Y-54806976D01*
X39444024Y-54711738D01*
X39539262Y-54616500D01*
X39682120Y-54568881D01*
X39777358Y-54568881D01*
X39920215Y-54616500D01*
X39967834Y-54664119D01*
X40348786Y-54664119D02*
X40396405Y-54616500D01*
X40491643Y-54568881D01*
X40729739Y-54568881D01*
X40824977Y-54616500D01*
X40872596Y-54664119D01*
X40920215Y-54759357D01*
X40920215Y-54854595D01*
X40872596Y-54997452D01*
X40301167Y-55568881D01*
X40920215Y-55568881D01*
X40567834Y-44063643D02*
X40520215Y-44111262D01*
X40377358Y-44158881D01*
X40282120Y-44158881D01*
X40139262Y-44111262D01*
X40044024Y-44016024D01*
X39996405Y-43920786D01*
X39948786Y-43730310D01*
X39948786Y-43587452D01*
X39996405Y-43396976D01*
X40044024Y-43301738D01*
X40139262Y-43206500D01*
X40282120Y-43158881D01*
X40377358Y-43158881D01*
X40520215Y-43206500D01*
X40567834Y-43254119D01*
X40901167Y-43158881D02*
X41520215Y-43158881D01*
X41186881Y-43539833D01*
X41329739Y-43539833D01*
X41424977Y-43587452D01*
X41472596Y-43635071D01*
X41520215Y-43730310D01*
X41520215Y-43968405D01*
X41472596Y-44063643D01*
X41424977Y-44111262D01*
X41329739Y-44158881D01*
X41044024Y-44158881D01*
X40948786Y-44111262D01*
X40901167Y-44063643D01*
X30704977Y-34718881D02*
X30704977Y-35433167D01*
X30657357Y-35576024D01*
X30562119Y-35671262D01*
X30419262Y-35718881D01*
X30324024Y-35718881D01*
X31704977Y-35718881D02*
X31133548Y-35718881D01*
X31419262Y-35718881D02*
X31419262Y-34718881D01*
X31324024Y-34861738D01*
X31228786Y-34956976D01*
X31133548Y-35004595D01*
X32324024Y-34718881D02*
X32419263Y-34718881D01*
X32514501Y-34766500D01*
X32562120Y-34814119D01*
X32609739Y-34909357D01*
X32657358Y-35099833D01*
X32657358Y-35337929D01*
X32609739Y-35528405D01*
X32562120Y-35623643D01*
X32514501Y-35671262D01*
X32419263Y-35718881D01*
X32324024Y-35718881D01*
X32228786Y-35671262D01*
X32181167Y-35623643D01*
X32133548Y-35528405D01*
X32085929Y-35337929D01*
X32085929Y-35099833D01*
X32133548Y-34909357D01*
X32181167Y-34814119D01*
X32228786Y-34766500D01*
X32324024Y-34718881D01*
X146324977Y-40448881D02*
X146324977Y-41163167D01*
X146277357Y-41306024D01*
X146182119Y-41401262D01*
X146039262Y-41448881D01*
X145944024Y-41448881D01*
X147324977Y-41448881D02*
X146753548Y-41448881D01*
X147039262Y-41448881D02*
X147039262Y-40448881D01*
X146944024Y-40591738D01*
X146848786Y-40686976D01*
X146753548Y-40734595D01*
X148277358Y-41448881D02*
X147705929Y-41448881D01*
X147991643Y-41448881D02*
X147991643Y-40448881D01*
X147896405Y-40591738D01*
X147801167Y-40686976D01*
X147705929Y-40734595D01*
X148054977Y-65863881D02*
X148054977Y-66578167D01*
X148007357Y-66721024D01*
X147912119Y-66816262D01*
X147769262Y-66863881D01*
X147674024Y-66863881D01*
X149054977Y-66863881D02*
X148483548Y-66863881D01*
X148769262Y-66863881D02*
X148769262Y-65863881D01*
X148674024Y-66006738D01*
X148578786Y-66101976D01*
X148483548Y-66149595D01*
X149435929Y-65959119D02*
X149483548Y-65911500D01*
X149578786Y-65863881D01*
X149816882Y-65863881D01*
X149912120Y-65911500D01*
X149959739Y-65959119D01*
X150007358Y-66054357D01*
X150007358Y-66149595D01*
X149959739Y-66292452D01*
X149388310Y-66863881D01*
X150007358Y-66863881D01*
X28600953Y-79728881D02*
X28029524Y-79728881D01*
X28315238Y-79728881D02*
X28315238Y-78728881D01*
X28220000Y-78871738D01*
X28124762Y-78966976D01*
X28029524Y-79014595D01*
X28981905Y-78824119D02*
X29029524Y-78776500D01*
X29124762Y-78728881D01*
X29362858Y-78728881D01*
X29458096Y-78776500D01*
X29505715Y-78824119D01*
X29553334Y-78919357D01*
X29553334Y-79014595D01*
X29505715Y-79157452D01*
X28934286Y-79728881D01*
X29553334Y-79728881D01*
X29839048Y-78728881D02*
X30172381Y-79728881D01*
X30505715Y-78728881D01*
X27671905Y-66818881D02*
X28290953Y-66818881D01*
X27957619Y-67199833D01*
X28100477Y-67199833D01*
X28195715Y-67247452D01*
X28243334Y-67295071D01*
X28290953Y-67390310D01*
X28290953Y-67628405D01*
X28243334Y-67723643D01*
X28195715Y-67771262D01*
X28100477Y-67818881D01*
X27814762Y-67818881D01*
X27719524Y-67771262D01*
X27671905Y-67723643D01*
X28576667Y-66818881D02*
X28910000Y-67818881D01*
X29243334Y-66818881D01*
X29481429Y-66818881D02*
X30100477Y-66818881D01*
X29767143Y-67199833D01*
X29910001Y-67199833D01*
X30005239Y-67247452D01*
X30052858Y-67295071D01*
X30100477Y-67390310D01*
X30100477Y-67628405D01*
X30052858Y-67723643D01*
X30005239Y-67771262D01*
X29910001Y-67818881D01*
X29624286Y-67818881D01*
X29529048Y-67771262D01*
X29481429Y-67723643D01*
X28138096Y-102626500D02*
X28042858Y-102578881D01*
X27900001Y-102578881D01*
X27757143Y-102626500D01*
X27661905Y-102721738D01*
X27614286Y-102816976D01*
X27566667Y-103007452D01*
X27566667Y-103150310D01*
X27614286Y-103340786D01*
X27661905Y-103436024D01*
X27757143Y-103531262D01*
X27900001Y-103578881D01*
X27995239Y-103578881D01*
X28138096Y-103531262D01*
X28185715Y-103483643D01*
X28185715Y-103150310D01*
X27995239Y-103150310D01*
X28614286Y-103578881D02*
X28614286Y-102578881D01*
X29185715Y-103578881D01*
X29185715Y-102578881D01*
X29661905Y-103578881D02*
X29661905Y-102578881D01*
X29900000Y-102578881D01*
X30042858Y-102626500D01*
X30138096Y-102721738D01*
X30185715Y-102816976D01*
X30233334Y-103007452D01*
X30233334Y-103150310D01*
X30185715Y-103340786D01*
X30138096Y-103436024D01*
X30042858Y-103531262D01*
X29900000Y-103578881D01*
X29661905Y-103578881D01*
X28188786Y-90755071D02*
X28331643Y-90802690D01*
X28379262Y-90850310D01*
X28426881Y-90945548D01*
X28426881Y-91088405D01*
X28379262Y-91183643D01*
X28331643Y-91231262D01*
X28236405Y-91278881D01*
X27855452Y-91278881D01*
X27855452Y-90278881D01*
X28188786Y-90278881D01*
X28284024Y-90326500D01*
X28331643Y-90374119D01*
X28379262Y-90469357D01*
X28379262Y-90564595D01*
X28331643Y-90659833D01*
X28284024Y-90707452D01*
X28188786Y-90755071D01*
X27855452Y-90755071D01*
X29284024Y-91278881D02*
X29284024Y-90755071D01*
X29236405Y-90659833D01*
X29141167Y-90612214D01*
X28950690Y-90612214D01*
X28855452Y-90659833D01*
X29284024Y-91231262D02*
X29188786Y-91278881D01*
X28950690Y-91278881D01*
X28855452Y-91231262D01*
X28807833Y-91136024D01*
X28807833Y-91040786D01*
X28855452Y-90945548D01*
X28950690Y-90897929D01*
X29188786Y-90897929D01*
X29284024Y-90850310D01*
X29617357Y-90612214D02*
X29998309Y-90612214D01*
X29760214Y-90278881D02*
X29760214Y-91136024D01*
X29807833Y-91231262D01*
X29903071Y-91278881D01*
X29998309Y-91278881D01*
X30331643Y-90897929D02*
X31093548Y-90897929D01*
X30712596Y-91278881D02*
X30712596Y-90516976D01*
X155166881Y-78473166D02*
X154690690Y-78806500D01*
X155166881Y-79044595D02*
X154166881Y-79044595D01*
X154166881Y-78663642D01*
X154214500Y-78568404D01*
X154262119Y-78520785D01*
X154357357Y-78473166D01*
X154500214Y-78473166D01*
X154595452Y-78520785D01*
X154643071Y-78568404D01*
X154690690Y-78663642D01*
X154690690Y-79044595D01*
X154262119Y-78092214D02*
X154214500Y-78044595D01*
X154166881Y-77949357D01*
X154166881Y-77711261D01*
X154214500Y-77616023D01*
X154262119Y-77568404D01*
X154357357Y-77520785D01*
X154452595Y-77520785D01*
X154595452Y-77568404D01*
X155166881Y-78139833D01*
X155166881Y-77520785D01*
X150386874Y-73118881D02*
X150053540Y-72642690D01*
X149815445Y-73118881D02*
X149815445Y-72118881D01*
X150196398Y-72118881D01*
X150291636Y-72166500D01*
X150339255Y-72214119D01*
X150386874Y-72309357D01*
X150386874Y-72452214D01*
X150339255Y-72547452D01*
X150291636Y-72595071D01*
X150196398Y-72642690D01*
X149815445Y-72642690D01*
X150720207Y-72118881D02*
X151339255Y-72118881D01*
X151005921Y-72499833D01*
X151148779Y-72499833D01*
X151244017Y-72547452D01*
X151291636Y-72595071D01*
X151339255Y-72690310D01*
X151339255Y-72928405D01*
X151291636Y-73023643D01*
X151244017Y-73071262D01*
X151148779Y-73118881D01*
X150863064Y-73118881D01*
X150767826Y-73071262D01*
X150720207Y-73023643D01*
X150463074Y-93118881D02*
X150129740Y-92642690D01*
X149891645Y-93118881D02*
X149891645Y-92118881D01*
X150272598Y-92118881D01*
X150367836Y-92166500D01*
X150415455Y-92214119D01*
X150463074Y-92309357D01*
X150463074Y-92452214D01*
X150415455Y-92547452D01*
X150367836Y-92595071D01*
X150272598Y-92642690D01*
X149891645Y-92642690D01*
X151320217Y-92452214D02*
X151320217Y-93118881D01*
X151082121Y-92071262D02*
X150844026Y-92785548D01*
X151463074Y-92785548D01*
X155066881Y-85633166D02*
X154590690Y-85966500D01*
X155066881Y-86204595D02*
X154066881Y-86204595D01*
X154066881Y-85823642D01*
X154114500Y-85728404D01*
X154162119Y-85680785D01*
X154257357Y-85633166D01*
X154400214Y-85633166D01*
X154495452Y-85680785D01*
X154543071Y-85728404D01*
X154590690Y-85823642D01*
X154590690Y-86204595D01*
X154066881Y-84728404D02*
X154066881Y-85204595D01*
X154543071Y-85252214D01*
X154495452Y-85204595D01*
X154447833Y-85109357D01*
X154447833Y-84871261D01*
X154495452Y-84776023D01*
X154543071Y-84728404D01*
X154638310Y-84680785D01*
X154876405Y-84680785D01*
X154971643Y-84728404D01*
X155019262Y-84776023D01*
X155066881Y-84871261D01*
X155066881Y-85109357D01*
X155019262Y-85204595D01*
X154971643Y-85252214D01*
M02*
