M48
;DRILL file {KiCad 4.0.7} date 06/20/18 13:55:08
;FORMAT={-:-/ absolute / metric / decimal}
FMAT,2
METRIC,TZ
T1C0.300
T2C1.000
T3C6.100
%
G90
G05
M71
T1
X28.524Y-58.716
X28.524Y-59.986
X28.524Y-61.256
X28.524Y-62.526
X28.524Y-63.796
X28.524Y-65.066
X31.064Y-35.856
X31.064Y-53.636
X31.064Y-54.906
X31.064Y-56.176
X41.224Y-35.856
X50.114Y-39.666
X52.468Y-53.556
X52.468Y-54.826
X52.468Y-56.096
X52.468Y-57.366
X52.468Y-58.636
X52.468Y-59.906
X52.468Y-61.176
X52.468Y-62.446
X52.468Y-63.716
X52.468Y-64.986
X52.468Y-66.256
X52.468Y-67.526
X52.468Y-68.796
X52.468Y-70.066
X52.468Y-71.336
X52.468Y-72.606
X52.468Y-73.876
X52.468Y-75.146
X52.468Y-76.416
X52.468Y-77.686
X52.468Y-78.956
X52.468Y-80.226
X52.468Y-81.496
X52.468Y-82.766
X52.468Y-84.036
X52.468Y-85.306
X52.468Y-86.576
X52.468Y-87.846
X52.468Y-89.116
X52.468Y-90.386
X52.654Y-112.524
X53.738Y-53.556
X53.738Y-54.826
X53.738Y-56.096
X53.738Y-57.366
X53.738Y-58.636
X53.738Y-59.906
X53.738Y-61.176
X53.738Y-62.446
X53.738Y-63.716
X53.738Y-64.986
X53.738Y-66.256
X53.738Y-67.526
X53.738Y-68.796
X53.738Y-70.066
X53.738Y-71.336
X53.738Y-72.606
X53.738Y-73.876
X53.738Y-75.146
X53.738Y-76.416
X53.738Y-77.686
X53.738Y-78.956
X53.738Y-80.226
X53.738Y-81.496
X53.738Y-82.766
X53.738Y-84.036
X53.738Y-85.306
X53.738Y-86.576
X53.738Y-87.846
X53.738Y-89.116
X53.738Y-90.386
X55.008Y-53.556
X55.008Y-54.826
X55.008Y-56.096
X55.008Y-57.366
X55.008Y-58.636
X55.008Y-59.906
X55.008Y-61.176
X55.008Y-62.446
X55.008Y-63.716
X55.008Y-64.986
X55.008Y-66.256
X55.008Y-67.526
X55.008Y-68.796
X55.008Y-70.066
X55.008Y-71.336
X55.008Y-72.606
X55.008Y-73.876
X55.008Y-75.146
X55.008Y-76.416
X55.008Y-77.686
X55.008Y-78.956
X55.008Y-80.226
X55.008Y-81.496
X55.008Y-82.766
X55.008Y-84.036
X55.008Y-85.306
X55.008Y-86.576
X55.008Y-87.846
X55.008Y-89.116
X55.008Y-90.386
X55.194Y-39.666
X56.278Y-53.556
X56.278Y-54.826
X56.278Y-56.096
X56.278Y-57.366
X56.278Y-58.636
X56.278Y-59.906
X56.278Y-61.176
X56.278Y-62.446
X56.278Y-63.716
X56.278Y-64.986
X56.278Y-66.256
X56.278Y-67.526
X56.278Y-68.796
X56.278Y-70.066
X56.278Y-71.336
X56.278Y-72.606
X56.278Y-73.876
X56.278Y-75.146
X56.278Y-76.416
X56.278Y-77.686
X56.278Y-78.956
X56.278Y-80.226
X56.278Y-81.496
X56.278Y-82.766
X56.278Y-84.036
X56.278Y-85.306
X56.278Y-86.576
X56.278Y-87.846
X56.278Y-89.116
X56.278Y-90.386
X57.734Y-112.524
X60.274Y-39.666
X60.274Y-59.986
X62.814Y-59.986
X62.814Y-112.524
X65.355Y-39.666
X65.355Y-57.447
X65.355Y-65.066
X67.894Y-54.906
X67.894Y-62.526
X67.894Y-112.524
X70.434Y-39.666
X70.434Y-52.366
X70.434Y-59.986
X72.974Y-49.826
X72.974Y-57.447
X72.974Y-112.524
X75.514Y-39.666
X75.514Y-47.286
X75.514Y-54.906
X78.054Y-52.366
X78.054Y-112.524
X80.594Y-39.666
X80.594Y-44.746
X80.594Y-49.826
X83.135Y-112.524
X85.674Y-39.666
X85.674Y-44.746
X85.674Y-49.826
X88.215Y-112.524
X90.754Y-39.666
X90.754Y-44.746
X90.754Y-49.826
X93.294Y-112.524
X95.834Y-39.666
X95.834Y-44.746
X95.834Y-49.826
X98.374Y-112.524
X100.914Y-39.666
X100.914Y-44.746
X100.914Y-49.826
X103.454Y-112.524
X105.995Y-39.666
X105.995Y-44.746
X105.995Y-49.826
X108.534Y-112.524
X111.075Y-39.666
X111.075Y-44.746
X111.075Y-49.826
X113.614Y-112.524
X116.154Y-39.666
X116.154Y-44.746
X116.154Y-49.826
X118.694Y-112.524
X121.234Y-39.666
X121.234Y-44.746
X121.234Y-49.826
X123.774Y-112.524
X126.314Y-39.666
X126.314Y-44.746
X126.314Y-49.826
X128.855Y-112.524
X130.468Y-53.556
X130.468Y-54.826
X130.468Y-56.096
X130.468Y-57.366
X130.468Y-58.636
X130.468Y-59.906
X130.468Y-61.176
X130.468Y-62.446
X130.468Y-63.716
X130.468Y-64.986
X130.468Y-66.256
X130.468Y-67.526
X130.468Y-68.796
X130.468Y-70.066
X130.468Y-71.336
X130.468Y-72.606
X130.468Y-73.876
X130.468Y-75.146
X130.468Y-76.416
X130.468Y-77.686
X130.468Y-78.956
X130.468Y-80.226
X130.468Y-81.496
X130.468Y-82.766
X130.468Y-84.036
X130.468Y-85.306
X130.468Y-86.576
X130.468Y-87.846
X130.468Y-89.116
X130.468Y-90.386
X131.394Y-39.666
X131.394Y-44.746
X131.738Y-53.556
X131.738Y-54.826
X131.738Y-56.096
X131.738Y-57.366
X131.738Y-58.636
X131.738Y-59.906
X131.738Y-61.176
X131.738Y-62.446
X131.738Y-63.716
X131.738Y-64.986
X131.738Y-66.256
X131.738Y-67.526
X131.738Y-68.796
X131.738Y-70.066
X131.738Y-71.336
X131.738Y-72.606
X131.738Y-73.876
X131.738Y-75.146
X131.738Y-76.416
X131.738Y-77.686
X131.738Y-78.956
X131.738Y-80.226
X131.738Y-81.496
X131.738Y-82.766
X131.738Y-84.036
X131.738Y-85.306
X131.738Y-86.576
X131.738Y-87.846
X131.738Y-89.116
X131.738Y-90.386
X133.008Y-53.556
X133.008Y-54.826
X133.008Y-56.096
X133.008Y-57.366
X133.008Y-58.636
X133.008Y-59.906
X133.008Y-61.176
X133.008Y-62.446
X133.008Y-63.716
X133.008Y-64.986
X133.008Y-66.256
X133.008Y-67.526
X133.008Y-68.796
X133.008Y-70.066
X133.008Y-71.336
X133.008Y-72.606
X133.008Y-73.876
X133.008Y-75.146
X133.008Y-76.416
X133.008Y-77.686
X133.008Y-78.956
X133.008Y-80.226
X133.008Y-81.496
X133.008Y-82.766
X133.008Y-84.036
X133.008Y-85.306
X133.008Y-86.576
X133.008Y-87.846
X133.008Y-89.116
X133.008Y-90.386
X133.934Y-112.524
X134.278Y-53.556
X134.278Y-54.826
X134.278Y-56.096
X134.278Y-57.366
X134.278Y-58.636
X134.278Y-59.906
X134.278Y-61.176
X134.278Y-62.446
X134.278Y-63.716
X134.278Y-64.986
X134.278Y-66.256
X134.278Y-67.526
X134.278Y-68.796
X134.278Y-70.066
X134.278Y-71.336
X134.278Y-72.606
X134.278Y-73.876
X134.278Y-75.146
X134.278Y-76.416
X134.278Y-77.686
X134.278Y-78.956
X134.278Y-80.226
X134.278Y-81.496
X134.278Y-82.766
X134.278Y-84.036
X134.278Y-85.306
X134.278Y-86.576
X134.278Y-87.846
X134.278Y-89.116
X134.278Y-90.386
X136.475Y-39.666
X136.475Y-44.746
X139.014Y-112.524
X146.635Y-49.826
X146.635Y-52.366
X146.635Y-57.447
X146.635Y-59.986
X146.635Y-84.117
X146.635Y-89.197
X146.635Y-91.736
X149.174Y-40.685
X149.174Y-81.576
X149.174Y-84.117
X149.286Y-45.524
X149.479Y-42.483
X150.864Y-48.316
X151.458Y-46.524
X151.714Y-57.447
X151.714Y-59.986
X151.714Y-62.526
X151.714Y-65.066
X151.714Y-67.606
X152.136Y-47.787
X152.164Y-36.375
X153.014Y-48.366
X153.214Y-36.491
X153.411Y-52.781
X153.462Y-40.685
X155.589Y-48.392
X156.794Y-44.746
X156.794Y-59.986
X156.794Y-62.526
X156.794Y-65.066
X156.794Y-67.606
T2
X28.744Y-36.426
X28.744Y-38.966
X28.744Y-41.506
X28.744Y-44.046
X33.474Y-39.636
X33.535Y-50.096
X33.544Y-60.586
X38.474Y-39.636
X38.535Y-50.096
X38.544Y-60.586
X43.335Y-38.389
X43.335Y-40.929
X43.335Y-43.469
X43.335Y-46.009
X43.335Y-48.549
X43.335Y-51.089
X43.335Y-53.629
X43.335Y-56.169
X43.335Y-58.709
X43.335Y-61.249
X43.335Y-63.789
X43.335Y-66.329
X43.335Y-68.869
X43.335Y-71.409
X43.335Y-73.949
X43.335Y-76.489
X43.335Y-79.029
X43.335Y-81.569
X43.335Y-84.109
X43.335Y-86.649
X43.335Y-89.189
X43.335Y-91.729
X43.335Y-94.269
X43.335Y-96.809
X43.335Y-99.349
X43.335Y-101.889
X43.335Y-104.429
X43.335Y-106.969
X43.335Y-109.509
X43.335Y-112.049
X143.023Y-38.508
X143.023Y-41.048
X143.023Y-43.588
X143.023Y-46.128
X143.023Y-48.668
X143.023Y-51.208
X143.023Y-53.748
X143.023Y-56.288
X143.023Y-58.828
X143.023Y-61.368
X143.023Y-63.908
X143.023Y-66.448
X143.023Y-68.988
X143.023Y-71.528
X143.023Y-74.068
X143.023Y-76.608
X143.023Y-79.148
X143.023Y-81.688
X143.023Y-84.228
X143.023Y-86.768
X143.023Y-89.308
X143.023Y-91.848
X143.023Y-94.388
X143.023Y-96.928
X143.023Y-99.468
X143.023Y-102.008
X143.023Y-104.548
X143.023Y-107.088
X143.023Y-109.628
X143.023Y-112.168
X147.489Y-36.076
X147.489Y-38.616
X148.864Y-61.541
X148.864Y-64.081
X149.312Y-104.388
X149.393Y-100.497
X149.52Y-95.47
X151.643Y-75.295
X151.643Y-77.835
X151.643Y-80.375
X151.735Y-84.416
X151.735Y-86.956
X151.735Y-89.496
X151.852Y-104.388
X151.933Y-100.497
X152.06Y-95.47
T3
X34.Y-73.
X34.Y-85.
X34.Y-97.
X34.Y-109.
T0
M30
