G04 #@! TF.FileFunction,Paste,Bot*
%FSLAX46Y46*%
G04 Gerber Fmt 4.6, Leading zero omitted, Abs format (unit mm)*
G04 Created by KiCad (PCBNEW 4.0.7) date 06/20/18 14:00:10*
%MOMM*%
%LPD*%
G01*
G04 APERTURE LIST*
%ADD10C,0.100000*%
%ADD11R,2.500000X0.700000*%
%ADD12R,2.500000X0.400000*%
G04 APERTURE END LIST*
D10*
D11*
X54376610Y-84035900D03*
X54376610Y-85305900D03*
X54376610Y-81495900D03*
X52471610Y-85305900D03*
X52471610Y-81495900D03*
X52471610Y-84035900D03*
X52471610Y-82765900D03*
X56281610Y-73875900D03*
X56281610Y-75145900D03*
X56281610Y-71335900D03*
X56281610Y-72605900D03*
X56281610Y-76415900D03*
X56281610Y-77685900D03*
X56281610Y-80225900D03*
X56281610Y-81495900D03*
X56281610Y-84035900D03*
X56281610Y-78955900D03*
X56281610Y-82765900D03*
X56281610Y-85305900D03*
X56281610Y-89115900D03*
X56281610Y-90385900D03*
X56281610Y-87845900D03*
X56281610Y-86575900D03*
X52471610Y-90385900D03*
X52471610Y-86575900D03*
D12*
X54503610Y-90512900D03*
D11*
X54376610Y-86575900D03*
X54376610Y-87845900D03*
D12*
X54503610Y-88988900D03*
D11*
X52471610Y-87845900D03*
X52471610Y-89115900D03*
X54376610Y-72605900D03*
X52471610Y-71335900D03*
X54376610Y-75145900D03*
X54376610Y-71335900D03*
X54376610Y-73875900D03*
X52471610Y-72605900D03*
X52471610Y-75145900D03*
X52471610Y-73875900D03*
X54376610Y-78955900D03*
X54376610Y-80225900D03*
X52471610Y-80225900D03*
X54376610Y-76415900D03*
X54376610Y-77685900D03*
X52471610Y-78955900D03*
X52471610Y-76415900D03*
X52471610Y-77685900D03*
D12*
X54376610Y-53428900D03*
D11*
X52471610Y-54825900D03*
X52471610Y-53555900D03*
D12*
X54503610Y-54952900D03*
D11*
X54376610Y-56095900D03*
X52471610Y-57365900D03*
X54376610Y-57365900D03*
X52471610Y-56095900D03*
X54376610Y-67525900D03*
X54376610Y-66255900D03*
X52471610Y-67525900D03*
X52471610Y-66255900D03*
X54376610Y-64985900D03*
X54376610Y-63715900D03*
X52471610Y-64985900D03*
X52471610Y-63715900D03*
X56281610Y-53555900D03*
X56281610Y-54825900D03*
X56281610Y-57365900D03*
X56281610Y-58635900D03*
X56281610Y-56095900D03*
X56281610Y-62445900D03*
X56281610Y-64985900D03*
X56281610Y-63715900D03*
X56281610Y-61175900D03*
X56281610Y-59905900D03*
X52471610Y-68795900D03*
X56281610Y-67525900D03*
X56281610Y-70065900D03*
X56281610Y-66255900D03*
X56281610Y-68795900D03*
X54376610Y-70065900D03*
X54376610Y-68795900D03*
X52471610Y-70065900D03*
X52471610Y-62445900D03*
X54376610Y-58635900D03*
X54376610Y-59905900D03*
X54376610Y-62445900D03*
X54376610Y-61175900D03*
X52471610Y-61175900D03*
X52471610Y-59905900D03*
X52471610Y-58635900D03*
X54376610Y-82765900D03*
X132376610Y-84035900D03*
X132376610Y-85305900D03*
X132376610Y-81495900D03*
X130471610Y-85305900D03*
X130471610Y-81495900D03*
X130471610Y-84035900D03*
X130471610Y-82765900D03*
X134281610Y-73875900D03*
X134281610Y-75145900D03*
X134281610Y-71335900D03*
X134281610Y-72605900D03*
X134281610Y-76415900D03*
X134281610Y-77685900D03*
X134281610Y-80225900D03*
X134281610Y-81495900D03*
X134281610Y-84035900D03*
X134281610Y-78955900D03*
X134281610Y-82765900D03*
X134281610Y-85305900D03*
X134281610Y-89115900D03*
X134281610Y-90385900D03*
X134281610Y-87845900D03*
X134281610Y-86575900D03*
X130471610Y-90385900D03*
X130471610Y-86575900D03*
D12*
X132503610Y-90512900D03*
D11*
X132376610Y-86575900D03*
X132376610Y-87845900D03*
D12*
X132503610Y-88988900D03*
D11*
X130471610Y-87845900D03*
X130471610Y-89115900D03*
X132376610Y-72605900D03*
X130471610Y-71335900D03*
X132376610Y-75145900D03*
X132376610Y-71335900D03*
X132376610Y-73875900D03*
X130471610Y-72605900D03*
X130471610Y-75145900D03*
X130471610Y-73875900D03*
X132376610Y-78955900D03*
X132376610Y-80225900D03*
X130471610Y-80225900D03*
X132376610Y-76415900D03*
X132376610Y-77685900D03*
X130471610Y-78955900D03*
X130471610Y-76415900D03*
X130471610Y-77685900D03*
D12*
X132376610Y-53428900D03*
D11*
X130471610Y-54825900D03*
X130471610Y-53555900D03*
D12*
X132503610Y-54952900D03*
D11*
X132376610Y-56095900D03*
X130471610Y-57365900D03*
X132376610Y-57365900D03*
X130471610Y-56095900D03*
X132376610Y-67525900D03*
X132376610Y-66255900D03*
X130471610Y-67525900D03*
X130471610Y-66255900D03*
X132376610Y-64985900D03*
X132376610Y-63715900D03*
X130471610Y-64985900D03*
X130471610Y-63715900D03*
X134281610Y-53555900D03*
X134281610Y-54825900D03*
X134281610Y-57365900D03*
X134281610Y-58635900D03*
X134281610Y-56095900D03*
X134281610Y-62445900D03*
X134281610Y-64985900D03*
X134281610Y-63715900D03*
X134281610Y-61175900D03*
X134281610Y-59905900D03*
X130471610Y-68795900D03*
X134281610Y-67525900D03*
X134281610Y-70065900D03*
X134281610Y-66255900D03*
X134281610Y-68795900D03*
X132376610Y-70065900D03*
X132376610Y-68795900D03*
X130471610Y-70065900D03*
X130471610Y-62445900D03*
X132376610Y-58635900D03*
X132376610Y-59905900D03*
X132376610Y-62445900D03*
X132376610Y-61175900D03*
X130471610Y-61175900D03*
X130471610Y-59905900D03*
X130471610Y-58635900D03*
X132376610Y-82765900D03*
M02*
