G04 #@! TF.FileFunction,Paste,Top*
%FSLAX46Y46*%
G04 Gerber Fmt 4.6, Leading zero omitted, Abs format (unit mm)*
G04 Created by KiCad (PCBNEW 4.0.7) date 06/20/18 14:00:10*
%MOMM*%
%LPD*%
G01*
G04 APERTURE LIST*
%ADD10C,0.100000*%
%ADD11R,2.500000X0.700000*%
%ADD12R,2.500000X0.400000*%
%ADD13R,0.740000X2.790000*%
%ADD14R,0.900000X1.200000*%
%ADD15R,1.700000X2.000000*%
%ADD16R,2.000000X1.700000*%
G04 APERTURE END LIST*
D10*
D11*
X56278000Y-53555900D03*
X56278000Y-54825900D03*
X56278000Y-56095900D03*
X56278000Y-57365900D03*
X56278000Y-58635900D03*
X56278000Y-59905900D03*
X56278000Y-61175900D03*
X56278000Y-62445900D03*
X56278000Y-63715900D03*
X56278000Y-64985900D03*
X56278000Y-66255900D03*
X56278000Y-67525900D03*
X56278000Y-68795900D03*
X56278000Y-70065900D03*
X56278000Y-71335900D03*
X56278000Y-72605900D03*
X56278000Y-73875900D03*
X56278000Y-75145900D03*
X56278000Y-76415900D03*
X56278000Y-77685900D03*
X56278000Y-78955900D03*
X56278000Y-80225900D03*
X56278000Y-81495900D03*
X56278000Y-82765900D03*
X56278000Y-84035900D03*
X56278000Y-85305900D03*
X56278000Y-86575900D03*
X56278000Y-87845900D03*
X56278000Y-89115900D03*
X56278000Y-90385900D03*
X52468000Y-53555900D03*
X52468000Y-54825900D03*
X52468000Y-56095900D03*
X52468000Y-57365900D03*
X52468000Y-58635900D03*
X52468000Y-59905900D03*
X52468000Y-61175900D03*
X52468000Y-62445900D03*
X52468000Y-63715900D03*
X52468000Y-64985900D03*
X52468000Y-66255900D03*
X52468000Y-67525900D03*
X52468000Y-68795900D03*
X52468000Y-70065900D03*
X52468000Y-71335900D03*
X52468000Y-72605900D03*
X52468000Y-73875900D03*
X52468000Y-75145900D03*
X52468000Y-76415900D03*
X52468000Y-77685900D03*
X52468000Y-78955900D03*
X52468000Y-80225900D03*
X52468000Y-81495900D03*
X52468000Y-82765900D03*
X52468000Y-84035900D03*
X52468000Y-85305900D03*
X52468000Y-86575900D03*
X52468000Y-87845900D03*
X52468000Y-89115900D03*
X52468000Y-90385900D03*
X54373000Y-56095900D03*
X54373000Y-57365900D03*
X54373000Y-58635900D03*
X54373000Y-59905900D03*
X54373000Y-61175900D03*
X54373000Y-62445900D03*
X54373000Y-63715900D03*
X54373000Y-64985900D03*
X54373000Y-66255900D03*
X54373000Y-67525900D03*
X54373000Y-68795900D03*
X54373000Y-70065900D03*
X54373000Y-71335900D03*
X54373000Y-72605900D03*
X54373000Y-73875900D03*
X54373000Y-75145900D03*
X54373000Y-76415900D03*
X54373000Y-77685900D03*
X54373000Y-78955900D03*
X54373000Y-80225900D03*
X54373000Y-81495900D03*
X54373000Y-82765900D03*
X54373000Y-84035900D03*
X54373000Y-85305900D03*
X54373000Y-86575900D03*
X54373000Y-87845900D03*
D12*
X54373000Y-53428900D03*
X54246000Y-90512900D03*
X54246000Y-88988900D03*
X54246000Y-54952900D03*
D11*
X134278000Y-53555900D03*
X134278000Y-54825900D03*
X134278000Y-56095900D03*
X134278000Y-57365900D03*
X134278000Y-58635900D03*
X134278000Y-59905900D03*
X134278000Y-61175900D03*
X134278000Y-62445900D03*
X134278000Y-63715900D03*
X134278000Y-64985900D03*
X134278000Y-66255900D03*
X134278000Y-67525900D03*
X134278000Y-68795900D03*
X134278000Y-70065900D03*
X134278000Y-71335900D03*
X134278000Y-72605900D03*
X134278000Y-73875900D03*
X134278000Y-75145900D03*
X134278000Y-76415900D03*
X134278000Y-77685900D03*
X134278000Y-78955900D03*
X134278000Y-80225900D03*
X134278000Y-81495900D03*
X134278000Y-82765900D03*
X134278000Y-84035900D03*
X134278000Y-85305900D03*
X134278000Y-86575900D03*
X134278000Y-87845900D03*
X134278000Y-89115900D03*
X134278000Y-90385900D03*
X130468000Y-53555900D03*
X130468000Y-54825900D03*
X130468000Y-56095900D03*
X130468000Y-57365900D03*
X130468000Y-58635900D03*
X130468000Y-59905900D03*
X130468000Y-61175900D03*
X130468000Y-62445900D03*
X130468000Y-63715900D03*
X130468000Y-64985900D03*
X130468000Y-66255900D03*
X130468000Y-67525900D03*
X130468000Y-68795900D03*
X130468000Y-70065900D03*
X130468000Y-71335900D03*
X130468000Y-72605900D03*
X130468000Y-73875900D03*
X130468000Y-75145900D03*
X130468000Y-76415900D03*
X130468000Y-77685900D03*
X130468000Y-78955900D03*
X130468000Y-80225900D03*
X130468000Y-81495900D03*
X130468000Y-82765900D03*
X130468000Y-84035900D03*
X130468000Y-85305900D03*
X130468000Y-86575900D03*
X130468000Y-87845900D03*
X130468000Y-89115900D03*
X130468000Y-90385900D03*
X132373000Y-56095900D03*
X132373000Y-57365900D03*
X132373000Y-58635900D03*
X132373000Y-59905900D03*
X132373000Y-61175900D03*
X132373000Y-62445900D03*
X132373000Y-63715900D03*
X132373000Y-64985900D03*
X132373000Y-66255900D03*
X132373000Y-67525900D03*
X132373000Y-68795900D03*
X132373000Y-70065900D03*
X132373000Y-71335900D03*
X132373000Y-72605900D03*
X132373000Y-73875900D03*
X132373000Y-75145900D03*
X132373000Y-76415900D03*
X132373000Y-77685900D03*
X132373000Y-78955900D03*
X132373000Y-80225900D03*
X132373000Y-81495900D03*
X132373000Y-82765900D03*
X132373000Y-84035900D03*
X132373000Y-85305900D03*
X132373000Y-86575900D03*
X132373000Y-87845900D03*
D12*
X132373000Y-53428900D03*
X132246000Y-90512900D03*
X132246000Y-88988900D03*
X132246000Y-54952900D03*
D13*
X150866140Y-42742440D03*
X150866140Y-38678440D03*
X152136140Y-42742440D03*
X152136140Y-38678440D03*
X153406140Y-42742440D03*
X153406140Y-38678440D03*
X154676140Y-42742440D03*
X154676140Y-38678440D03*
X155946140Y-42742440D03*
X155946140Y-38678440D03*
X150866140Y-54759180D03*
X150866140Y-50695180D03*
X152136140Y-54759180D03*
X152136140Y-50695180D03*
X153406140Y-54759180D03*
X153406140Y-50695180D03*
X154676140Y-54759180D03*
X154676140Y-50695180D03*
X155946140Y-54759180D03*
X155946140Y-50695180D03*
D14*
X146245880Y-96743200D03*
X146245880Y-94543200D03*
D15*
X154691380Y-80306500D03*
X154691380Y-76306500D03*
D16*
X148553540Y-72628080D03*
X152553540Y-72628080D03*
X148629740Y-92683920D03*
X152629740Y-92683920D03*
D15*
X154615180Y-87526020D03*
X154615180Y-83526020D03*
M02*
