G04 #@! TF.FileFunction,Copper,L1,Top,Signal*
%FSLAX46Y46*%
G04 Gerber Fmt 4.6, Leading zero omitted, Abs format (unit mm)*
G04 Created by KiCad (PCBNEW 4.0.7) date 06/20/18 14:00:10*
%MOMM*%
%LPD*%
G01*
G04 APERTURE LIST*
%ADD10C,0.100000*%
%ADD11C,0.600000*%
%ADD12R,1.700000X1.700000*%
%ADD13O,1.700000X1.700000*%
%ADD14C,0.800000*%
%ADD15R,2.500000X0.700000*%
%ADD16R,2.500000X0.400000*%
%ADD17R,0.740000X2.790000*%
%ADD18R,0.900000X1.200000*%
%ADD19R,2.000000X2.000000*%
%ADD20C,2.000000*%
%ADD21C,10.160000*%
%ADD22R,1.700000X2.000000*%
%ADD23R,2.000000X1.700000*%
%ADD24C,0.254000*%
%ADD25C,0.508000*%
%ADD26C,1.270000*%
%ADD27C,1.016000*%
G04 APERTURE END LIST*
D10*
D11*
X146634500Y-91736500D03*
X146634500Y-89196500D03*
X146634500Y-84116500D03*
X149174500Y-84116500D03*
X149174500Y-81576500D03*
X41224500Y-35856500D03*
X31064500Y-35856500D03*
X28524500Y-65066500D03*
X28524500Y-63796500D03*
X28524500Y-62526500D03*
X28524500Y-61256500D03*
X28524500Y-59986500D03*
X28524500Y-58716500D03*
X31064500Y-56176500D03*
X31064500Y-54906500D03*
X31064500Y-53636500D03*
X156794500Y-44746500D03*
X146634500Y-59986500D03*
X146634500Y-57446500D03*
X151714500Y-57446500D03*
X146634500Y-49826500D03*
X146634500Y-52366500D03*
X156794500Y-59986500D03*
X156794500Y-62526500D03*
X156794500Y-65066500D03*
X156794500Y-67606500D03*
X151714500Y-67606500D03*
X151714500Y-65066500D03*
X151714500Y-62526500D03*
X151714500Y-59986500D03*
X85674500Y-44746500D03*
X80594500Y-44746500D03*
X136474500Y-44746500D03*
X131394500Y-44746500D03*
X126314500Y-44746500D03*
X121234500Y-44746500D03*
X116154500Y-44746500D03*
X111074500Y-44746500D03*
X105994500Y-44746500D03*
X100914500Y-44746500D03*
X90754500Y-44746500D03*
X95834500Y-44746500D03*
X75514500Y-47286500D03*
X72974500Y-49826500D03*
X70434500Y-52366500D03*
X67894500Y-54906500D03*
X65354500Y-57446500D03*
X62814500Y-59986500D03*
X60274500Y-59986500D03*
X65354500Y-65066500D03*
X67894500Y-62526500D03*
X70434500Y-59986500D03*
X72974500Y-57446500D03*
X75514500Y-54906500D03*
X78054500Y-52366500D03*
X80594500Y-49826500D03*
X85674500Y-49826500D03*
X90754500Y-49826500D03*
X95834500Y-49826500D03*
X100914500Y-49826500D03*
X105994500Y-49826500D03*
X111074500Y-49826500D03*
X116154500Y-49826500D03*
X121234500Y-49826500D03*
X126314500Y-49826500D03*
X50114500Y-39666500D03*
X55194500Y-39666500D03*
X60274500Y-39666500D03*
X65354500Y-39666500D03*
X70434500Y-39666500D03*
X75514500Y-39666500D03*
X80594500Y-39666500D03*
X85674500Y-39666500D03*
X90754500Y-39666500D03*
X95834500Y-39666500D03*
X100914500Y-39666500D03*
X105994500Y-39666500D03*
X111074500Y-39666500D03*
X116154500Y-39666500D03*
X121234500Y-39666500D03*
X126314500Y-39666500D03*
X131394500Y-39666500D03*
X136474500Y-39666500D03*
X139014500Y-112523860D03*
X133934500Y-112523860D03*
X128854500Y-112523860D03*
X123774500Y-112523860D03*
X118694500Y-112523860D03*
X113614500Y-112523860D03*
X108534500Y-112523860D03*
X103454500Y-112523860D03*
X98374500Y-112523860D03*
X93294500Y-112523860D03*
X88214500Y-112523860D03*
X83134500Y-112523860D03*
X78054500Y-112523860D03*
X72974500Y-112523860D03*
X67894500Y-112523860D03*
X62814500Y-112523860D03*
X57734500Y-112523860D03*
X52654500Y-112523860D03*
D12*
X143022620Y-38508260D03*
D13*
X143022620Y-41048260D03*
X143022620Y-43588260D03*
X143022620Y-46128260D03*
X143022620Y-48668260D03*
X143022620Y-51208260D03*
X143022620Y-53748260D03*
X143022620Y-56288260D03*
X143022620Y-58828260D03*
X143022620Y-61368260D03*
X143022620Y-63908260D03*
X143022620Y-66448260D03*
X143022620Y-68988260D03*
X143022620Y-71528260D03*
X143022620Y-74068260D03*
X143022620Y-76608260D03*
X143022620Y-79148260D03*
X143022620Y-81688260D03*
X143022620Y-84228260D03*
X143022620Y-86768260D03*
X143022620Y-89308260D03*
X143022620Y-91848260D03*
X143022620Y-94388260D03*
X143022620Y-96928260D03*
X143022620Y-99468260D03*
X143022620Y-102008260D03*
X143022620Y-104548260D03*
X143022620Y-107088260D03*
X143022620Y-109628260D03*
X143022620Y-112168260D03*
D14*
X56278000Y-53555900D03*
X55008000Y-53555900D03*
X53738000Y-53555900D03*
X52468000Y-53555900D03*
X56278000Y-54825900D03*
X53738000Y-54825900D03*
X55008000Y-54825900D03*
X52468000Y-54825900D03*
X56278000Y-56095900D03*
X55008000Y-56095900D03*
X53738000Y-56095900D03*
X52468000Y-56095900D03*
X56278000Y-57365900D03*
X55008000Y-57365900D03*
X53738000Y-57365900D03*
X52468000Y-57365900D03*
X56278000Y-58635900D03*
X55008000Y-58635900D03*
X53738000Y-58635900D03*
X52468000Y-58635900D03*
X56278000Y-59905900D03*
X55008000Y-59905900D03*
X53738000Y-59905900D03*
X52468000Y-59905900D03*
X56278000Y-61175900D03*
X55008000Y-61175900D03*
X53738000Y-61175900D03*
X52468000Y-61175900D03*
X56278000Y-62445900D03*
X55008000Y-62445900D03*
X53738000Y-62445900D03*
X52468000Y-62445900D03*
X56278000Y-63715900D03*
X55008000Y-63715900D03*
X53738000Y-63715900D03*
X52468000Y-63715900D03*
X56278000Y-64985900D03*
X55008000Y-64985900D03*
X53738000Y-64985900D03*
X52468000Y-64985900D03*
X56278000Y-66255900D03*
X55008000Y-66255900D03*
X53738000Y-66255900D03*
X52468000Y-66255900D03*
X56278000Y-67525900D03*
X55008000Y-67525900D03*
X53738000Y-67525900D03*
X52468000Y-67525900D03*
X56278000Y-68795900D03*
X55008000Y-68795900D03*
X53738000Y-68795900D03*
X52468000Y-68795900D03*
X56278000Y-70065900D03*
X55008000Y-70065900D03*
X53738000Y-70065900D03*
X52468000Y-70065900D03*
X56278000Y-71335900D03*
X55008000Y-71335900D03*
X53738000Y-71335900D03*
X52468000Y-71335900D03*
X56278000Y-72605900D03*
X55008000Y-72605900D03*
X53738000Y-72605900D03*
X52468000Y-72605900D03*
X56278000Y-73875900D03*
X55008000Y-73875900D03*
X53738000Y-73875900D03*
X52468000Y-73875900D03*
X56278000Y-75145900D03*
X55008000Y-75145900D03*
X53738000Y-75145900D03*
X52468000Y-75145900D03*
X56278000Y-76415900D03*
X55008000Y-76415900D03*
X53738000Y-76415900D03*
X52468000Y-76415900D03*
X56278000Y-77685900D03*
X55008000Y-77685900D03*
X53738000Y-77685900D03*
X52468000Y-77685900D03*
X56278000Y-78955900D03*
X55008000Y-78955900D03*
X53738000Y-78955900D03*
X52468000Y-78955900D03*
X56278000Y-80225900D03*
X55008000Y-80225900D03*
X53738000Y-80225900D03*
X52468000Y-80225900D03*
X56278000Y-81495900D03*
X55008000Y-81495900D03*
X53738000Y-81495900D03*
X52468000Y-81495900D03*
X56278000Y-82765900D03*
X55008000Y-82765900D03*
X52468000Y-82765900D03*
X53738000Y-82765900D03*
X56278000Y-84035900D03*
X55008000Y-84035900D03*
X53738000Y-84035900D03*
X52468000Y-84035900D03*
X56278000Y-85305900D03*
X55008000Y-85305900D03*
X53738000Y-85305900D03*
X52468000Y-85305900D03*
X56278000Y-86575900D03*
X55008000Y-86575900D03*
X53738000Y-86575900D03*
X52468000Y-86575900D03*
X56278000Y-87845900D03*
X55008000Y-87845900D03*
X53738000Y-87845900D03*
X52468000Y-87845900D03*
X56278000Y-89115900D03*
X55008000Y-89115900D03*
X53738000Y-89115900D03*
X52468000Y-89115900D03*
X56278000Y-90385900D03*
X55008000Y-90385900D03*
X53738000Y-90385900D03*
X52468000Y-90385900D03*
D15*
X56278000Y-53555900D03*
X56278000Y-54825900D03*
X56278000Y-56095900D03*
X56278000Y-57365900D03*
X56278000Y-58635900D03*
X56278000Y-59905900D03*
X56278000Y-61175900D03*
X56278000Y-62445900D03*
X56278000Y-63715900D03*
X56278000Y-64985900D03*
X56278000Y-66255900D03*
X56278000Y-67525900D03*
X56278000Y-68795900D03*
X56278000Y-70065900D03*
X56278000Y-71335900D03*
X56278000Y-72605900D03*
X56278000Y-73875900D03*
X56278000Y-75145900D03*
X56278000Y-76415900D03*
X56278000Y-77685900D03*
X56278000Y-78955900D03*
X56278000Y-80225900D03*
X56278000Y-81495900D03*
X56278000Y-82765900D03*
X56278000Y-84035900D03*
X56278000Y-85305900D03*
X56278000Y-86575900D03*
X56278000Y-87845900D03*
X56278000Y-89115900D03*
X56278000Y-90385900D03*
X52468000Y-53555900D03*
X52468000Y-54825900D03*
X52468000Y-56095900D03*
X52468000Y-57365900D03*
X52468000Y-58635900D03*
X52468000Y-59905900D03*
X52468000Y-61175900D03*
X52468000Y-62445900D03*
X52468000Y-63715900D03*
X52468000Y-64985900D03*
X52468000Y-66255900D03*
X52468000Y-67525900D03*
X52468000Y-68795900D03*
X52468000Y-70065900D03*
X52468000Y-71335900D03*
X52468000Y-72605900D03*
X52468000Y-73875900D03*
X52468000Y-75145900D03*
X52468000Y-76415900D03*
X52468000Y-77685900D03*
X52468000Y-78955900D03*
X52468000Y-80225900D03*
X52468000Y-81495900D03*
X52468000Y-82765900D03*
X52468000Y-84035900D03*
X52468000Y-85305900D03*
X52468000Y-86575900D03*
X52468000Y-87845900D03*
X52468000Y-89115900D03*
X52468000Y-90385900D03*
X54373000Y-56095900D03*
X54373000Y-57365900D03*
X54373000Y-58635900D03*
X54373000Y-59905900D03*
X54373000Y-61175900D03*
X54373000Y-62445900D03*
X54373000Y-63715900D03*
X54373000Y-64985900D03*
X54373000Y-66255900D03*
X54373000Y-67525900D03*
X54373000Y-68795900D03*
X54373000Y-70065900D03*
X54373000Y-71335900D03*
X54373000Y-72605900D03*
X54373000Y-73875900D03*
X54373000Y-75145900D03*
X54373000Y-76415900D03*
X54373000Y-77685900D03*
X54373000Y-78955900D03*
X54373000Y-80225900D03*
X54373000Y-81495900D03*
X54373000Y-82765900D03*
X54373000Y-84035900D03*
X54373000Y-85305900D03*
X54373000Y-86575900D03*
X54373000Y-87845900D03*
D16*
X54373000Y-53428900D03*
X54246000Y-90512900D03*
X54246000Y-88988900D03*
X54246000Y-54952900D03*
D14*
X134278000Y-53555900D03*
X133008000Y-53555900D03*
X131738000Y-53555900D03*
X130468000Y-53555900D03*
X134278000Y-54825900D03*
X131738000Y-54825900D03*
X133008000Y-54825900D03*
X130468000Y-54825900D03*
X134278000Y-56095900D03*
X133008000Y-56095900D03*
X131738000Y-56095900D03*
X130468000Y-56095900D03*
X134278000Y-57365900D03*
X133008000Y-57365900D03*
X131738000Y-57365900D03*
X130468000Y-57365900D03*
X134278000Y-58635900D03*
X133008000Y-58635900D03*
X131738000Y-58635900D03*
X130468000Y-58635900D03*
X134278000Y-59905900D03*
X133008000Y-59905900D03*
X131738000Y-59905900D03*
X130468000Y-59905900D03*
X134278000Y-61175900D03*
X133008000Y-61175900D03*
X131738000Y-61175900D03*
X130468000Y-61175900D03*
X134278000Y-62445900D03*
X133008000Y-62445900D03*
X131738000Y-62445900D03*
X130468000Y-62445900D03*
X134278000Y-63715900D03*
X133008000Y-63715900D03*
X131738000Y-63715900D03*
X130468000Y-63715900D03*
X134278000Y-64985900D03*
X133008000Y-64985900D03*
X131738000Y-64985900D03*
X130468000Y-64985900D03*
X134278000Y-66255900D03*
X133008000Y-66255900D03*
X131738000Y-66255900D03*
X130468000Y-66255900D03*
X134278000Y-67525900D03*
X133008000Y-67525900D03*
X131738000Y-67525900D03*
X130468000Y-67525900D03*
X134278000Y-68795900D03*
X133008000Y-68795900D03*
X131738000Y-68795900D03*
X130468000Y-68795900D03*
X134278000Y-70065900D03*
X133008000Y-70065900D03*
X131738000Y-70065900D03*
X130468000Y-70065900D03*
X134278000Y-71335900D03*
X133008000Y-71335900D03*
X131738000Y-71335900D03*
X130468000Y-71335900D03*
X134278000Y-72605900D03*
X133008000Y-72605900D03*
X131738000Y-72605900D03*
X130468000Y-72605900D03*
X134278000Y-73875900D03*
X133008000Y-73875900D03*
X131738000Y-73875900D03*
X130468000Y-73875900D03*
X134278000Y-75145900D03*
X133008000Y-75145900D03*
X131738000Y-75145900D03*
X130468000Y-75145900D03*
X134278000Y-76415900D03*
X133008000Y-76415900D03*
X131738000Y-76415900D03*
X130468000Y-76415900D03*
X134278000Y-77685900D03*
X133008000Y-77685900D03*
X131738000Y-77685900D03*
X130468000Y-77685900D03*
X134278000Y-78955900D03*
X133008000Y-78955900D03*
X131738000Y-78955900D03*
X130468000Y-78955900D03*
X134278000Y-80225900D03*
X133008000Y-80225900D03*
X131738000Y-80225900D03*
X130468000Y-80225900D03*
X134278000Y-81495900D03*
X133008000Y-81495900D03*
X131738000Y-81495900D03*
X130468000Y-81495900D03*
X134278000Y-82765900D03*
X133008000Y-82765900D03*
X130468000Y-82765900D03*
X131738000Y-82765900D03*
X134278000Y-84035900D03*
X133008000Y-84035900D03*
X131738000Y-84035900D03*
X130468000Y-84035900D03*
X134278000Y-85305900D03*
X133008000Y-85305900D03*
X131738000Y-85305900D03*
X130468000Y-85305900D03*
X134278000Y-86575900D03*
X133008000Y-86575900D03*
X131738000Y-86575900D03*
X130468000Y-86575900D03*
X134278000Y-87845900D03*
X133008000Y-87845900D03*
X131738000Y-87845900D03*
X130468000Y-87845900D03*
X134278000Y-89115900D03*
X133008000Y-89115900D03*
X131738000Y-89115900D03*
X130468000Y-89115900D03*
X134278000Y-90385900D03*
X133008000Y-90385900D03*
X131738000Y-90385900D03*
X130468000Y-90385900D03*
D15*
X134278000Y-53555900D03*
X134278000Y-54825900D03*
X134278000Y-56095900D03*
X134278000Y-57365900D03*
X134278000Y-58635900D03*
X134278000Y-59905900D03*
X134278000Y-61175900D03*
X134278000Y-62445900D03*
X134278000Y-63715900D03*
X134278000Y-64985900D03*
X134278000Y-66255900D03*
X134278000Y-67525900D03*
X134278000Y-68795900D03*
X134278000Y-70065900D03*
X134278000Y-71335900D03*
X134278000Y-72605900D03*
X134278000Y-73875900D03*
X134278000Y-75145900D03*
X134278000Y-76415900D03*
X134278000Y-77685900D03*
X134278000Y-78955900D03*
X134278000Y-80225900D03*
X134278000Y-81495900D03*
X134278000Y-82765900D03*
X134278000Y-84035900D03*
X134278000Y-85305900D03*
X134278000Y-86575900D03*
X134278000Y-87845900D03*
X134278000Y-89115900D03*
X134278000Y-90385900D03*
X130468000Y-53555900D03*
X130468000Y-54825900D03*
X130468000Y-56095900D03*
X130468000Y-57365900D03*
X130468000Y-58635900D03*
X130468000Y-59905900D03*
X130468000Y-61175900D03*
X130468000Y-62445900D03*
X130468000Y-63715900D03*
X130468000Y-64985900D03*
X130468000Y-66255900D03*
X130468000Y-67525900D03*
X130468000Y-68795900D03*
X130468000Y-70065900D03*
X130468000Y-71335900D03*
X130468000Y-72605900D03*
X130468000Y-73875900D03*
X130468000Y-75145900D03*
X130468000Y-76415900D03*
X130468000Y-77685900D03*
X130468000Y-78955900D03*
X130468000Y-80225900D03*
X130468000Y-81495900D03*
X130468000Y-82765900D03*
X130468000Y-84035900D03*
X130468000Y-85305900D03*
X130468000Y-86575900D03*
X130468000Y-87845900D03*
X130468000Y-89115900D03*
X130468000Y-90385900D03*
X132373000Y-56095900D03*
X132373000Y-57365900D03*
X132373000Y-58635900D03*
X132373000Y-59905900D03*
X132373000Y-61175900D03*
X132373000Y-62445900D03*
X132373000Y-63715900D03*
X132373000Y-64985900D03*
X132373000Y-66255900D03*
X132373000Y-67525900D03*
X132373000Y-68795900D03*
X132373000Y-70065900D03*
X132373000Y-71335900D03*
X132373000Y-72605900D03*
X132373000Y-73875900D03*
X132373000Y-75145900D03*
X132373000Y-76415900D03*
X132373000Y-77685900D03*
X132373000Y-78955900D03*
X132373000Y-80225900D03*
X132373000Y-81495900D03*
X132373000Y-82765900D03*
X132373000Y-84035900D03*
X132373000Y-85305900D03*
X132373000Y-86575900D03*
X132373000Y-87845900D03*
D16*
X132373000Y-53428900D03*
X132246000Y-90512900D03*
X132246000Y-88988900D03*
X132246000Y-54952900D03*
D12*
X43335240Y-38388880D03*
D13*
X43335240Y-40928880D03*
X43335240Y-43468880D03*
X43335240Y-46008880D03*
X43335240Y-48548880D03*
X43335240Y-51088880D03*
X43335240Y-53628880D03*
X43335240Y-56168880D03*
X43335240Y-58708880D03*
X43335240Y-61248880D03*
X43335240Y-63788880D03*
X43335240Y-66328880D03*
X43335240Y-68868880D03*
X43335240Y-71408880D03*
X43335240Y-73948880D03*
X43335240Y-76488880D03*
X43335240Y-79028880D03*
X43335240Y-81568880D03*
X43335240Y-84108880D03*
X43335240Y-86648880D03*
X43335240Y-89188880D03*
X43335240Y-91728880D03*
X43335240Y-94268880D03*
X43335240Y-96808880D03*
X43335240Y-99348880D03*
X43335240Y-101888880D03*
X43335240Y-104428880D03*
X43335240Y-106968880D03*
X43335240Y-109508880D03*
X43335240Y-112048880D03*
D12*
X149392940Y-100496960D03*
D13*
X151932940Y-100496960D03*
D12*
X151851660Y-104388240D03*
D13*
X149311660Y-104388240D03*
D12*
X151643380Y-75295080D03*
D13*
X151643380Y-77835080D03*
X151643380Y-80375080D03*
D12*
X151734820Y-84416220D03*
D13*
X151734820Y-86956220D03*
X151734820Y-89496220D03*
D12*
X152059940Y-95470300D03*
D13*
X149519940Y-95470300D03*
D17*
X150866140Y-42742440D03*
X150866140Y-38678440D03*
X152136140Y-42742440D03*
X152136140Y-38678440D03*
X153406140Y-42742440D03*
X153406140Y-38678440D03*
X154676140Y-42742440D03*
X154676140Y-38678440D03*
X155946140Y-42742440D03*
X155946140Y-38678440D03*
X150866140Y-54759180D03*
X150866140Y-50695180D03*
X152136140Y-54759180D03*
X152136140Y-50695180D03*
X153406140Y-54759180D03*
X153406140Y-50695180D03*
X154676140Y-54759180D03*
X154676140Y-50695180D03*
X155946140Y-54759180D03*
X155946140Y-50695180D03*
D18*
X146245880Y-96743200D03*
X146245880Y-94543200D03*
D19*
X38544500Y-60586500D03*
D20*
X33544500Y-60586500D03*
D19*
X38534500Y-50096500D03*
D20*
X33534500Y-50096500D03*
D19*
X38474500Y-39636500D03*
D20*
X33474500Y-39636500D03*
D12*
X28744500Y-36426500D03*
D13*
X28744500Y-38966500D03*
X28744500Y-41506500D03*
X28744500Y-44046500D03*
D12*
X147489500Y-36076500D03*
D13*
X147489500Y-38616500D03*
D12*
X148864500Y-64081500D03*
D13*
X148864500Y-61541500D03*
D21*
X34000000Y-85000000D03*
X34000000Y-73000000D03*
X34000000Y-109000000D03*
X34000000Y-97000000D03*
D22*
X154691380Y-80306500D03*
X154691380Y-76306500D03*
D23*
X148553540Y-72628080D03*
X152553540Y-72628080D03*
X148629740Y-92683920D03*
X152629740Y-92683920D03*
D22*
X154615180Y-87526020D03*
X154615180Y-83526020D03*
D11*
X155589500Y-48391500D03*
X150864500Y-48316500D03*
X149479300Y-42483360D03*
X149286260Y-45523740D03*
X153462310Y-40685040D03*
X153411220Y-52780520D03*
X149174500Y-40685040D03*
X151457670Y-46523908D03*
X152164080Y-36374660D03*
X152136140Y-47786880D03*
X153214500Y-36491500D03*
X153014500Y-48366500D03*
D24*
X155946140Y-48748140D02*
X155589500Y-48391500D01*
X155946140Y-50695180D02*
X155946140Y-48748140D01*
X150866140Y-50695180D02*
X150866140Y-48318140D01*
X150866140Y-48318140D02*
X150864500Y-48316500D01*
D25*
X151851660Y-104388240D02*
X151851660Y-105746240D01*
X144224701Y-109628260D02*
X143022620Y-109628260D01*
X151851660Y-105746240D02*
X147969640Y-109628260D01*
X147969640Y-109628260D02*
X144224701Y-109628260D01*
D24*
X155344581Y-87557973D02*
X154535735Y-88366819D01*
D25*
X43335240Y-61248880D02*
X47072260Y-64985900D01*
X47072260Y-64985900D02*
X52468000Y-64985900D01*
X43335240Y-68868880D02*
X52395020Y-68868880D01*
X52395020Y-68868880D02*
X52468000Y-68795900D01*
X43335240Y-40928880D02*
X50811599Y-48405239D01*
X50811599Y-48405239D02*
X50811599Y-54231021D01*
X51406478Y-54825900D02*
X51902315Y-54825900D01*
X50811599Y-54231021D02*
X51406478Y-54825900D01*
X51902315Y-54825900D02*
X52468000Y-54825900D01*
X51406478Y-56095900D02*
X51902315Y-56095900D01*
X49941791Y-54631213D02*
X51406478Y-56095900D01*
X49941791Y-50075431D02*
X49941791Y-54631213D01*
X43335240Y-43468880D02*
X49941791Y-50075431D01*
X51902315Y-56095900D02*
X52468000Y-56095900D01*
X49281380Y-51353040D02*
X49281380Y-55240802D01*
X49281380Y-55240802D02*
X51406478Y-57365900D01*
X51406478Y-57365900D02*
X51902315Y-57365900D01*
X51902315Y-57365900D02*
X52468000Y-57365900D01*
X44787219Y-46858879D02*
X49281380Y-51353040D01*
X43335240Y-46008880D02*
X44185239Y-46858879D01*
X44185239Y-46858879D02*
X44787219Y-46858879D01*
X48483820Y-53697460D02*
X48483820Y-55713242D01*
X48483820Y-55713242D02*
X51406478Y-58635900D01*
X51406478Y-58635900D02*
X51902315Y-58635900D01*
X51902315Y-58635900D02*
X52468000Y-58635900D01*
X43335240Y-48548880D02*
X48483820Y-53697460D01*
X47345900Y-55845322D02*
X47345900Y-55099540D01*
X47345900Y-55099540D02*
X43335240Y-51088880D01*
X52468000Y-59905900D02*
X51406478Y-59905900D01*
X51406478Y-59905900D02*
X47345900Y-55845322D01*
X43335240Y-53628880D02*
X50882260Y-61175900D01*
X50882260Y-61175900D02*
X52468000Y-61175900D01*
X43335240Y-71408880D02*
X44678220Y-70065900D01*
X44678220Y-70065900D02*
X52468000Y-70065900D01*
X43335240Y-73948880D02*
X45948220Y-71335900D01*
X45948220Y-71335900D02*
X52468000Y-71335900D01*
X43335240Y-76488880D02*
X47218220Y-72605900D01*
X47218220Y-72605900D02*
X52468000Y-72605900D01*
X43335240Y-79028880D02*
X48488220Y-73875900D01*
X48488220Y-73875900D02*
X52468000Y-73875900D01*
X51607340Y-75145900D02*
X52468000Y-75145900D01*
X43335240Y-81568880D02*
X49758220Y-75145900D01*
X49758220Y-75145900D02*
X51607340Y-75145900D01*
X51902315Y-76415900D02*
X52468000Y-76415900D01*
X50021356Y-76415900D02*
X51902315Y-76415900D01*
X46500059Y-79937197D02*
X50021356Y-76415900D01*
X43335240Y-84108880D02*
X46500058Y-80944062D01*
X46500058Y-80944062D02*
X46500059Y-79937197D01*
X51902315Y-77685900D02*
X52468000Y-77685900D01*
X49685318Y-77685900D02*
X51902315Y-77685900D01*
X47160469Y-80210749D02*
X49685318Y-77685900D01*
X47160469Y-82568627D02*
X47160469Y-80210749D01*
X44185239Y-85543857D02*
X47160469Y-82568627D01*
X44185239Y-85798881D02*
X44185239Y-85543857D01*
X43335240Y-86648880D02*
X44185239Y-85798881D01*
X50848638Y-82765900D02*
X51902315Y-82765900D01*
X49804609Y-83809929D02*
X50848638Y-82765900D01*
X49804609Y-90339511D02*
X49804609Y-83809929D01*
X43335240Y-96808880D02*
X49804609Y-90339511D01*
X51902315Y-82765900D02*
X52468000Y-82765900D01*
X50465020Y-84083480D02*
X50512600Y-84035900D01*
X50512600Y-84035900D02*
X52468000Y-84035900D01*
X50465020Y-92219100D02*
X50465020Y-84083480D01*
X43335240Y-99348880D02*
X50465020Y-92219100D01*
X149738380Y-42742440D02*
X149479300Y-42483360D01*
X149479300Y-42483360D02*
X148044200Y-41048260D01*
X150866140Y-54759180D02*
X150866140Y-53734180D01*
X150866140Y-53734180D02*
X149286260Y-52154300D01*
X149286260Y-52154300D02*
X149286260Y-45523740D01*
X148044200Y-41048260D02*
X143022620Y-41048260D01*
X150866140Y-42742440D02*
X149738380Y-42742440D01*
X135934401Y-54231021D02*
X135934401Y-48136479D01*
X135934401Y-48136479D02*
X142172621Y-41898259D01*
X134278000Y-54825900D02*
X135339522Y-54825900D01*
X142172621Y-41898259D02*
X143022620Y-41048260D01*
X135339522Y-54825900D02*
X135934401Y-54231021D01*
X153406140Y-40741210D02*
X153462310Y-40685040D01*
X149174500Y-40685040D02*
X153462310Y-40685040D01*
X153406140Y-42742440D02*
X153406140Y-40741210D01*
X153406140Y-54759180D02*
X153406140Y-52785600D01*
X153406140Y-52785600D02*
X153411220Y-52780520D01*
X141712879Y-44844661D02*
X136594812Y-49962728D01*
X136594812Y-49962728D02*
X136594812Y-54840610D01*
X136594812Y-54840610D02*
X135339522Y-56095900D01*
X135339522Y-56095900D02*
X134843685Y-56095900D01*
X134843685Y-56095900D02*
X134278000Y-56095900D01*
X143022620Y-43588260D02*
X141766219Y-44844661D01*
X141766219Y-44844661D02*
X141712879Y-44844661D01*
X154516516Y-46273040D02*
X153642062Y-46273040D01*
X156824140Y-48580664D02*
X154516516Y-46273040D01*
X156824140Y-52856180D02*
X156824140Y-48580664D01*
X155946140Y-54759180D02*
X155946140Y-53734180D01*
X155946140Y-53734180D02*
X156824140Y-52856180D01*
X151881934Y-46523908D02*
X151457670Y-46523908D01*
X153642062Y-46273040D02*
X153391194Y-46523908D01*
X153391194Y-46523908D02*
X151881934Y-46523908D01*
X155946140Y-42742440D02*
X155946140Y-43968962D01*
X155946140Y-43968962D02*
X153642062Y-46273040D01*
X134843685Y-57365900D02*
X134278000Y-57365900D01*
X135339522Y-57365900D02*
X134843685Y-57365900D01*
X137255222Y-55450200D02*
X135339522Y-57365900D01*
X143022620Y-46128260D02*
X137255222Y-51895658D01*
X137255222Y-51895658D02*
X137255222Y-55450200D01*
X143022620Y-53748260D02*
X135594980Y-61175900D01*
X135594980Y-61175900D02*
X134278000Y-61175900D01*
X143022620Y-56288260D02*
X136864980Y-62445900D01*
X136864980Y-62445900D02*
X134278000Y-62445900D01*
X143022620Y-58828260D02*
X138134980Y-63715900D01*
X138134980Y-63715900D02*
X134278000Y-63715900D01*
X143022620Y-61368260D02*
X139404980Y-64985900D01*
X139404980Y-64985900D02*
X134278000Y-64985900D01*
X143022620Y-63908260D02*
X141820539Y-63908260D01*
X141820539Y-63908260D02*
X139472899Y-66255900D01*
X139472899Y-66255900D02*
X134843685Y-66255900D01*
X134843685Y-66255900D02*
X134278000Y-66255900D01*
X143022620Y-71528260D02*
X141820539Y-71528260D01*
X141820539Y-71528260D02*
X140358179Y-70065900D01*
X140358179Y-70065900D02*
X134843685Y-70065900D01*
X134843685Y-70065900D02*
X134278000Y-70065900D01*
X143022620Y-74068260D02*
X140290260Y-71335900D01*
X140290260Y-71335900D02*
X134278000Y-71335900D01*
X151734820Y-86956220D02*
X143210580Y-86956220D01*
X143210580Y-86956220D02*
X143022620Y-86768260D01*
X134843685Y-77685900D02*
X134278000Y-77685900D01*
X135981662Y-77685900D02*
X134843685Y-77685900D01*
X140271811Y-81976049D02*
X135981662Y-77685900D01*
X140271811Y-84017451D02*
X140271811Y-81976049D01*
X143022620Y-86768260D02*
X140271811Y-84017451D01*
X139611400Y-82295320D02*
X136271980Y-78955900D01*
X136271980Y-78955900D02*
X134278000Y-78955900D01*
X139611400Y-85897040D02*
X139611400Y-82295320D01*
X143022620Y-89308260D02*
X139611400Y-85897040D01*
X134843685Y-80225900D02*
X134278000Y-80225900D01*
X138834170Y-87659810D02*
X138834170Y-82712648D01*
X136347422Y-80225900D02*
X134843685Y-80225900D01*
X143022620Y-91848260D02*
X138834170Y-87659810D01*
X138834170Y-82712648D02*
X136347422Y-80225900D01*
X137371120Y-83489120D02*
X136647900Y-82765900D01*
X136647900Y-82765900D02*
X134278000Y-82765900D01*
X137371120Y-91276760D02*
X137371120Y-83489120D01*
X143022620Y-96928260D02*
X137371120Y-91276760D01*
X136601500Y-93047140D02*
X136601500Y-85297878D01*
X136601500Y-85297878D02*
X135339522Y-84035900D01*
X135339522Y-84035900D02*
X134843685Y-84035900D01*
X134843685Y-84035900D02*
X134278000Y-84035900D01*
X143022620Y-99468260D02*
X136601500Y-93047140D01*
X129406478Y-85305900D02*
X129902315Y-85305900D01*
X129902315Y-85305900D02*
X130468000Y-85305900D01*
X152164080Y-36374660D02*
X152989580Y-35549160D01*
X152989580Y-35549160D02*
X158074660Y-35549160D01*
X158074660Y-35549160D02*
X158074660Y-90813580D01*
X158074660Y-90813580D02*
X153417940Y-95470300D01*
X153417940Y-95470300D02*
X152059940Y-95470300D01*
D26*
X38474500Y-39636500D02*
X38474500Y-41906500D01*
X38474500Y-41906500D02*
X41697839Y-45129839D01*
X41697839Y-45129839D02*
X41697839Y-54531479D01*
X41697839Y-54531479D02*
X42485241Y-55318881D01*
X42485241Y-55318881D02*
X43335240Y-56168880D01*
X28744500Y-38966500D02*
X31499146Y-38966500D01*
X32616547Y-37849099D02*
X34417099Y-37849099D01*
X31499146Y-38966500D02*
X32616547Y-37849099D01*
X34417099Y-37849099D02*
X36204500Y-39636500D01*
X36204500Y-39636500D02*
X38474500Y-39636500D01*
D25*
X151932940Y-100496960D02*
X151932940Y-95597300D01*
X151932940Y-95597300D02*
X152059940Y-95470300D01*
X152136140Y-38678440D02*
X152136140Y-36402600D01*
X152136140Y-36402600D02*
X152164080Y-36374660D01*
X152136140Y-50695180D02*
X152136140Y-47786880D01*
X52468000Y-62445900D02*
X49612260Y-62445900D01*
X49612260Y-62445900D02*
X43335240Y-56168880D01*
D26*
X30794499Y-42356499D02*
X38534500Y-50096500D01*
X29594499Y-42356499D02*
X30794499Y-42356499D01*
X28744500Y-41506500D02*
X29594499Y-42356499D01*
X38534500Y-50096500D02*
X38534500Y-53908140D01*
X38534500Y-53908140D02*
X43335240Y-58708880D01*
D25*
X44279219Y-59558879D02*
X48436240Y-63715900D01*
X48436240Y-63715900D02*
X52468000Y-63715900D01*
X43335240Y-58708880D02*
X44185239Y-59558879D01*
X44185239Y-59558879D02*
X44279219Y-59558879D01*
D26*
X38544500Y-60586500D02*
X40132860Y-60586500D01*
X40132860Y-60586500D02*
X43335240Y-63788880D01*
X36704500Y-50621146D02*
X36704500Y-56476500D01*
X36704500Y-56476500D02*
X38544500Y-58316500D01*
X38544500Y-58316500D02*
X38544500Y-60586500D01*
X28744500Y-44046500D02*
X29594499Y-44896499D01*
X29594499Y-44896499D02*
X30979853Y-44896499D01*
X30979853Y-44896499D02*
X36704500Y-50621146D01*
D27*
X43335240Y-66328880D02*
X43335240Y-63788880D01*
D25*
X43335240Y-63788880D02*
X45802260Y-66255900D01*
X45802260Y-66255900D02*
X52468000Y-66255900D01*
X43335240Y-66328880D02*
X44532260Y-67525900D01*
X44532260Y-67525900D02*
X52468000Y-67525900D01*
X51902315Y-78955900D02*
X52468000Y-78955900D01*
X51406478Y-78955900D02*
X51902315Y-78955900D01*
X47820880Y-82541498D02*
X51406478Y-78955900D01*
X47670998Y-82992060D02*
X47820880Y-82842178D01*
X47670998Y-84853122D02*
X47670998Y-82992060D01*
X43335240Y-89188880D02*
X47670998Y-84853122D01*
X47820880Y-82842178D02*
X47820880Y-82541498D01*
X48331409Y-86732711D02*
X48331409Y-83265611D01*
X51371120Y-80225900D02*
X51902315Y-80225900D01*
X48331409Y-83265611D02*
X51371120Y-80225900D01*
X51902315Y-80225900D02*
X52468000Y-80225900D01*
X43335240Y-91728880D02*
X48331409Y-86732711D01*
X51902315Y-81495900D02*
X52468000Y-81495900D01*
X51184676Y-81495900D02*
X51902315Y-81495900D01*
X43335240Y-94268880D02*
X49144198Y-88459922D01*
X49144198Y-88459922D02*
X49144199Y-83536377D01*
X49144199Y-83536377D02*
X51184676Y-81495900D01*
X147045440Y-44645440D02*
X143022620Y-48668260D01*
X152136140Y-44645440D02*
X147045440Y-44645440D01*
X152136140Y-42742440D02*
X152136140Y-44645440D01*
X135339522Y-58635900D02*
X134843685Y-58635900D01*
X137915633Y-52766867D02*
X137915633Y-56059789D01*
X141164241Y-49518259D02*
X137915633Y-52766867D01*
X137915633Y-56059789D02*
X135339522Y-58635900D01*
X134843685Y-58635900D02*
X134278000Y-58635900D01*
X143022620Y-48668260D02*
X142172621Y-49518259D01*
X142172621Y-49518259D02*
X141164241Y-49518259D01*
X152136140Y-54759180D02*
X152136140Y-55985702D01*
X152136140Y-55985702D02*
X151561261Y-56560581D01*
X151561261Y-56560581D02*
X148374941Y-56560581D01*
X148374941Y-56560581D02*
X143872619Y-52058259D01*
X143872619Y-52058259D02*
X143022620Y-51208260D01*
X138824000Y-54204799D02*
X138824000Y-56421422D01*
X138824000Y-56421422D02*
X135339522Y-59905900D01*
X135339522Y-59905900D02*
X134843685Y-59905900D01*
X134843685Y-59905900D02*
X134278000Y-59905900D01*
X143022620Y-51208260D02*
X141820539Y-51208260D01*
X141820539Y-51208260D02*
X138824000Y-54204799D01*
X143022620Y-66448260D02*
X141944980Y-67525900D01*
X141944980Y-67525900D02*
X134278000Y-67525900D01*
X143022620Y-68988260D02*
X134470360Y-68988260D01*
X134470360Y-68988260D02*
X134278000Y-68795900D01*
X143022620Y-76608260D02*
X139020260Y-72605900D01*
X139020260Y-72605900D02*
X134278000Y-72605900D01*
X143022620Y-79148260D02*
X137750260Y-73875900D01*
X137750260Y-73875900D02*
X134278000Y-73875900D01*
X143022620Y-81688260D02*
X136480260Y-75145900D01*
X136480260Y-75145900D02*
X134278000Y-75145900D01*
X151643380Y-77835080D02*
X149415800Y-77835080D01*
X149415800Y-77835080D02*
X143022620Y-84228260D01*
X134843685Y-76415900D02*
X134278000Y-76415900D01*
X135915622Y-76415900D02*
X134843685Y-76415900D01*
X142172621Y-82672899D02*
X135915622Y-76415900D01*
X142172621Y-83378261D02*
X142172621Y-82672899D01*
X143022620Y-84228260D02*
X142172621Y-83378261D01*
X143022620Y-94388260D02*
X144615200Y-94388260D01*
X144615200Y-94388260D02*
X146090940Y-94388260D01*
X144648220Y-97250840D02*
X144615200Y-97217820D01*
X144615200Y-97217820D02*
X144615200Y-94388260D01*
X149311660Y-104388240D02*
X144648220Y-99724800D01*
X144648220Y-99724800D02*
X144648220Y-97250840D01*
X146090940Y-94388260D02*
X146245880Y-94543200D01*
X138173760Y-82986200D02*
X136683460Y-81495900D01*
X136683460Y-81495900D02*
X134278000Y-81495900D01*
X138173760Y-89539400D02*
X138173760Y-82986200D01*
X143022620Y-94388260D02*
X138173760Y-89539400D01*
X149392940Y-100496960D02*
X148034940Y-100496960D01*
X148034940Y-100496960D02*
X146245880Y-98707900D01*
X146245880Y-97851200D02*
X146245880Y-96743200D01*
X146245880Y-98707900D02*
X146245880Y-97851200D01*
X152553540Y-72628080D02*
X152553540Y-74384920D01*
X152553540Y-74384920D02*
X151643380Y-75295080D01*
X151643380Y-80375080D02*
X154691380Y-77327080D01*
X154691380Y-77327080D02*
X154691380Y-76306500D01*
X153114500Y-83668700D02*
X153114500Y-84394540D01*
X153114500Y-84394540D02*
X153092820Y-84416220D01*
X153092820Y-84416220D02*
X151734820Y-84416220D01*
X153257180Y-83526020D02*
X153114500Y-83668700D01*
X154615180Y-83526020D02*
X153257180Y-83526020D01*
X152629740Y-92683920D02*
X152629740Y-90391140D01*
X152629740Y-90391140D02*
X151734820Y-89496220D01*
X148629740Y-91325920D02*
X148629740Y-92683920D01*
X148629740Y-90741826D02*
X148629740Y-91325920D01*
X152991221Y-85753901D02*
X152991221Y-87559293D01*
X151158945Y-88212621D02*
X148629740Y-90741826D01*
X152337893Y-88212621D02*
X151158945Y-88212621D01*
X152909941Y-85672621D02*
X152991221Y-85753901D01*
X150559699Y-85672621D02*
X152909941Y-85672621D01*
X150478419Y-85591341D02*
X150559699Y-85672621D01*
X154691380Y-80456500D02*
X151988061Y-83159819D01*
X150478419Y-83241099D02*
X150478419Y-85591341D01*
X150559699Y-83159819D02*
X150478419Y-83241099D01*
X151988061Y-83159819D02*
X150559699Y-83159819D01*
X152991221Y-87559293D02*
X152337893Y-88212621D01*
X154691380Y-80306500D02*
X154691380Y-80456500D01*
X148629740Y-92683920D02*
X148629740Y-94580100D01*
X148629740Y-94580100D02*
X149519940Y-95470300D01*
X149529740Y-95460500D02*
X149519940Y-95470300D01*
D24*
X153406140Y-38678440D02*
X153406140Y-36683140D01*
X153406140Y-36683140D02*
X153214500Y-36491500D01*
X153406140Y-50695180D02*
X153406140Y-48758140D01*
X153406140Y-48758140D02*
X153014500Y-48366500D01*
G36*
X159544021Y-118544000D02*
X27456521Y-118544000D01*
X27456777Y-113096828D01*
X30082777Y-113096828D01*
X30678556Y-113787641D01*
X32763537Y-114694265D01*
X35036758Y-114733989D01*
X37152142Y-113900765D01*
X37321444Y-113787641D01*
X37917223Y-113096828D01*
X34000000Y-109179605D01*
X30082777Y-113096828D01*
X27456777Y-113096828D01*
X27456921Y-110036758D01*
X28266011Y-110036758D01*
X29099235Y-112152142D01*
X29212359Y-112321444D01*
X29903172Y-112917223D01*
X33820395Y-109000000D01*
X34179605Y-109000000D01*
X38096828Y-112917223D01*
X38689863Y-112405770D01*
X41893764Y-112405770D01*
X42063595Y-112815804D01*
X42453882Y-113244063D01*
X42978348Y-113490366D01*
X43208240Y-113369699D01*
X43208240Y-112175880D01*
X43462240Y-112175880D01*
X43462240Y-113369699D01*
X43692132Y-113490366D01*
X44216598Y-113244063D01*
X44606885Y-112815804D01*
X44727270Y-112525150D01*
X141581144Y-112525150D01*
X141750975Y-112935184D01*
X142141262Y-113363443D01*
X142665728Y-113609746D01*
X142895620Y-113489079D01*
X142895620Y-112295260D01*
X143149620Y-112295260D01*
X143149620Y-113489079D01*
X143379512Y-113609746D01*
X143903978Y-113363443D01*
X144294265Y-112935184D01*
X144464096Y-112525150D01*
X144342775Y-112295260D01*
X143149620Y-112295260D01*
X142895620Y-112295260D01*
X141702465Y-112295260D01*
X141581144Y-112525150D01*
X44727270Y-112525150D01*
X44776716Y-112405770D01*
X44655395Y-112175880D01*
X43462240Y-112175880D01*
X43208240Y-112175880D01*
X42015085Y-112175880D01*
X41893764Y-112405770D01*
X38689863Y-112405770D01*
X38787641Y-112321444D01*
X39061350Y-111691990D01*
X41893764Y-111691990D01*
X42015085Y-111921880D01*
X43208240Y-111921880D01*
X43208240Y-111901880D01*
X43462240Y-111901880D01*
X43462240Y-111921880D01*
X44655395Y-111921880D01*
X44776716Y-111691990D01*
X44606885Y-111281956D01*
X44216598Y-110853697D01*
X43791293Y-110653963D01*
X43830440Y-110646176D01*
X44229805Y-110379328D01*
X44493187Y-109985150D01*
X141581144Y-109985150D01*
X141750975Y-110395184D01*
X142141262Y-110823443D01*
X142300574Y-110898260D01*
X142141262Y-110973077D01*
X141750975Y-111401336D01*
X141581144Y-111811370D01*
X141702465Y-112041260D01*
X142895620Y-112041260D01*
X142895620Y-109755260D01*
X143149620Y-109755260D01*
X143149620Y-112041260D01*
X144342775Y-112041260D01*
X144464096Y-111811370D01*
X144294265Y-111401336D01*
X143903978Y-110973077D01*
X143744666Y-110898260D01*
X143903978Y-110823443D01*
X144294265Y-110395184D01*
X144464096Y-109985150D01*
X144342775Y-109755260D01*
X143149620Y-109755260D01*
X142895620Y-109755260D01*
X141702465Y-109755260D01*
X141581144Y-109985150D01*
X44493187Y-109985150D01*
X44496653Y-109979963D01*
X44590357Y-109508880D01*
X44543114Y-109271370D01*
X141581144Y-109271370D01*
X141702465Y-109501260D01*
X142895620Y-109501260D01*
X142895620Y-109481260D01*
X143149620Y-109481260D01*
X143149620Y-109501260D01*
X144342775Y-109501260D01*
X144464096Y-109271370D01*
X144294265Y-108861336D01*
X143903978Y-108433077D01*
X143478673Y-108233343D01*
X143517820Y-108225556D01*
X143917185Y-107958708D01*
X144184033Y-107559343D01*
X144277737Y-107088260D01*
X144184033Y-106617177D01*
X143917185Y-106217812D01*
X143517820Y-105950964D01*
X143046737Y-105857260D01*
X142998503Y-105857260D01*
X142527420Y-105950964D01*
X142128055Y-106217812D01*
X141861207Y-106617177D01*
X141767503Y-107088260D01*
X141861207Y-107559343D01*
X142128055Y-107958708D01*
X142527420Y-108225556D01*
X142566567Y-108233343D01*
X142141262Y-108433077D01*
X141750975Y-108861336D01*
X141581144Y-109271370D01*
X44543114Y-109271370D01*
X44496653Y-109037797D01*
X44229805Y-108638432D01*
X43830440Y-108371584D01*
X43359357Y-108277880D01*
X43311123Y-108277880D01*
X42840040Y-108371584D01*
X42440675Y-108638432D01*
X42173827Y-109037797D01*
X42080123Y-109508880D01*
X42173827Y-109979963D01*
X42440675Y-110379328D01*
X42840040Y-110646176D01*
X42879187Y-110653963D01*
X42453882Y-110853697D01*
X42063595Y-111281956D01*
X41893764Y-111691990D01*
X39061350Y-111691990D01*
X39694265Y-110236463D01*
X39733989Y-107963242D01*
X39342322Y-106968880D01*
X42080123Y-106968880D01*
X42173827Y-107439963D01*
X42440675Y-107839328D01*
X42840040Y-108106176D01*
X43311123Y-108199880D01*
X43359357Y-108199880D01*
X43830440Y-108106176D01*
X44229805Y-107839328D01*
X44496653Y-107439963D01*
X44590357Y-106968880D01*
X44496653Y-106497797D01*
X44229805Y-106098432D01*
X43830440Y-105831584D01*
X43359357Y-105737880D01*
X43311123Y-105737880D01*
X42840040Y-105831584D01*
X42440675Y-106098432D01*
X42173827Y-106497797D01*
X42080123Y-106968880D01*
X39342322Y-106968880D01*
X38900765Y-105847858D01*
X38787641Y-105678556D01*
X38096828Y-105082777D01*
X34179605Y-109000000D01*
X33820395Y-109000000D01*
X29903172Y-105082777D01*
X29212359Y-105678556D01*
X28305735Y-107763537D01*
X28266011Y-110036758D01*
X27456921Y-110036758D01*
X27457162Y-104903172D01*
X30082777Y-104903172D01*
X34000000Y-108820395D01*
X37917223Y-104903172D01*
X37508179Y-104428880D01*
X42080123Y-104428880D01*
X42173827Y-104899963D01*
X42440675Y-105299328D01*
X42840040Y-105566176D01*
X43311123Y-105659880D01*
X43359357Y-105659880D01*
X43830440Y-105566176D01*
X44229805Y-105299328D01*
X44496653Y-104899963D01*
X44566610Y-104548260D01*
X141767503Y-104548260D01*
X141861207Y-105019343D01*
X142128055Y-105418708D01*
X142527420Y-105685556D01*
X142998503Y-105779260D01*
X143046737Y-105779260D01*
X143517820Y-105685556D01*
X143917185Y-105418708D01*
X144184033Y-105019343D01*
X144277737Y-104548260D01*
X144184033Y-104077177D01*
X143917185Y-103677812D01*
X143517820Y-103410964D01*
X143046737Y-103317260D01*
X142998503Y-103317260D01*
X142527420Y-103410964D01*
X142128055Y-103677812D01*
X141861207Y-104077177D01*
X141767503Y-104548260D01*
X44566610Y-104548260D01*
X44590357Y-104428880D01*
X44496653Y-103957797D01*
X44229805Y-103558432D01*
X43830440Y-103291584D01*
X43359357Y-103197880D01*
X43311123Y-103197880D01*
X42840040Y-103291584D01*
X42440675Y-103558432D01*
X42173827Y-103957797D01*
X42080123Y-104428880D01*
X37508179Y-104428880D01*
X37321444Y-104212359D01*
X35236463Y-103305735D01*
X32963242Y-103266011D01*
X30847858Y-104099235D01*
X30678556Y-104212359D01*
X30082777Y-104903172D01*
X27457162Y-104903172D01*
X27457483Y-98081494D01*
X28538054Y-98081494D01*
X29367690Y-100089367D01*
X30902553Y-101626911D01*
X32908974Y-102460050D01*
X35081494Y-102461946D01*
X36468420Y-101888880D01*
X42080123Y-101888880D01*
X42173827Y-102359963D01*
X42440675Y-102759328D01*
X42840040Y-103026176D01*
X43311123Y-103119880D01*
X43359357Y-103119880D01*
X43830440Y-103026176D01*
X44229805Y-102759328D01*
X44496653Y-102359963D01*
X44566610Y-102008260D01*
X141767503Y-102008260D01*
X141861207Y-102479343D01*
X142128055Y-102878708D01*
X142527420Y-103145556D01*
X142998503Y-103239260D01*
X143046737Y-103239260D01*
X143517820Y-103145556D01*
X143917185Y-102878708D01*
X144184033Y-102479343D01*
X144277737Y-102008260D01*
X144184033Y-101537177D01*
X143917185Y-101137812D01*
X143517820Y-100870964D01*
X143046737Y-100777260D01*
X142998503Y-100777260D01*
X142527420Y-100870964D01*
X142128055Y-101137812D01*
X141861207Y-101537177D01*
X141767503Y-102008260D01*
X44566610Y-102008260D01*
X44590357Y-101888880D01*
X44496653Y-101417797D01*
X44229805Y-101018432D01*
X43830440Y-100751584D01*
X43359357Y-100657880D01*
X43311123Y-100657880D01*
X42840040Y-100751584D01*
X42440675Y-101018432D01*
X42173827Y-101417797D01*
X42080123Y-101888880D01*
X36468420Y-101888880D01*
X37089367Y-101632310D01*
X38626911Y-100097447D01*
X39460050Y-98091026D01*
X39461946Y-95918506D01*
X38632310Y-93910633D01*
X37097447Y-92373089D01*
X35091026Y-91539950D01*
X32918506Y-91538054D01*
X30910633Y-92367690D01*
X29373089Y-93902553D01*
X28539950Y-95908974D01*
X28538054Y-98081494D01*
X27457483Y-98081494D01*
X27458047Y-86081494D01*
X28538054Y-86081494D01*
X29367690Y-88089367D01*
X30902553Y-89626911D01*
X32908974Y-90460050D01*
X35081494Y-90461946D01*
X37089367Y-89632310D01*
X38626911Y-88097447D01*
X39460050Y-86091026D01*
X39461946Y-83918506D01*
X38632310Y-81910633D01*
X37097447Y-80373089D01*
X35091026Y-79539950D01*
X32918506Y-79538054D01*
X30910633Y-80367690D01*
X29373089Y-81902553D01*
X28539950Y-83908974D01*
X28538054Y-86081494D01*
X27458047Y-86081494D01*
X27458612Y-74081494D01*
X28538054Y-74081494D01*
X29367690Y-76089367D01*
X30902553Y-77626911D01*
X32908974Y-78460050D01*
X35081494Y-78461946D01*
X37089367Y-77632310D01*
X38626911Y-76097447D01*
X39460050Y-74091026D01*
X39461946Y-71918506D01*
X38632310Y-69910633D01*
X37097447Y-68373089D01*
X35091026Y-67539950D01*
X32918506Y-67538054D01*
X30910633Y-68367690D01*
X29373089Y-69902553D01*
X28539950Y-71908974D01*
X28538054Y-74081494D01*
X27458612Y-74081494D01*
X27459192Y-61739032D01*
X32571573Y-61739032D01*
X32670236Y-62005887D01*
X33279961Y-62232408D01*
X33929960Y-62208356D01*
X34418764Y-62005887D01*
X34517427Y-61739032D01*
X33544500Y-60766105D01*
X32571573Y-61739032D01*
X27459192Y-61739032D01*
X27459259Y-60321961D01*
X31898592Y-60321961D01*
X31922644Y-60971960D01*
X32125113Y-61460764D01*
X32391968Y-61559427D01*
X33364895Y-60586500D01*
X33724105Y-60586500D01*
X34697032Y-61559427D01*
X34963887Y-61460764D01*
X35190408Y-60851039D01*
X35166356Y-60201040D01*
X34963887Y-59712236D01*
X34697032Y-59613573D01*
X33724105Y-60586500D01*
X33364895Y-60586500D01*
X32391968Y-59613573D01*
X32125113Y-59712236D01*
X31898592Y-60321961D01*
X27459259Y-60321961D01*
X27459300Y-59433968D01*
X32571573Y-59433968D01*
X33544500Y-60406895D01*
X34517427Y-59433968D01*
X34418764Y-59167113D01*
X33809039Y-58940592D01*
X33159040Y-58964644D01*
X32670236Y-59167113D01*
X32571573Y-59433968D01*
X27459300Y-59433968D01*
X27459687Y-51249032D01*
X32561573Y-51249032D01*
X32660236Y-51515887D01*
X33269961Y-51742408D01*
X33919960Y-51718356D01*
X34408764Y-51515887D01*
X34507427Y-51249032D01*
X33534500Y-50276105D01*
X32561573Y-51249032D01*
X27459687Y-51249032D01*
X27459754Y-49831961D01*
X31888592Y-49831961D01*
X31912644Y-50481960D01*
X32115113Y-50970764D01*
X32381968Y-51069427D01*
X33354895Y-50096500D01*
X32381968Y-49123573D01*
X32115113Y-49222236D01*
X31888592Y-49831961D01*
X27459754Y-49831961D01*
X27460324Y-37740349D01*
X27534802Y-37814827D01*
X27768191Y-37911500D01*
X28126136Y-37911500D01*
X27849935Y-38096052D01*
X27583087Y-38495417D01*
X27489383Y-38966500D01*
X27583087Y-39437583D01*
X27849935Y-39836948D01*
X28249300Y-40103796D01*
X28720383Y-40197500D01*
X28768617Y-40197500D01*
X29239700Y-40103796D01*
X29421232Y-39982500D01*
X31499146Y-39982500D01*
X31823446Y-39917993D01*
X31848612Y-39912987D01*
X31852644Y-40021960D01*
X32055113Y-40510764D01*
X32321968Y-40609427D01*
X33294895Y-39636500D01*
X33280753Y-39622358D01*
X33460358Y-39442753D01*
X33474500Y-39456895D01*
X33488643Y-39442753D01*
X33668248Y-39622358D01*
X33654105Y-39636500D01*
X34627032Y-40609427D01*
X34893887Y-40510764D01*
X35096514Y-39965355D01*
X35486080Y-40354921D01*
X35815693Y-40575162D01*
X35880200Y-40587993D01*
X36204500Y-40652500D01*
X37089047Y-40652500D01*
X37112603Y-40777690D01*
X37196046Y-40907365D01*
X37323366Y-40994359D01*
X37458500Y-41021724D01*
X37458500Y-41906500D01*
X37521837Y-42224920D01*
X37535838Y-42295307D01*
X37756080Y-42624920D01*
X40681839Y-45550680D01*
X40681839Y-54531479D01*
X40703481Y-54640281D01*
X39550500Y-53487300D01*
X39550500Y-51481953D01*
X39675690Y-51458397D01*
X39805365Y-51374954D01*
X39892359Y-51247634D01*
X39922964Y-51096500D01*
X39922964Y-49096500D01*
X39896397Y-48955310D01*
X39812954Y-48825635D01*
X39685634Y-48738641D01*
X39534500Y-48708036D01*
X38582877Y-48708036D01*
X31512919Y-41638079D01*
X31183306Y-41417837D01*
X31093446Y-41399963D01*
X30794499Y-41340499D01*
X30015340Y-41340499D01*
X29954495Y-41279654D01*
X29905913Y-41035417D01*
X29741284Y-40789032D01*
X32501573Y-40789032D01*
X32600236Y-41055887D01*
X33209961Y-41282408D01*
X33859960Y-41258356D01*
X34348764Y-41055887D01*
X34447427Y-40789032D01*
X33474500Y-39816105D01*
X32501573Y-40789032D01*
X29741284Y-40789032D01*
X29639065Y-40636052D01*
X29239700Y-40369204D01*
X28768617Y-40275500D01*
X28720383Y-40275500D01*
X28249300Y-40369204D01*
X27849935Y-40636052D01*
X27583087Y-41035417D01*
X27489383Y-41506500D01*
X27583087Y-41977583D01*
X27849935Y-42376948D01*
X28249300Y-42643796D01*
X28493537Y-42692378D01*
X28633868Y-42832709D01*
X28249300Y-42909204D01*
X27849935Y-43176052D01*
X27583087Y-43575417D01*
X27489383Y-44046500D01*
X27583087Y-44517583D01*
X27849935Y-44916948D01*
X28249300Y-45183796D01*
X28493537Y-45232378D01*
X28876078Y-45614919D01*
X29205692Y-45835161D01*
X29245233Y-45843026D01*
X29594499Y-45912499D01*
X30559013Y-45912499D01*
X33129324Y-48482811D01*
X32660236Y-48677113D01*
X32561573Y-48943968D01*
X33534500Y-49916895D01*
X33548643Y-49902753D01*
X33728248Y-50082358D01*
X33714105Y-50096500D01*
X34687032Y-51069427D01*
X34953887Y-50970764D01*
X35133585Y-50487072D01*
X35688500Y-51041987D01*
X35688500Y-56476500D01*
X35744761Y-56759343D01*
X35765838Y-56865307D01*
X35986080Y-57194920D01*
X37528500Y-58737341D01*
X37528500Y-59201047D01*
X37403310Y-59224603D01*
X37273635Y-59308046D01*
X37186641Y-59435366D01*
X37156036Y-59586500D01*
X37156036Y-61586500D01*
X37182603Y-61727690D01*
X37266046Y-61857365D01*
X37393366Y-61944359D01*
X37544500Y-61974964D01*
X39544500Y-61974964D01*
X39685690Y-61948397D01*
X39815365Y-61864954D01*
X39879950Y-61770430D01*
X42125245Y-64015726D01*
X42173827Y-64259963D01*
X42440675Y-64659328D01*
X42446240Y-64663046D01*
X42446240Y-65454714D01*
X42440675Y-65458432D01*
X42173827Y-65857797D01*
X42080123Y-66328880D01*
X42173827Y-66799963D01*
X42440675Y-67199328D01*
X42840040Y-67466176D01*
X43311123Y-67559880D01*
X43359357Y-67559880D01*
X43616971Y-67508637D01*
X43859004Y-67750670D01*
X43830440Y-67731584D01*
X43359357Y-67637880D01*
X43311123Y-67637880D01*
X42840040Y-67731584D01*
X42440675Y-67998432D01*
X42173827Y-68397797D01*
X42080123Y-68868880D01*
X42173827Y-69339963D01*
X42440675Y-69739328D01*
X42840040Y-70006176D01*
X43311123Y-70099880D01*
X43359357Y-70099880D01*
X43830440Y-70006176D01*
X43859006Y-69987089D01*
X43616972Y-70229123D01*
X43359357Y-70177880D01*
X43311123Y-70177880D01*
X42840040Y-70271584D01*
X42440675Y-70538432D01*
X42173827Y-70937797D01*
X42080123Y-71408880D01*
X42173827Y-71879963D01*
X42440675Y-72279328D01*
X42840040Y-72546176D01*
X43311123Y-72639880D01*
X43359357Y-72639880D01*
X43830440Y-72546176D01*
X43859004Y-72527090D01*
X43616971Y-72769123D01*
X43359357Y-72717880D01*
X43311123Y-72717880D01*
X42840040Y-72811584D01*
X42440675Y-73078432D01*
X42173827Y-73477797D01*
X42080123Y-73948880D01*
X42173827Y-74419963D01*
X42440675Y-74819328D01*
X42840040Y-75086176D01*
X43311123Y-75179880D01*
X43359357Y-75179880D01*
X43830440Y-75086176D01*
X43859004Y-75067090D01*
X43616971Y-75309123D01*
X43359357Y-75257880D01*
X43311123Y-75257880D01*
X42840040Y-75351584D01*
X42440675Y-75618432D01*
X42173827Y-76017797D01*
X42080123Y-76488880D01*
X42173827Y-76959963D01*
X42440675Y-77359328D01*
X42840040Y-77626176D01*
X43311123Y-77719880D01*
X43359357Y-77719880D01*
X43830440Y-77626176D01*
X43859004Y-77607090D01*
X43616971Y-77849123D01*
X43359357Y-77797880D01*
X43311123Y-77797880D01*
X42840040Y-77891584D01*
X42440675Y-78158432D01*
X42173827Y-78557797D01*
X42080123Y-79028880D01*
X42173827Y-79499963D01*
X42440675Y-79899328D01*
X42840040Y-80166176D01*
X43311123Y-80259880D01*
X43359357Y-80259880D01*
X43830440Y-80166176D01*
X43859004Y-80147090D01*
X43616971Y-80389123D01*
X43359357Y-80337880D01*
X43311123Y-80337880D01*
X42840040Y-80431584D01*
X42440675Y-80698432D01*
X42173827Y-81097797D01*
X42080123Y-81568880D01*
X42173827Y-82039963D01*
X42440675Y-82439328D01*
X42840040Y-82706176D01*
X43311123Y-82799880D01*
X43359357Y-82799880D01*
X43830440Y-82706176D01*
X43859005Y-82687090D01*
X43616972Y-82929123D01*
X43359357Y-82877880D01*
X43311123Y-82877880D01*
X42840040Y-82971584D01*
X42440675Y-83238432D01*
X42173827Y-83637797D01*
X42080123Y-84108880D01*
X42173827Y-84579963D01*
X42440675Y-84979328D01*
X42840040Y-85246176D01*
X43311123Y-85339880D01*
X43359357Y-85339880D01*
X43605168Y-85290985D01*
X43598575Y-85300853D01*
X43567078Y-85459198D01*
X43359357Y-85417880D01*
X43311123Y-85417880D01*
X42840040Y-85511584D01*
X42440675Y-85778432D01*
X42173827Y-86177797D01*
X42080123Y-86648880D01*
X42173827Y-87119963D01*
X42440675Y-87519328D01*
X42840040Y-87786176D01*
X43311123Y-87879880D01*
X43359357Y-87879880D01*
X43830440Y-87786176D01*
X43859004Y-87767090D01*
X43616971Y-88009123D01*
X43359357Y-87957880D01*
X43311123Y-87957880D01*
X42840040Y-88051584D01*
X42440675Y-88318432D01*
X42173827Y-88717797D01*
X42080123Y-89188880D01*
X42173827Y-89659963D01*
X42440675Y-90059328D01*
X42840040Y-90326176D01*
X43311123Y-90419880D01*
X43359357Y-90419880D01*
X43830440Y-90326176D01*
X43859004Y-90307090D01*
X43616971Y-90549123D01*
X43359357Y-90497880D01*
X43311123Y-90497880D01*
X42840040Y-90591584D01*
X42440675Y-90858432D01*
X42173827Y-91257797D01*
X42080123Y-91728880D01*
X42173827Y-92199963D01*
X42440675Y-92599328D01*
X42840040Y-92866176D01*
X43311123Y-92959880D01*
X43359357Y-92959880D01*
X43830440Y-92866176D01*
X43859004Y-92847090D01*
X43616971Y-93089123D01*
X43359357Y-93037880D01*
X43311123Y-93037880D01*
X42840040Y-93131584D01*
X42440675Y-93398432D01*
X42173827Y-93797797D01*
X42080123Y-94268880D01*
X42173827Y-94739963D01*
X42440675Y-95139328D01*
X42840040Y-95406176D01*
X43311123Y-95499880D01*
X43359357Y-95499880D01*
X43830440Y-95406176D01*
X43859004Y-95387090D01*
X43616971Y-95629123D01*
X43359357Y-95577880D01*
X43311123Y-95577880D01*
X42840040Y-95671584D01*
X42440675Y-95938432D01*
X42173827Y-96337797D01*
X42080123Y-96808880D01*
X42173827Y-97279963D01*
X42440675Y-97679328D01*
X42840040Y-97946176D01*
X43311123Y-98039880D01*
X43359357Y-98039880D01*
X43830440Y-97946176D01*
X43859004Y-97927090D01*
X43616971Y-98169123D01*
X43359357Y-98117880D01*
X43311123Y-98117880D01*
X42840040Y-98211584D01*
X42440675Y-98478432D01*
X42173827Y-98877797D01*
X42080123Y-99348880D01*
X42173827Y-99819963D01*
X42440675Y-100219328D01*
X42840040Y-100486176D01*
X43311123Y-100579880D01*
X43359357Y-100579880D01*
X43830440Y-100486176D01*
X44229805Y-100219328D01*
X44496653Y-99819963D01*
X44590357Y-99348880D01*
X44531112Y-99051034D01*
X50914033Y-92668113D01*
X51051684Y-92462104D01*
X51100021Y-92219100D01*
X51100020Y-92219095D01*
X51100020Y-89830473D01*
X51218000Y-89854364D01*
X52209857Y-89854364D01*
X52311968Y-89896764D01*
X52622669Y-89897036D01*
X52725943Y-89854364D01*
X53479857Y-89854364D01*
X53547385Y-89882404D01*
X53547357Y-89914382D01*
X53672767Y-90217898D01*
X53904781Y-90450317D01*
X54208077Y-90576257D01*
X54536482Y-90576543D01*
X54839998Y-90451133D01*
X55072417Y-90219119D01*
X55198357Y-89915823D01*
X55198386Y-89882278D01*
X55265943Y-89854364D01*
X56019857Y-89854364D01*
X56121968Y-89896764D01*
X56432669Y-89897036D01*
X56535943Y-89854364D01*
X57528000Y-89854364D01*
X57669190Y-89827797D01*
X57798865Y-89744354D01*
X57885859Y-89617034D01*
X57916464Y-89465900D01*
X57916464Y-88765900D01*
X57889897Y-88624710D01*
X57806454Y-88495035D01*
X57787186Y-88481869D01*
X57798865Y-88474354D01*
X57885859Y-88347034D01*
X57916464Y-88195900D01*
X57916464Y-87495900D01*
X57889897Y-87354710D01*
X57806454Y-87225035D01*
X57787186Y-87211869D01*
X57798865Y-87204354D01*
X57885859Y-87077034D01*
X57916464Y-86925900D01*
X57916464Y-86225900D01*
X57889897Y-86084710D01*
X57806454Y-85955035D01*
X57787186Y-85941869D01*
X57798865Y-85934354D01*
X57885859Y-85807034D01*
X57916464Y-85655900D01*
X57916464Y-84955900D01*
X57889897Y-84814710D01*
X57806454Y-84685035D01*
X57787186Y-84671869D01*
X57798865Y-84664354D01*
X57885859Y-84537034D01*
X57916464Y-84385900D01*
X57916464Y-83685900D01*
X57889897Y-83544710D01*
X57806454Y-83415035D01*
X57787186Y-83401869D01*
X57798865Y-83394354D01*
X57885859Y-83267034D01*
X57916464Y-83115900D01*
X57916464Y-82415900D01*
X57889897Y-82274710D01*
X57806454Y-82145035D01*
X57787186Y-82131869D01*
X57798865Y-82124354D01*
X57885859Y-81997034D01*
X57916464Y-81845900D01*
X57916464Y-81145900D01*
X57889897Y-81004710D01*
X57806454Y-80875035D01*
X57787186Y-80861869D01*
X57798865Y-80854354D01*
X57885859Y-80727034D01*
X57916464Y-80575900D01*
X57916464Y-79875900D01*
X57889897Y-79734710D01*
X57806454Y-79605035D01*
X57787186Y-79591869D01*
X57798865Y-79584354D01*
X57885859Y-79457034D01*
X57916464Y-79305900D01*
X57916464Y-78605900D01*
X57889897Y-78464710D01*
X57806454Y-78335035D01*
X57787186Y-78321869D01*
X57798865Y-78314354D01*
X57885859Y-78187034D01*
X57916464Y-78035900D01*
X57916464Y-77335900D01*
X57889897Y-77194710D01*
X57806454Y-77065035D01*
X57787186Y-77051869D01*
X57798865Y-77044354D01*
X57885859Y-76917034D01*
X57916464Y-76765900D01*
X57916464Y-76065900D01*
X57889897Y-75924710D01*
X57806454Y-75795035D01*
X57787186Y-75781869D01*
X57798865Y-75774354D01*
X57885859Y-75647034D01*
X57916464Y-75495900D01*
X57916464Y-74795900D01*
X57889897Y-74654710D01*
X57806454Y-74525035D01*
X57787186Y-74511869D01*
X57798865Y-74504354D01*
X57885859Y-74377034D01*
X57916464Y-74225900D01*
X57916464Y-73525900D01*
X57889897Y-73384710D01*
X57806454Y-73255035D01*
X57787186Y-73241869D01*
X57798865Y-73234354D01*
X57885859Y-73107034D01*
X57916464Y-72955900D01*
X57916464Y-72255900D01*
X57889897Y-72114710D01*
X57806454Y-71985035D01*
X57787186Y-71971869D01*
X57798865Y-71964354D01*
X57885859Y-71837034D01*
X57916464Y-71685900D01*
X57916464Y-70985900D01*
X57889897Y-70844710D01*
X57806454Y-70715035D01*
X57787186Y-70701869D01*
X57798865Y-70694354D01*
X57885859Y-70567034D01*
X57916464Y-70415900D01*
X57916464Y-69715900D01*
X57889897Y-69574710D01*
X57806454Y-69445035D01*
X57787186Y-69431869D01*
X57798865Y-69424354D01*
X57885859Y-69297034D01*
X57916464Y-69145900D01*
X57916464Y-68445900D01*
X57889897Y-68304710D01*
X57806454Y-68175035D01*
X57787186Y-68161869D01*
X57798865Y-68154354D01*
X57885859Y-68027034D01*
X57916464Y-67875900D01*
X57916464Y-67175900D01*
X57889897Y-67034710D01*
X57806454Y-66905035D01*
X57787186Y-66891869D01*
X57798865Y-66884354D01*
X57885859Y-66757034D01*
X57916464Y-66605900D01*
X57916464Y-65905900D01*
X57889897Y-65764710D01*
X57806454Y-65635035D01*
X57787186Y-65621869D01*
X57798865Y-65614354D01*
X57885859Y-65487034D01*
X57916464Y-65335900D01*
X57916464Y-64635900D01*
X57889897Y-64494710D01*
X57806454Y-64365035D01*
X57787186Y-64351869D01*
X57798865Y-64344354D01*
X57885859Y-64217034D01*
X57916464Y-64065900D01*
X57916464Y-63365900D01*
X57889897Y-63224710D01*
X57806454Y-63095035D01*
X57787186Y-63081869D01*
X57798865Y-63074354D01*
X57885859Y-62947034D01*
X57916464Y-62795900D01*
X57916464Y-62095900D01*
X57889897Y-61954710D01*
X57806454Y-61825035D01*
X57787186Y-61811869D01*
X57798865Y-61804354D01*
X57885859Y-61677034D01*
X57916464Y-61525900D01*
X57916464Y-60825900D01*
X57889897Y-60684710D01*
X57806454Y-60555035D01*
X57787186Y-60541869D01*
X57798865Y-60534354D01*
X57885859Y-60407034D01*
X57916464Y-60255900D01*
X57916464Y-59555900D01*
X57889897Y-59414710D01*
X57806454Y-59285035D01*
X57787186Y-59271869D01*
X57798865Y-59264354D01*
X57885859Y-59137034D01*
X57916464Y-58985900D01*
X57916464Y-58285900D01*
X57889897Y-58144710D01*
X57806454Y-58015035D01*
X57787186Y-58001869D01*
X57798865Y-57994354D01*
X57885859Y-57867034D01*
X57916464Y-57715900D01*
X57916464Y-57015900D01*
X57889897Y-56874710D01*
X57806454Y-56745035D01*
X57787186Y-56731869D01*
X57798865Y-56724354D01*
X57885859Y-56597034D01*
X57916464Y-56445900D01*
X57916464Y-55745900D01*
X57889897Y-55604710D01*
X57806454Y-55475035D01*
X57787186Y-55461869D01*
X57798865Y-55454354D01*
X57885859Y-55327034D01*
X57916464Y-55175900D01*
X57916464Y-54475900D01*
X57889897Y-54334710D01*
X57806454Y-54205035D01*
X57679134Y-54118041D01*
X57528000Y-54087436D01*
X56536143Y-54087436D01*
X56434032Y-54045036D01*
X56123331Y-54044764D01*
X56020057Y-54087436D01*
X55266143Y-54087436D01*
X55198615Y-54059396D01*
X55198643Y-54027418D01*
X55073233Y-53723902D01*
X54841219Y-53491483D01*
X54537923Y-53365543D01*
X54209518Y-53365257D01*
X53906002Y-53490667D01*
X53673583Y-53722681D01*
X53547643Y-54025977D01*
X53547614Y-54059522D01*
X53480057Y-54087436D01*
X52726143Y-54087436D01*
X52624032Y-54045036D01*
X52313331Y-54044764D01*
X52210057Y-54087436D01*
X51566040Y-54087436D01*
X51446599Y-53967995D01*
X51446599Y-53079591D01*
X128583000Y-53079591D01*
X128583000Y-53270150D01*
X128741750Y-53428900D01*
X129421600Y-53428900D01*
X129419691Y-53434831D01*
X129439921Y-53682900D01*
X128741750Y-53682900D01*
X128583000Y-53841650D01*
X128583000Y-54032209D01*
X128679673Y-54265598D01*
X128839714Y-54425640D01*
X128829536Y-54475900D01*
X128829536Y-55175900D01*
X128856103Y-55317090D01*
X128939546Y-55446765D01*
X128958814Y-55459931D01*
X128947135Y-55467446D01*
X128860141Y-55594766D01*
X128829536Y-55745900D01*
X128829536Y-56445900D01*
X128856103Y-56587090D01*
X128939546Y-56716765D01*
X128958814Y-56729931D01*
X128947135Y-56737446D01*
X128860141Y-56864766D01*
X128829536Y-57015900D01*
X128829536Y-57715900D01*
X128856103Y-57857090D01*
X128939546Y-57986765D01*
X128958814Y-57999931D01*
X128947135Y-58007446D01*
X128860141Y-58134766D01*
X128829536Y-58285900D01*
X128829536Y-58985900D01*
X128856103Y-59127090D01*
X128939546Y-59256765D01*
X128958814Y-59269931D01*
X128947135Y-59277446D01*
X128860141Y-59404766D01*
X128829536Y-59555900D01*
X128829536Y-60255900D01*
X128856103Y-60397090D01*
X128939546Y-60526765D01*
X128958814Y-60539931D01*
X128947135Y-60547446D01*
X128860141Y-60674766D01*
X128829536Y-60825900D01*
X128829536Y-61525900D01*
X128856103Y-61667090D01*
X128939546Y-61796765D01*
X128958814Y-61809931D01*
X128947135Y-61817446D01*
X128860141Y-61944766D01*
X128829536Y-62095900D01*
X128829536Y-62795900D01*
X128856103Y-62937090D01*
X128939546Y-63066765D01*
X128958814Y-63079931D01*
X128947135Y-63087446D01*
X128860141Y-63214766D01*
X128829536Y-63365900D01*
X128829536Y-64065900D01*
X128856103Y-64207090D01*
X128939546Y-64336765D01*
X128958814Y-64349931D01*
X128947135Y-64357446D01*
X128860141Y-64484766D01*
X128829536Y-64635900D01*
X128829536Y-65335900D01*
X128856103Y-65477090D01*
X128939546Y-65606765D01*
X128958814Y-65619931D01*
X128947135Y-65627446D01*
X128860141Y-65754766D01*
X128829536Y-65905900D01*
X128829536Y-66605900D01*
X128856103Y-66747090D01*
X128939546Y-66876765D01*
X128958814Y-66889931D01*
X128947135Y-66897446D01*
X128860141Y-67024766D01*
X128829536Y-67175900D01*
X128829536Y-67875900D01*
X128856103Y-68017090D01*
X128939546Y-68146765D01*
X128958814Y-68159931D01*
X128947135Y-68167446D01*
X128860141Y-68294766D01*
X128829536Y-68445900D01*
X128829536Y-69145900D01*
X128856103Y-69287090D01*
X128939546Y-69416765D01*
X128958814Y-69429931D01*
X128947135Y-69437446D01*
X128860141Y-69564766D01*
X128829536Y-69715900D01*
X128829536Y-70415900D01*
X128856103Y-70557090D01*
X128939546Y-70686765D01*
X128958814Y-70699931D01*
X128947135Y-70707446D01*
X128860141Y-70834766D01*
X128829536Y-70985900D01*
X128829536Y-71685900D01*
X128856103Y-71827090D01*
X128939546Y-71956765D01*
X128958814Y-71969931D01*
X128947135Y-71977446D01*
X128860141Y-72104766D01*
X128829536Y-72255900D01*
X128829536Y-72955900D01*
X128856103Y-73097090D01*
X128939546Y-73226765D01*
X128958814Y-73239931D01*
X128947135Y-73247446D01*
X128860141Y-73374766D01*
X128829536Y-73525900D01*
X128829536Y-74225900D01*
X128856103Y-74367090D01*
X128939546Y-74496765D01*
X128958814Y-74509931D01*
X128947135Y-74517446D01*
X128860141Y-74644766D01*
X128829536Y-74795900D01*
X128829536Y-75495900D01*
X128856103Y-75637090D01*
X128939546Y-75766765D01*
X128958814Y-75779931D01*
X128947135Y-75787446D01*
X128860141Y-75914766D01*
X128829536Y-76065900D01*
X128829536Y-76765900D01*
X128856103Y-76907090D01*
X128939546Y-77036765D01*
X128958814Y-77049931D01*
X128947135Y-77057446D01*
X128860141Y-77184766D01*
X128829536Y-77335900D01*
X128829536Y-78035900D01*
X128856103Y-78177090D01*
X128939546Y-78306765D01*
X128958814Y-78319931D01*
X128947135Y-78327446D01*
X128860141Y-78454766D01*
X128829536Y-78605900D01*
X128829536Y-79305900D01*
X128856103Y-79447090D01*
X128939546Y-79576765D01*
X128958814Y-79589931D01*
X128947135Y-79597446D01*
X128860141Y-79724766D01*
X128829536Y-79875900D01*
X128829536Y-80575900D01*
X128856103Y-80717090D01*
X128939546Y-80846765D01*
X128958814Y-80859931D01*
X128947135Y-80867446D01*
X128860141Y-80994766D01*
X128829536Y-81145900D01*
X128829536Y-81845900D01*
X128856103Y-81987090D01*
X128939546Y-82116765D01*
X128958814Y-82129931D01*
X128947135Y-82137446D01*
X128860141Y-82264766D01*
X128829536Y-82415900D01*
X128829536Y-83115900D01*
X128856103Y-83257090D01*
X128939546Y-83386765D01*
X128958814Y-83399931D01*
X128947135Y-83407446D01*
X128860141Y-83534766D01*
X128829536Y-83685900D01*
X128829536Y-84385900D01*
X128856103Y-84527090D01*
X128939546Y-84656765D01*
X128958814Y-84669931D01*
X128947135Y-84677446D01*
X128860141Y-84804766D01*
X128829536Y-84955900D01*
X128829536Y-85048346D01*
X128819814Y-85062896D01*
X128771478Y-85305900D01*
X128819814Y-85548904D01*
X128829536Y-85563454D01*
X128829536Y-85655900D01*
X128856103Y-85797090D01*
X128939546Y-85926765D01*
X128958814Y-85939931D01*
X128947135Y-85947446D01*
X128860141Y-86074766D01*
X128829536Y-86225900D01*
X128829536Y-86925900D01*
X128856103Y-87067090D01*
X128939546Y-87196765D01*
X128958814Y-87209931D01*
X128947135Y-87217446D01*
X128860141Y-87344766D01*
X128829536Y-87495900D01*
X128829536Y-88195900D01*
X128839107Y-88246767D01*
X128679673Y-88406202D01*
X128583000Y-88639591D01*
X128583000Y-88830150D01*
X128741750Y-88988900D01*
X129421600Y-88988900D01*
X129419691Y-88994831D01*
X129439921Y-89242900D01*
X128741750Y-89242900D01*
X128583000Y-89401650D01*
X128583000Y-89592209D01*
X128648732Y-89750900D01*
X128583000Y-89909591D01*
X128583000Y-90100150D01*
X128741750Y-90258900D01*
X129421600Y-90258900D01*
X129419691Y-90264831D01*
X129439921Y-90512900D01*
X128741750Y-90512900D01*
X128583000Y-90671650D01*
X128583000Y-90862209D01*
X128679673Y-91095598D01*
X128858301Y-91274227D01*
X129091690Y-91370900D01*
X130150194Y-91370900D01*
X130346931Y-91434209D01*
X130757318Y-91400742D01*
X130829363Y-91370900D01*
X131420194Y-91370900D01*
X131616931Y-91434209D01*
X132027318Y-91400742D01*
X132251023Y-91308080D01*
X132271517Y-91138285D01*
X132353370Y-91220138D01*
X132373000Y-91200508D01*
X132392630Y-91220138D01*
X132398309Y-91214459D01*
X132531750Y-91347900D01*
X132618720Y-91347900D01*
X132886931Y-91434209D01*
X133297318Y-91400742D01*
X133369363Y-91370900D01*
X133960194Y-91370900D01*
X134156931Y-91434209D01*
X134567318Y-91400742D01*
X134639363Y-91370900D01*
X135654310Y-91370900D01*
X135887699Y-91274227D01*
X135966500Y-91195426D01*
X135966500Y-93047140D01*
X136014836Y-93290144D01*
X136152487Y-93496153D01*
X141826748Y-99170414D01*
X141767503Y-99468260D01*
X141861207Y-99939343D01*
X142128055Y-100338708D01*
X142527420Y-100605556D01*
X142998503Y-100699260D01*
X143046737Y-100699260D01*
X143517820Y-100605556D01*
X143917185Y-100338708D01*
X144113286Y-100045223D01*
X144199207Y-100173813D01*
X148131903Y-104106509D01*
X148080660Y-104364123D01*
X148080660Y-104412357D01*
X148174364Y-104883440D01*
X148441212Y-105282805D01*
X148840577Y-105549653D01*
X149311660Y-105643357D01*
X149782743Y-105549653D01*
X150182108Y-105282805D01*
X150366660Y-105006604D01*
X150366660Y-105364549D01*
X150463333Y-105597938D01*
X150641961Y-105776567D01*
X150875350Y-105873240D01*
X151565910Y-105873240D01*
X151724660Y-105714490D01*
X151724660Y-104515240D01*
X151978660Y-104515240D01*
X151978660Y-105714490D01*
X152137410Y-105873240D01*
X152827970Y-105873240D01*
X153061359Y-105776567D01*
X153239987Y-105597938D01*
X153336660Y-105364549D01*
X153336660Y-104673990D01*
X153177910Y-104515240D01*
X151978660Y-104515240D01*
X151724660Y-104515240D01*
X151704660Y-104515240D01*
X151704660Y-104261240D01*
X151724660Y-104261240D01*
X151724660Y-103061990D01*
X151978660Y-103061990D01*
X151978660Y-104261240D01*
X153177910Y-104261240D01*
X153336660Y-104102490D01*
X153336660Y-103411931D01*
X153239987Y-103178542D01*
X153061359Y-102999913D01*
X152827970Y-102903240D01*
X152137410Y-102903240D01*
X151978660Y-103061990D01*
X151724660Y-103061990D01*
X151565910Y-102903240D01*
X150875350Y-102903240D01*
X150641961Y-102999913D01*
X150463333Y-103178542D01*
X150366660Y-103411931D01*
X150366660Y-103769876D01*
X150182108Y-103493675D01*
X149782743Y-103226827D01*
X149311660Y-103133123D01*
X149013814Y-103192368D01*
X145283220Y-99461774D01*
X145283220Y-97250840D01*
X145250200Y-97084836D01*
X145250200Y-96143200D01*
X145407416Y-96143200D01*
X145407416Y-97343200D01*
X145433983Y-97484390D01*
X145517426Y-97614065D01*
X145610880Y-97677919D01*
X145610880Y-98707900D01*
X145659216Y-98950904D01*
X145796867Y-99156913D01*
X147585927Y-100945973D01*
X147791936Y-101083624D01*
X148034940Y-101131960D01*
X148154476Y-101131960D01*
X148154476Y-101346960D01*
X148181043Y-101488150D01*
X148264486Y-101617825D01*
X148391806Y-101704819D01*
X148542940Y-101735424D01*
X150242940Y-101735424D01*
X150384130Y-101708857D01*
X150513805Y-101625414D01*
X150600799Y-101498094D01*
X150631404Y-101346960D01*
X150631404Y-99646960D01*
X150604837Y-99505770D01*
X150521394Y-99376095D01*
X150394074Y-99289101D01*
X150242940Y-99258496D01*
X148542940Y-99258496D01*
X148401750Y-99285063D01*
X148272075Y-99368506D01*
X148185081Y-99495826D01*
X148154476Y-99646960D01*
X148154476Y-99718470D01*
X146880880Y-98444874D01*
X146880880Y-97676906D01*
X146966745Y-97621654D01*
X147053739Y-97494334D01*
X147084344Y-97343200D01*
X147084344Y-96143200D01*
X147057777Y-96002010D01*
X146974334Y-95872335D01*
X146847014Y-95785341D01*
X146695880Y-95754736D01*
X145795880Y-95754736D01*
X145654690Y-95781303D01*
X145525015Y-95864746D01*
X145438021Y-95992066D01*
X145407416Y-96143200D01*
X145250200Y-96143200D01*
X145250200Y-95023260D01*
X145407416Y-95023260D01*
X145407416Y-95143200D01*
X145433983Y-95284390D01*
X145517426Y-95414065D01*
X145644746Y-95501059D01*
X145795880Y-95531664D01*
X146695880Y-95531664D01*
X146837070Y-95505097D01*
X146966745Y-95421654D01*
X147053739Y-95294334D01*
X147084344Y-95143200D01*
X147084344Y-93943200D01*
X147057777Y-93802010D01*
X146974334Y-93672335D01*
X146847014Y-93585341D01*
X146695880Y-93554736D01*
X145795880Y-93554736D01*
X145654690Y-93581303D01*
X145525015Y-93664746D01*
X145464536Y-93753260D01*
X144074507Y-93753260D01*
X143917185Y-93517812D01*
X143517820Y-93250964D01*
X143046737Y-93157260D01*
X142998503Y-93157260D01*
X142740889Y-93208503D01*
X142498856Y-92966470D01*
X142527420Y-92985556D01*
X142998503Y-93079260D01*
X143046737Y-93079260D01*
X143517820Y-92985556D01*
X143917185Y-92718708D01*
X144184033Y-92319343D01*
X144277737Y-91848260D01*
X144184033Y-91377177D01*
X143917185Y-90977812D01*
X143517820Y-90710964D01*
X143046737Y-90617260D01*
X142998503Y-90617260D01*
X142740889Y-90668503D01*
X142498856Y-90426470D01*
X142527420Y-90445556D01*
X142998503Y-90539260D01*
X143046737Y-90539260D01*
X143517820Y-90445556D01*
X143917185Y-90178708D01*
X144184033Y-89779343D01*
X144277737Y-89308260D01*
X144184033Y-88837177D01*
X143917185Y-88437812D01*
X143517820Y-88170964D01*
X143046737Y-88077260D01*
X142998503Y-88077260D01*
X142740889Y-88128503D01*
X142498856Y-87886470D01*
X142527420Y-87905556D01*
X142998503Y-87999260D01*
X143046737Y-87999260D01*
X143517820Y-87905556D01*
X143917185Y-87638708D01*
X143948916Y-87591220D01*
X150682933Y-87591220D01*
X150770900Y-87722871D01*
X150709932Y-87763608D01*
X148180727Y-90292813D01*
X148043076Y-90498822D01*
X147994740Y-90741826D01*
X147994740Y-91445456D01*
X147629740Y-91445456D01*
X147488550Y-91472023D01*
X147358875Y-91555466D01*
X147271881Y-91682786D01*
X147241276Y-91833920D01*
X147241276Y-93533920D01*
X147267843Y-93675110D01*
X147351286Y-93804785D01*
X147478606Y-93891779D01*
X147629740Y-93922384D01*
X147994740Y-93922384D01*
X147994740Y-94580100D01*
X148043076Y-94823104D01*
X148180727Y-95029113D01*
X148340183Y-95188569D01*
X148288940Y-95446183D01*
X148288940Y-95494417D01*
X148382644Y-95965500D01*
X148649492Y-96364865D01*
X149048857Y-96631713D01*
X149519940Y-96725417D01*
X149991023Y-96631713D01*
X150390388Y-96364865D01*
X150657236Y-95965500D01*
X150750940Y-95494417D01*
X150750940Y-95446183D01*
X150657236Y-94975100D01*
X150390388Y-94575735D01*
X149991023Y-94308887D01*
X149519940Y-94215183D01*
X149264740Y-94265945D01*
X149264740Y-93922384D01*
X149629740Y-93922384D01*
X149770930Y-93895817D01*
X149900605Y-93812374D01*
X149987599Y-93685054D01*
X150018204Y-93533920D01*
X150018204Y-91833920D01*
X149991637Y-91692730D01*
X149908194Y-91563055D01*
X149780874Y-91476061D01*
X149629740Y-91445456D01*
X149264740Y-91445456D01*
X149264740Y-91004852D01*
X150528426Y-89741166D01*
X150573407Y-89967303D01*
X150840255Y-90366668D01*
X151239620Y-90633516D01*
X151710703Y-90727220D01*
X151758937Y-90727220D01*
X151994740Y-90680316D01*
X151994740Y-91445456D01*
X151629740Y-91445456D01*
X151488550Y-91472023D01*
X151358875Y-91555466D01*
X151271881Y-91682786D01*
X151241276Y-91833920D01*
X151241276Y-93533920D01*
X151267843Y-93675110D01*
X151351286Y-93804785D01*
X151478606Y-93891779D01*
X151629740Y-93922384D01*
X153629740Y-93922384D01*
X153770930Y-93895817D01*
X153900605Y-93812374D01*
X153987599Y-93685054D01*
X154018204Y-93533920D01*
X154018204Y-91833920D01*
X153991637Y-91692730D01*
X153908194Y-91563055D01*
X153780874Y-91476061D01*
X153629740Y-91445456D01*
X153264740Y-91445456D01*
X153264740Y-90391140D01*
X153216404Y-90148136D01*
X153078753Y-89942127D01*
X152930692Y-89794066D01*
X152989937Y-89496220D01*
X152896233Y-89025137D01*
X152694571Y-88723330D01*
X152786906Y-88661634D01*
X153130180Y-88318360D01*
X153130180Y-88652329D01*
X153226853Y-88885718D01*
X153405481Y-89064347D01*
X153638870Y-89161020D01*
X154329430Y-89161020D01*
X154488180Y-89002270D01*
X154488180Y-87653020D01*
X154742180Y-87653020D01*
X154742180Y-89002270D01*
X154900930Y-89161020D01*
X155591490Y-89161020D01*
X155824879Y-89064347D01*
X156003507Y-88885718D01*
X156100180Y-88652329D01*
X156100180Y-87811770D01*
X155941430Y-87653020D01*
X154742180Y-87653020D01*
X154488180Y-87653020D01*
X154468180Y-87653020D01*
X154468180Y-87399020D01*
X154488180Y-87399020D01*
X154488180Y-86049770D01*
X154742180Y-86049770D01*
X154742180Y-87399020D01*
X155941430Y-87399020D01*
X156100180Y-87240270D01*
X156100180Y-86399711D01*
X156003507Y-86166322D01*
X155824879Y-85987693D01*
X155591490Y-85891020D01*
X154900930Y-85891020D01*
X154742180Y-86049770D01*
X154488180Y-86049770D01*
X154329430Y-85891020D01*
X153638870Y-85891020D01*
X153626221Y-85896259D01*
X153626221Y-85753901D01*
X153577885Y-85510897D01*
X153577885Y-85510896D01*
X153440234Y-85304888D01*
X153358954Y-85223608D01*
X153152945Y-85085957D01*
X152978308Y-85051220D01*
X153092820Y-85051220D01*
X153335824Y-85002884D01*
X153541833Y-84865233D01*
X153560068Y-84846998D01*
X153614046Y-84883879D01*
X153765180Y-84914484D01*
X155465180Y-84914484D01*
X155606370Y-84887917D01*
X155736045Y-84804474D01*
X155823039Y-84677154D01*
X155853644Y-84526020D01*
X155853644Y-82526020D01*
X155827077Y-82384830D01*
X155743634Y-82255155D01*
X155616314Y-82168161D01*
X155465180Y-82137556D01*
X153908350Y-82137556D01*
X154350942Y-81694964D01*
X155541380Y-81694964D01*
X155682570Y-81668397D01*
X155812245Y-81584954D01*
X155899239Y-81457634D01*
X155929844Y-81306500D01*
X155929844Y-79306500D01*
X155903277Y-79165310D01*
X155819834Y-79035635D01*
X155692514Y-78948641D01*
X155541380Y-78918036D01*
X153998450Y-78918036D01*
X155140393Y-77776093D01*
X155194602Y-77694964D01*
X155541380Y-77694964D01*
X155682570Y-77668397D01*
X155812245Y-77584954D01*
X155899239Y-77457634D01*
X155929844Y-77306500D01*
X155929844Y-75306500D01*
X155903277Y-75165310D01*
X155819834Y-75035635D01*
X155692514Y-74948641D01*
X155541380Y-74918036D01*
X153841380Y-74918036D01*
X153700190Y-74944603D01*
X153570515Y-75028046D01*
X153483521Y-75155366D01*
X153452916Y-75306500D01*
X153452916Y-77306500D01*
X153479483Y-77447690D01*
X153555151Y-77565283D01*
X152785707Y-78334727D01*
X152804793Y-78306163D01*
X152898497Y-77835080D01*
X152804793Y-77363997D01*
X152537945Y-76964632D01*
X152138580Y-76697784D01*
X151667497Y-76604080D01*
X151619263Y-76604080D01*
X151148180Y-76697784D01*
X150748815Y-76964632D01*
X150591493Y-77200080D01*
X149415800Y-77200080D01*
X149172796Y-77248416D01*
X148966787Y-77386067D01*
X144164947Y-82187907D01*
X144184033Y-82159343D01*
X144277737Y-81688260D01*
X144184033Y-81217177D01*
X143917185Y-80817812D01*
X143517820Y-80550964D01*
X143046737Y-80457260D01*
X142998503Y-80457260D01*
X142740889Y-80508503D01*
X142498856Y-80266470D01*
X142527420Y-80285556D01*
X142998503Y-80379260D01*
X143046737Y-80379260D01*
X143517820Y-80285556D01*
X143917185Y-80018708D01*
X144184033Y-79619343D01*
X144277737Y-79148260D01*
X144184033Y-78677177D01*
X143917185Y-78277812D01*
X143517820Y-78010964D01*
X143046737Y-77917260D01*
X142998503Y-77917260D01*
X142740889Y-77968503D01*
X142498856Y-77726470D01*
X142527420Y-77745556D01*
X142998503Y-77839260D01*
X143046737Y-77839260D01*
X143517820Y-77745556D01*
X143917185Y-77478708D01*
X144184033Y-77079343D01*
X144277737Y-76608260D01*
X144184033Y-76137177D01*
X143917185Y-75737812D01*
X143517820Y-75470964D01*
X143046737Y-75377260D01*
X142998503Y-75377260D01*
X142740889Y-75428503D01*
X142498856Y-75186470D01*
X142527420Y-75205556D01*
X142998503Y-75299260D01*
X143046737Y-75299260D01*
X143517820Y-75205556D01*
X143917185Y-74938708D01*
X144184033Y-74539343D01*
X144202783Y-74445080D01*
X150404916Y-74445080D01*
X150404916Y-76145080D01*
X150431483Y-76286270D01*
X150514926Y-76415945D01*
X150642246Y-76502939D01*
X150793380Y-76533544D01*
X152493380Y-76533544D01*
X152634570Y-76506977D01*
X152764245Y-76423534D01*
X152851239Y-76296214D01*
X152881844Y-76145080D01*
X152881844Y-74954642D01*
X153002553Y-74833933D01*
X153140204Y-74627924D01*
X153188541Y-74384920D01*
X153188540Y-74384915D01*
X153188540Y-73866544D01*
X153553540Y-73866544D01*
X153694730Y-73839977D01*
X153824405Y-73756534D01*
X153911399Y-73629214D01*
X153942004Y-73478080D01*
X153942004Y-71778080D01*
X153915437Y-71636890D01*
X153831994Y-71507215D01*
X153704674Y-71420221D01*
X153553540Y-71389616D01*
X151553540Y-71389616D01*
X151412350Y-71416183D01*
X151282675Y-71499626D01*
X151195681Y-71626946D01*
X151165076Y-71778080D01*
X151165076Y-73478080D01*
X151191643Y-73619270D01*
X151275086Y-73748945D01*
X151402406Y-73835939D01*
X151553540Y-73866544D01*
X151918540Y-73866544D01*
X151918540Y-74056616D01*
X150793380Y-74056616D01*
X150652190Y-74083183D01*
X150522515Y-74166626D01*
X150435521Y-74293946D01*
X150404916Y-74445080D01*
X144202783Y-74445080D01*
X144277737Y-74068260D01*
X144184033Y-73597177D01*
X143917185Y-73197812D01*
X143517820Y-72930964D01*
X143431682Y-72913830D01*
X146918540Y-72913830D01*
X146918540Y-73604390D01*
X147015213Y-73837779D01*
X147193842Y-74016407D01*
X147427231Y-74113080D01*
X148267790Y-74113080D01*
X148426540Y-73954330D01*
X148426540Y-72755080D01*
X148680540Y-72755080D01*
X148680540Y-73954330D01*
X148839290Y-74113080D01*
X149679849Y-74113080D01*
X149913238Y-74016407D01*
X150091867Y-73837779D01*
X150188540Y-73604390D01*
X150188540Y-72913830D01*
X150029790Y-72755080D01*
X148680540Y-72755080D01*
X148426540Y-72755080D01*
X147077290Y-72755080D01*
X146918540Y-72913830D01*
X143431682Y-72913830D01*
X143046737Y-72837260D01*
X142998503Y-72837260D01*
X142740889Y-72888503D01*
X142498856Y-72646470D01*
X142527420Y-72665556D01*
X142998503Y-72759260D01*
X143046737Y-72759260D01*
X143517820Y-72665556D01*
X143917185Y-72398708D01*
X144184033Y-71999343D01*
X144253169Y-71651770D01*
X146918540Y-71651770D01*
X146918540Y-72342330D01*
X147077290Y-72501080D01*
X148426540Y-72501080D01*
X148426540Y-71301830D01*
X148680540Y-71301830D01*
X148680540Y-72501080D01*
X150029790Y-72501080D01*
X150188540Y-72342330D01*
X150188540Y-71651770D01*
X150091867Y-71418381D01*
X149913238Y-71239753D01*
X149679849Y-71143080D01*
X148839290Y-71143080D01*
X148680540Y-71301830D01*
X148426540Y-71301830D01*
X148267790Y-71143080D01*
X147427231Y-71143080D01*
X147193842Y-71239753D01*
X147015213Y-71418381D01*
X146918540Y-71651770D01*
X144253169Y-71651770D01*
X144277737Y-71528260D01*
X144184033Y-71057177D01*
X143917185Y-70657812D01*
X143517820Y-70390964D01*
X143046737Y-70297260D01*
X142998503Y-70297260D01*
X142527420Y-70390964D01*
X142128055Y-70657812D01*
X142015927Y-70825622D01*
X140813565Y-69623260D01*
X141970733Y-69623260D01*
X142128055Y-69858708D01*
X142527420Y-70125556D01*
X142998503Y-70219260D01*
X143046737Y-70219260D01*
X143517820Y-70125556D01*
X143917185Y-69858708D01*
X144184033Y-69459343D01*
X144277737Y-68988260D01*
X144184033Y-68517177D01*
X143917185Y-68117812D01*
X143517820Y-67850964D01*
X143046737Y-67757260D01*
X142998503Y-67757260D01*
X142527420Y-67850964D01*
X142498856Y-67870050D01*
X142740889Y-67628017D01*
X142998503Y-67679260D01*
X143046737Y-67679260D01*
X143517820Y-67585556D01*
X143917185Y-67318708D01*
X144184033Y-66919343D01*
X144277737Y-66448260D01*
X144184033Y-65977177D01*
X143917185Y-65577812D01*
X143517820Y-65310964D01*
X143046737Y-65217260D01*
X142998503Y-65217260D01*
X142527420Y-65310964D01*
X142128055Y-65577812D01*
X141861207Y-65977177D01*
X141767503Y-66448260D01*
X141826748Y-66746106D01*
X141681954Y-66890900D01*
X139472899Y-66890900D01*
X139715903Y-66842564D01*
X139921912Y-66704913D01*
X142015927Y-64610898D01*
X142128055Y-64778708D01*
X142527420Y-65045556D01*
X142998503Y-65139260D01*
X143046737Y-65139260D01*
X143517820Y-65045556D01*
X143917185Y-64778708D01*
X144184033Y-64379343D01*
X144277737Y-63908260D01*
X144184033Y-63437177D01*
X144046604Y-63231500D01*
X147626036Y-63231500D01*
X147626036Y-64931500D01*
X147652603Y-65072690D01*
X147736046Y-65202365D01*
X147863366Y-65289359D01*
X148014500Y-65319964D01*
X149714500Y-65319964D01*
X149855690Y-65293397D01*
X149985365Y-65209954D01*
X150072359Y-65082634D01*
X150102964Y-64931500D01*
X150102964Y-63231500D01*
X150076397Y-63090310D01*
X149992954Y-62960635D01*
X149865634Y-62873641D01*
X149714500Y-62843036D01*
X148014500Y-62843036D01*
X147873310Y-62869603D01*
X147743635Y-62953046D01*
X147656641Y-63080366D01*
X147626036Y-63231500D01*
X144046604Y-63231500D01*
X143917185Y-63037812D01*
X143517820Y-62770964D01*
X143046737Y-62677260D01*
X142998503Y-62677260D01*
X142527420Y-62770964D01*
X142498854Y-62790051D01*
X142740888Y-62548017D01*
X142998503Y-62599260D01*
X143046737Y-62599260D01*
X143517820Y-62505556D01*
X143917185Y-62238708D01*
X144184033Y-61839343D01*
X144243277Y-61541500D01*
X147609383Y-61541500D01*
X147703087Y-62012583D01*
X147969935Y-62411948D01*
X148369300Y-62678796D01*
X148840383Y-62772500D01*
X148888617Y-62772500D01*
X149359700Y-62678796D01*
X149759065Y-62411948D01*
X150025913Y-62012583D01*
X150119617Y-61541500D01*
X150025913Y-61070417D01*
X149759065Y-60671052D01*
X149359700Y-60404204D01*
X148888617Y-60310500D01*
X148840383Y-60310500D01*
X148369300Y-60404204D01*
X147969935Y-60671052D01*
X147703087Y-61070417D01*
X147609383Y-61541500D01*
X144243277Y-61541500D01*
X144277737Y-61368260D01*
X144184033Y-60897177D01*
X143917185Y-60497812D01*
X143517820Y-60230964D01*
X143046737Y-60137260D01*
X142998503Y-60137260D01*
X142527420Y-60230964D01*
X142498856Y-60250050D01*
X142740889Y-60008017D01*
X142998503Y-60059260D01*
X143046737Y-60059260D01*
X143517820Y-59965556D01*
X143917185Y-59698708D01*
X144184033Y-59299343D01*
X144277737Y-58828260D01*
X144184033Y-58357177D01*
X143917185Y-57957812D01*
X143517820Y-57690964D01*
X143046737Y-57597260D01*
X142998503Y-57597260D01*
X142527420Y-57690964D01*
X142498856Y-57710050D01*
X142740889Y-57468017D01*
X142998503Y-57519260D01*
X143046737Y-57519260D01*
X143517820Y-57425556D01*
X143917185Y-57158708D01*
X144184033Y-56759343D01*
X144277737Y-56288260D01*
X144184033Y-55817177D01*
X143917185Y-55417812D01*
X143517820Y-55150964D01*
X143046737Y-55057260D01*
X142998503Y-55057260D01*
X142527420Y-55150964D01*
X142498856Y-55170050D01*
X142740889Y-54928017D01*
X142998503Y-54979260D01*
X143046737Y-54979260D01*
X143517820Y-54885556D01*
X143917185Y-54618708D01*
X144184033Y-54219343D01*
X144277737Y-53748260D01*
X144184033Y-53277177D01*
X144164947Y-53248613D01*
X147925928Y-57009594D01*
X148131937Y-57147245D01*
X148374941Y-57195581D01*
X151561261Y-57195581D01*
X151804265Y-57147245D01*
X152010274Y-57009594D01*
X152477224Y-56542644D01*
X152506140Y-56542644D01*
X152647330Y-56516077D01*
X152772776Y-56435355D01*
X152885006Y-56512039D01*
X153036140Y-56542644D01*
X153776140Y-56542644D01*
X153917330Y-56516077D01*
X154042776Y-56435355D01*
X154155006Y-56512039D01*
X154306140Y-56542644D01*
X155046140Y-56542644D01*
X155187330Y-56516077D01*
X155312776Y-56435355D01*
X155425006Y-56512039D01*
X155576140Y-56542644D01*
X156316140Y-56542644D01*
X156457330Y-56516077D01*
X156587005Y-56432634D01*
X156673999Y-56305314D01*
X156704604Y-56154180D01*
X156704604Y-53873742D01*
X157273150Y-53305195D01*
X157273153Y-53305193D01*
X157410804Y-53099184D01*
X157426922Y-53018155D01*
X157439660Y-52954117D01*
X157439660Y-90550554D01*
X153298404Y-94691810D01*
X153298404Y-94620300D01*
X153271837Y-94479110D01*
X153188394Y-94349435D01*
X153061074Y-94262441D01*
X152909940Y-94231836D01*
X151209940Y-94231836D01*
X151068750Y-94258403D01*
X150939075Y-94341846D01*
X150852081Y-94469166D01*
X150821476Y-94620300D01*
X150821476Y-96320300D01*
X150848043Y-96461490D01*
X150931486Y-96591165D01*
X151058806Y-96678159D01*
X151209940Y-96708764D01*
X151297940Y-96708764D01*
X151297940Y-99445073D01*
X151062492Y-99602395D01*
X150795644Y-100001760D01*
X150701940Y-100472843D01*
X150701940Y-100521077D01*
X150795644Y-100992160D01*
X151062492Y-101391525D01*
X151461857Y-101658373D01*
X151932940Y-101752077D01*
X152404023Y-101658373D01*
X152803388Y-101391525D01*
X153070236Y-100992160D01*
X153163940Y-100521077D01*
X153163940Y-100472843D01*
X153070236Y-100001760D01*
X152803388Y-99602395D01*
X152567940Y-99445073D01*
X152567940Y-96708764D01*
X152909940Y-96708764D01*
X153051130Y-96682197D01*
X153180805Y-96598754D01*
X153267799Y-96471434D01*
X153298404Y-96320300D01*
X153298404Y-96105300D01*
X153417940Y-96105300D01*
X153660944Y-96056964D01*
X153866953Y-95919313D01*
X158523673Y-91262593D01*
X158661324Y-91056584D01*
X158709661Y-90813580D01*
X158709660Y-90813575D01*
X158709660Y-35549160D01*
X158661324Y-35306156D01*
X158523673Y-35100147D01*
X158317664Y-34962496D01*
X158074660Y-34914160D01*
X152989580Y-34914160D01*
X152746575Y-34962496D01*
X152540567Y-35100147D01*
X151889404Y-35751310D01*
X151778828Y-35796999D01*
X151587093Y-35988401D01*
X151483198Y-36238606D01*
X151482962Y-36509525D01*
X151501140Y-36553519D01*
X151501140Y-36705888D01*
X151362449Y-36648440D01*
X151151890Y-36648440D01*
X150993140Y-36807190D01*
X150993140Y-38551440D01*
X151013140Y-38551440D01*
X151013140Y-38805440D01*
X150993140Y-38805440D01*
X150993140Y-38825440D01*
X150739140Y-38825440D01*
X150739140Y-38805440D01*
X150019890Y-38805440D01*
X149861140Y-38964190D01*
X149861140Y-40050040D01*
X149421049Y-40050040D01*
X149310554Y-40004158D01*
X149039635Y-40003922D01*
X148789248Y-40107379D01*
X148597513Y-40298781D01*
X148493618Y-40548986D01*
X148493574Y-40599608D01*
X148493213Y-40599247D01*
X148287204Y-40461596D01*
X148044200Y-40413260D01*
X144074507Y-40413260D01*
X143917185Y-40177812D01*
X143640984Y-39993260D01*
X143998929Y-39993260D01*
X144232318Y-39896587D01*
X144410947Y-39717959D01*
X144507620Y-39484570D01*
X144507620Y-38794010D01*
X144348870Y-38635260D01*
X143149620Y-38635260D01*
X143149620Y-38655260D01*
X142895620Y-38655260D01*
X142895620Y-38635260D01*
X141696370Y-38635260D01*
X141537620Y-38794010D01*
X141537620Y-39484570D01*
X141634293Y-39717959D01*
X141812922Y-39896587D01*
X142046311Y-39993260D01*
X142404256Y-39993260D01*
X142128055Y-40177812D01*
X141861207Y-40577177D01*
X141767503Y-41048260D01*
X141826748Y-41346106D01*
X135485388Y-47687466D01*
X135347737Y-47893475D01*
X135299401Y-48136479D01*
X135299401Y-52570900D01*
X134595806Y-52570900D01*
X134399069Y-52507591D01*
X133988682Y-52541058D01*
X133916637Y-52570900D01*
X133325806Y-52570900D01*
X133129069Y-52507591D01*
X132718682Y-52541058D01*
X132494977Y-52633720D01*
X132474483Y-52803515D01*
X132392630Y-52721662D01*
X132373000Y-52741292D01*
X132353370Y-52721662D01*
X132271517Y-52803515D01*
X132251023Y-52633720D01*
X131859069Y-52507591D01*
X131448682Y-52541058D01*
X131376637Y-52570900D01*
X130785806Y-52570900D01*
X130589069Y-52507591D01*
X130178682Y-52541058D01*
X130106637Y-52570900D01*
X129091690Y-52570900D01*
X128858301Y-52667573D01*
X128679673Y-52846202D01*
X128583000Y-53079591D01*
X51446599Y-53079591D01*
X51446599Y-48405239D01*
X51415748Y-48250140D01*
X51398263Y-48162234D01*
X51260612Y-47956226D01*
X44531112Y-41226726D01*
X44590357Y-40928880D01*
X44496653Y-40457797D01*
X44229805Y-40058432D01*
X43953604Y-39873880D01*
X44311549Y-39873880D01*
X44544938Y-39777207D01*
X44723567Y-39598579D01*
X44820240Y-39365190D01*
X44820240Y-38674630D01*
X44762110Y-38616500D01*
X146234383Y-38616500D01*
X146328087Y-39087583D01*
X146594935Y-39486948D01*
X146994300Y-39753796D01*
X147465383Y-39847500D01*
X147513617Y-39847500D01*
X147984700Y-39753796D01*
X148384065Y-39486948D01*
X148650913Y-39087583D01*
X148744617Y-38616500D01*
X148650913Y-38145417D01*
X148384065Y-37746052D01*
X147984700Y-37479204D01*
X147513617Y-37385500D01*
X147465383Y-37385500D01*
X146994300Y-37479204D01*
X146594935Y-37746052D01*
X146328087Y-38145417D01*
X146234383Y-38616500D01*
X44762110Y-38616500D01*
X44661490Y-38515880D01*
X43462240Y-38515880D01*
X43462240Y-38535880D01*
X43208240Y-38535880D01*
X43208240Y-38515880D01*
X42008990Y-38515880D01*
X41850240Y-38674630D01*
X41850240Y-39365190D01*
X41946913Y-39598579D01*
X42125542Y-39777207D01*
X42358931Y-39873880D01*
X42716876Y-39873880D01*
X42440675Y-40058432D01*
X42173827Y-40457797D01*
X42080123Y-40928880D01*
X42173827Y-41399963D01*
X42440675Y-41799328D01*
X42840040Y-42066176D01*
X43311123Y-42159880D01*
X43359357Y-42159880D01*
X43616971Y-42108637D01*
X43859004Y-42350670D01*
X43830440Y-42331584D01*
X43359357Y-42237880D01*
X43311123Y-42237880D01*
X42840040Y-42331584D01*
X42440675Y-42598432D01*
X42173827Y-42997797D01*
X42080123Y-43468880D01*
X42173827Y-43939963D01*
X42440675Y-44339328D01*
X42840040Y-44606176D01*
X43311123Y-44699880D01*
X43359357Y-44699880D01*
X43616971Y-44648637D01*
X43859004Y-44890670D01*
X43830440Y-44871584D01*
X43359357Y-44777880D01*
X43311123Y-44777880D01*
X42840040Y-44871584D01*
X42683301Y-44976314D01*
X42643830Y-44777880D01*
X42636501Y-44741032D01*
X42416260Y-44411419D01*
X39490500Y-41485660D01*
X39490500Y-41021953D01*
X39615690Y-40998397D01*
X39745365Y-40914954D01*
X39832359Y-40787634D01*
X39862964Y-40636500D01*
X39862964Y-38636500D01*
X39836397Y-38495310D01*
X39752954Y-38365635D01*
X39625634Y-38278641D01*
X39474500Y-38248036D01*
X37474500Y-38248036D01*
X37333310Y-38274603D01*
X37203635Y-38358046D01*
X37116641Y-38485366D01*
X37089276Y-38620500D01*
X36625341Y-38620500D01*
X35417411Y-37412570D01*
X41850240Y-37412570D01*
X41850240Y-38103130D01*
X42008990Y-38261880D01*
X43208240Y-38261880D01*
X43208240Y-37062630D01*
X43462240Y-37062630D01*
X43462240Y-38261880D01*
X44661490Y-38261880D01*
X44820240Y-38103130D01*
X44820240Y-37531950D01*
X141537620Y-37531950D01*
X141537620Y-38222510D01*
X141696370Y-38381260D01*
X142895620Y-38381260D01*
X142895620Y-37182010D01*
X143149620Y-37182010D01*
X143149620Y-38381260D01*
X144348870Y-38381260D01*
X144507620Y-38222510D01*
X144507620Y-37531950D01*
X144410947Y-37298561D01*
X144232318Y-37119933D01*
X143998929Y-37023260D01*
X143308370Y-37023260D01*
X143149620Y-37182010D01*
X142895620Y-37182010D01*
X142736870Y-37023260D01*
X142046311Y-37023260D01*
X141812922Y-37119933D01*
X141634293Y-37298561D01*
X141537620Y-37531950D01*
X44820240Y-37531950D01*
X44820240Y-37412570D01*
X44723567Y-37179181D01*
X44544938Y-37000553D01*
X44311549Y-36903880D01*
X43620990Y-36903880D01*
X43462240Y-37062630D01*
X43208240Y-37062630D01*
X43049490Y-36903880D01*
X42358931Y-36903880D01*
X42125542Y-37000553D01*
X41946913Y-37179181D01*
X41850240Y-37412570D01*
X35417411Y-37412570D01*
X35135519Y-37130679D01*
X34805906Y-36910437D01*
X34728177Y-36894976D01*
X34417099Y-36833099D01*
X32616547Y-36833099D01*
X32227740Y-36910437D01*
X31898127Y-37130678D01*
X31078306Y-37950500D01*
X29421232Y-37950500D01*
X29362864Y-37911500D01*
X29720809Y-37911500D01*
X29954198Y-37814827D01*
X30132827Y-37636199D01*
X30229500Y-37402810D01*
X30229500Y-36712250D01*
X30070750Y-36553500D01*
X28871500Y-36553500D01*
X28871500Y-36573500D01*
X28617500Y-36573500D01*
X28617500Y-36553500D01*
X28597500Y-36553500D01*
X28597500Y-36299500D01*
X28617500Y-36299500D01*
X28617500Y-35100250D01*
X28871500Y-35100250D01*
X28871500Y-36299500D01*
X30070750Y-36299500D01*
X30229500Y-36140750D01*
X30229500Y-35450190D01*
X30136845Y-35226500D01*
X146251036Y-35226500D01*
X146251036Y-36926500D01*
X146277603Y-37067690D01*
X146361046Y-37197365D01*
X146488366Y-37284359D01*
X146639500Y-37314964D01*
X148339500Y-37314964D01*
X148480690Y-37288397D01*
X148610365Y-37204954D01*
X148643041Y-37157130D01*
X149861140Y-37157130D01*
X149861140Y-38392690D01*
X150019890Y-38551440D01*
X150739140Y-38551440D01*
X150739140Y-36807190D01*
X150580390Y-36648440D01*
X150369831Y-36648440D01*
X150136442Y-36745113D01*
X149957813Y-36923741D01*
X149861140Y-37157130D01*
X148643041Y-37157130D01*
X148697359Y-37077634D01*
X148727964Y-36926500D01*
X148727964Y-35226500D01*
X148701397Y-35085310D01*
X148617954Y-34955635D01*
X148490634Y-34868641D01*
X148339500Y-34838036D01*
X146639500Y-34838036D01*
X146498310Y-34864603D01*
X146368635Y-34948046D01*
X146281641Y-35075366D01*
X146251036Y-35226500D01*
X30136845Y-35226500D01*
X30132827Y-35216801D01*
X29954198Y-35038173D01*
X29720809Y-34941500D01*
X29030250Y-34941500D01*
X28871500Y-35100250D01*
X28617500Y-35100250D01*
X28458750Y-34941500D01*
X27768191Y-34941500D01*
X27534802Y-35038173D01*
X27460447Y-35112527D01*
X27460478Y-34456000D01*
X159551559Y-34456000D01*
X159544021Y-118544000D01*
X159544021Y-118544000D01*
G37*
X159544021Y-118544000D02*
X27456521Y-118544000D01*
X27456777Y-113096828D01*
X30082777Y-113096828D01*
X30678556Y-113787641D01*
X32763537Y-114694265D01*
X35036758Y-114733989D01*
X37152142Y-113900765D01*
X37321444Y-113787641D01*
X37917223Y-113096828D01*
X34000000Y-109179605D01*
X30082777Y-113096828D01*
X27456777Y-113096828D01*
X27456921Y-110036758D01*
X28266011Y-110036758D01*
X29099235Y-112152142D01*
X29212359Y-112321444D01*
X29903172Y-112917223D01*
X33820395Y-109000000D01*
X34179605Y-109000000D01*
X38096828Y-112917223D01*
X38689863Y-112405770D01*
X41893764Y-112405770D01*
X42063595Y-112815804D01*
X42453882Y-113244063D01*
X42978348Y-113490366D01*
X43208240Y-113369699D01*
X43208240Y-112175880D01*
X43462240Y-112175880D01*
X43462240Y-113369699D01*
X43692132Y-113490366D01*
X44216598Y-113244063D01*
X44606885Y-112815804D01*
X44727270Y-112525150D01*
X141581144Y-112525150D01*
X141750975Y-112935184D01*
X142141262Y-113363443D01*
X142665728Y-113609746D01*
X142895620Y-113489079D01*
X142895620Y-112295260D01*
X143149620Y-112295260D01*
X143149620Y-113489079D01*
X143379512Y-113609746D01*
X143903978Y-113363443D01*
X144294265Y-112935184D01*
X144464096Y-112525150D01*
X144342775Y-112295260D01*
X143149620Y-112295260D01*
X142895620Y-112295260D01*
X141702465Y-112295260D01*
X141581144Y-112525150D01*
X44727270Y-112525150D01*
X44776716Y-112405770D01*
X44655395Y-112175880D01*
X43462240Y-112175880D01*
X43208240Y-112175880D01*
X42015085Y-112175880D01*
X41893764Y-112405770D01*
X38689863Y-112405770D01*
X38787641Y-112321444D01*
X39061350Y-111691990D01*
X41893764Y-111691990D01*
X42015085Y-111921880D01*
X43208240Y-111921880D01*
X43208240Y-111901880D01*
X43462240Y-111901880D01*
X43462240Y-111921880D01*
X44655395Y-111921880D01*
X44776716Y-111691990D01*
X44606885Y-111281956D01*
X44216598Y-110853697D01*
X43791293Y-110653963D01*
X43830440Y-110646176D01*
X44229805Y-110379328D01*
X44493187Y-109985150D01*
X141581144Y-109985150D01*
X141750975Y-110395184D01*
X142141262Y-110823443D01*
X142300574Y-110898260D01*
X142141262Y-110973077D01*
X141750975Y-111401336D01*
X141581144Y-111811370D01*
X141702465Y-112041260D01*
X142895620Y-112041260D01*
X142895620Y-109755260D01*
X143149620Y-109755260D01*
X143149620Y-112041260D01*
X144342775Y-112041260D01*
X144464096Y-111811370D01*
X144294265Y-111401336D01*
X143903978Y-110973077D01*
X143744666Y-110898260D01*
X143903978Y-110823443D01*
X144294265Y-110395184D01*
X144464096Y-109985150D01*
X144342775Y-109755260D01*
X143149620Y-109755260D01*
X142895620Y-109755260D01*
X141702465Y-109755260D01*
X141581144Y-109985150D01*
X44493187Y-109985150D01*
X44496653Y-109979963D01*
X44590357Y-109508880D01*
X44543114Y-109271370D01*
X141581144Y-109271370D01*
X141702465Y-109501260D01*
X142895620Y-109501260D01*
X142895620Y-109481260D01*
X143149620Y-109481260D01*
X143149620Y-109501260D01*
X144342775Y-109501260D01*
X144464096Y-109271370D01*
X144294265Y-108861336D01*
X143903978Y-108433077D01*
X143478673Y-108233343D01*
X143517820Y-108225556D01*
X143917185Y-107958708D01*
X144184033Y-107559343D01*
X144277737Y-107088260D01*
X144184033Y-106617177D01*
X143917185Y-106217812D01*
X143517820Y-105950964D01*
X143046737Y-105857260D01*
X142998503Y-105857260D01*
X142527420Y-105950964D01*
X142128055Y-106217812D01*
X141861207Y-106617177D01*
X141767503Y-107088260D01*
X141861207Y-107559343D01*
X142128055Y-107958708D01*
X142527420Y-108225556D01*
X142566567Y-108233343D01*
X142141262Y-108433077D01*
X141750975Y-108861336D01*
X141581144Y-109271370D01*
X44543114Y-109271370D01*
X44496653Y-109037797D01*
X44229805Y-108638432D01*
X43830440Y-108371584D01*
X43359357Y-108277880D01*
X43311123Y-108277880D01*
X42840040Y-108371584D01*
X42440675Y-108638432D01*
X42173827Y-109037797D01*
X42080123Y-109508880D01*
X42173827Y-109979963D01*
X42440675Y-110379328D01*
X42840040Y-110646176D01*
X42879187Y-110653963D01*
X42453882Y-110853697D01*
X42063595Y-111281956D01*
X41893764Y-111691990D01*
X39061350Y-111691990D01*
X39694265Y-110236463D01*
X39733989Y-107963242D01*
X39342322Y-106968880D01*
X42080123Y-106968880D01*
X42173827Y-107439963D01*
X42440675Y-107839328D01*
X42840040Y-108106176D01*
X43311123Y-108199880D01*
X43359357Y-108199880D01*
X43830440Y-108106176D01*
X44229805Y-107839328D01*
X44496653Y-107439963D01*
X44590357Y-106968880D01*
X44496653Y-106497797D01*
X44229805Y-106098432D01*
X43830440Y-105831584D01*
X43359357Y-105737880D01*
X43311123Y-105737880D01*
X42840040Y-105831584D01*
X42440675Y-106098432D01*
X42173827Y-106497797D01*
X42080123Y-106968880D01*
X39342322Y-106968880D01*
X38900765Y-105847858D01*
X38787641Y-105678556D01*
X38096828Y-105082777D01*
X34179605Y-109000000D01*
X33820395Y-109000000D01*
X29903172Y-105082777D01*
X29212359Y-105678556D01*
X28305735Y-107763537D01*
X28266011Y-110036758D01*
X27456921Y-110036758D01*
X27457162Y-104903172D01*
X30082777Y-104903172D01*
X34000000Y-108820395D01*
X37917223Y-104903172D01*
X37508179Y-104428880D01*
X42080123Y-104428880D01*
X42173827Y-104899963D01*
X42440675Y-105299328D01*
X42840040Y-105566176D01*
X43311123Y-105659880D01*
X43359357Y-105659880D01*
X43830440Y-105566176D01*
X44229805Y-105299328D01*
X44496653Y-104899963D01*
X44566610Y-104548260D01*
X141767503Y-104548260D01*
X141861207Y-105019343D01*
X142128055Y-105418708D01*
X142527420Y-105685556D01*
X142998503Y-105779260D01*
X143046737Y-105779260D01*
X143517820Y-105685556D01*
X143917185Y-105418708D01*
X144184033Y-105019343D01*
X144277737Y-104548260D01*
X144184033Y-104077177D01*
X143917185Y-103677812D01*
X143517820Y-103410964D01*
X143046737Y-103317260D01*
X142998503Y-103317260D01*
X142527420Y-103410964D01*
X142128055Y-103677812D01*
X141861207Y-104077177D01*
X141767503Y-104548260D01*
X44566610Y-104548260D01*
X44590357Y-104428880D01*
X44496653Y-103957797D01*
X44229805Y-103558432D01*
X43830440Y-103291584D01*
X43359357Y-103197880D01*
X43311123Y-103197880D01*
X42840040Y-103291584D01*
X42440675Y-103558432D01*
X42173827Y-103957797D01*
X42080123Y-104428880D01*
X37508179Y-104428880D01*
X37321444Y-104212359D01*
X35236463Y-103305735D01*
X32963242Y-103266011D01*
X30847858Y-104099235D01*
X30678556Y-104212359D01*
X30082777Y-104903172D01*
X27457162Y-104903172D01*
X27457483Y-98081494D01*
X28538054Y-98081494D01*
X29367690Y-100089367D01*
X30902553Y-101626911D01*
X32908974Y-102460050D01*
X35081494Y-102461946D01*
X36468420Y-101888880D01*
X42080123Y-101888880D01*
X42173827Y-102359963D01*
X42440675Y-102759328D01*
X42840040Y-103026176D01*
X43311123Y-103119880D01*
X43359357Y-103119880D01*
X43830440Y-103026176D01*
X44229805Y-102759328D01*
X44496653Y-102359963D01*
X44566610Y-102008260D01*
X141767503Y-102008260D01*
X141861207Y-102479343D01*
X142128055Y-102878708D01*
X142527420Y-103145556D01*
X142998503Y-103239260D01*
X143046737Y-103239260D01*
X143517820Y-103145556D01*
X143917185Y-102878708D01*
X144184033Y-102479343D01*
X144277737Y-102008260D01*
X144184033Y-101537177D01*
X143917185Y-101137812D01*
X143517820Y-100870964D01*
X143046737Y-100777260D01*
X142998503Y-100777260D01*
X142527420Y-100870964D01*
X142128055Y-101137812D01*
X141861207Y-101537177D01*
X141767503Y-102008260D01*
X44566610Y-102008260D01*
X44590357Y-101888880D01*
X44496653Y-101417797D01*
X44229805Y-101018432D01*
X43830440Y-100751584D01*
X43359357Y-100657880D01*
X43311123Y-100657880D01*
X42840040Y-100751584D01*
X42440675Y-101018432D01*
X42173827Y-101417797D01*
X42080123Y-101888880D01*
X36468420Y-101888880D01*
X37089367Y-101632310D01*
X38626911Y-100097447D01*
X39460050Y-98091026D01*
X39461946Y-95918506D01*
X38632310Y-93910633D01*
X37097447Y-92373089D01*
X35091026Y-91539950D01*
X32918506Y-91538054D01*
X30910633Y-92367690D01*
X29373089Y-93902553D01*
X28539950Y-95908974D01*
X28538054Y-98081494D01*
X27457483Y-98081494D01*
X27458047Y-86081494D01*
X28538054Y-86081494D01*
X29367690Y-88089367D01*
X30902553Y-89626911D01*
X32908974Y-90460050D01*
X35081494Y-90461946D01*
X37089367Y-89632310D01*
X38626911Y-88097447D01*
X39460050Y-86091026D01*
X39461946Y-83918506D01*
X38632310Y-81910633D01*
X37097447Y-80373089D01*
X35091026Y-79539950D01*
X32918506Y-79538054D01*
X30910633Y-80367690D01*
X29373089Y-81902553D01*
X28539950Y-83908974D01*
X28538054Y-86081494D01*
X27458047Y-86081494D01*
X27458612Y-74081494D01*
X28538054Y-74081494D01*
X29367690Y-76089367D01*
X30902553Y-77626911D01*
X32908974Y-78460050D01*
X35081494Y-78461946D01*
X37089367Y-77632310D01*
X38626911Y-76097447D01*
X39460050Y-74091026D01*
X39461946Y-71918506D01*
X38632310Y-69910633D01*
X37097447Y-68373089D01*
X35091026Y-67539950D01*
X32918506Y-67538054D01*
X30910633Y-68367690D01*
X29373089Y-69902553D01*
X28539950Y-71908974D01*
X28538054Y-74081494D01*
X27458612Y-74081494D01*
X27459192Y-61739032D01*
X32571573Y-61739032D01*
X32670236Y-62005887D01*
X33279961Y-62232408D01*
X33929960Y-62208356D01*
X34418764Y-62005887D01*
X34517427Y-61739032D01*
X33544500Y-60766105D01*
X32571573Y-61739032D01*
X27459192Y-61739032D01*
X27459259Y-60321961D01*
X31898592Y-60321961D01*
X31922644Y-60971960D01*
X32125113Y-61460764D01*
X32391968Y-61559427D01*
X33364895Y-60586500D01*
X33724105Y-60586500D01*
X34697032Y-61559427D01*
X34963887Y-61460764D01*
X35190408Y-60851039D01*
X35166356Y-60201040D01*
X34963887Y-59712236D01*
X34697032Y-59613573D01*
X33724105Y-60586500D01*
X33364895Y-60586500D01*
X32391968Y-59613573D01*
X32125113Y-59712236D01*
X31898592Y-60321961D01*
X27459259Y-60321961D01*
X27459300Y-59433968D01*
X32571573Y-59433968D01*
X33544500Y-60406895D01*
X34517427Y-59433968D01*
X34418764Y-59167113D01*
X33809039Y-58940592D01*
X33159040Y-58964644D01*
X32670236Y-59167113D01*
X32571573Y-59433968D01*
X27459300Y-59433968D01*
X27459687Y-51249032D01*
X32561573Y-51249032D01*
X32660236Y-51515887D01*
X33269961Y-51742408D01*
X33919960Y-51718356D01*
X34408764Y-51515887D01*
X34507427Y-51249032D01*
X33534500Y-50276105D01*
X32561573Y-51249032D01*
X27459687Y-51249032D01*
X27459754Y-49831961D01*
X31888592Y-49831961D01*
X31912644Y-50481960D01*
X32115113Y-50970764D01*
X32381968Y-51069427D01*
X33354895Y-50096500D01*
X32381968Y-49123573D01*
X32115113Y-49222236D01*
X31888592Y-49831961D01*
X27459754Y-49831961D01*
X27460324Y-37740349D01*
X27534802Y-37814827D01*
X27768191Y-37911500D01*
X28126136Y-37911500D01*
X27849935Y-38096052D01*
X27583087Y-38495417D01*
X27489383Y-38966500D01*
X27583087Y-39437583D01*
X27849935Y-39836948D01*
X28249300Y-40103796D01*
X28720383Y-40197500D01*
X28768617Y-40197500D01*
X29239700Y-40103796D01*
X29421232Y-39982500D01*
X31499146Y-39982500D01*
X31823446Y-39917993D01*
X31848612Y-39912987D01*
X31852644Y-40021960D01*
X32055113Y-40510764D01*
X32321968Y-40609427D01*
X33294895Y-39636500D01*
X33280753Y-39622358D01*
X33460358Y-39442753D01*
X33474500Y-39456895D01*
X33488643Y-39442753D01*
X33668248Y-39622358D01*
X33654105Y-39636500D01*
X34627032Y-40609427D01*
X34893887Y-40510764D01*
X35096514Y-39965355D01*
X35486080Y-40354921D01*
X35815693Y-40575162D01*
X35880200Y-40587993D01*
X36204500Y-40652500D01*
X37089047Y-40652500D01*
X37112603Y-40777690D01*
X37196046Y-40907365D01*
X37323366Y-40994359D01*
X37458500Y-41021724D01*
X37458500Y-41906500D01*
X37521837Y-42224920D01*
X37535838Y-42295307D01*
X37756080Y-42624920D01*
X40681839Y-45550680D01*
X40681839Y-54531479D01*
X40703481Y-54640281D01*
X39550500Y-53487300D01*
X39550500Y-51481953D01*
X39675690Y-51458397D01*
X39805365Y-51374954D01*
X39892359Y-51247634D01*
X39922964Y-51096500D01*
X39922964Y-49096500D01*
X39896397Y-48955310D01*
X39812954Y-48825635D01*
X39685634Y-48738641D01*
X39534500Y-48708036D01*
X38582877Y-48708036D01*
X31512919Y-41638079D01*
X31183306Y-41417837D01*
X31093446Y-41399963D01*
X30794499Y-41340499D01*
X30015340Y-41340499D01*
X29954495Y-41279654D01*
X29905913Y-41035417D01*
X29741284Y-40789032D01*
X32501573Y-40789032D01*
X32600236Y-41055887D01*
X33209961Y-41282408D01*
X33859960Y-41258356D01*
X34348764Y-41055887D01*
X34447427Y-40789032D01*
X33474500Y-39816105D01*
X32501573Y-40789032D01*
X29741284Y-40789032D01*
X29639065Y-40636052D01*
X29239700Y-40369204D01*
X28768617Y-40275500D01*
X28720383Y-40275500D01*
X28249300Y-40369204D01*
X27849935Y-40636052D01*
X27583087Y-41035417D01*
X27489383Y-41506500D01*
X27583087Y-41977583D01*
X27849935Y-42376948D01*
X28249300Y-42643796D01*
X28493537Y-42692378D01*
X28633868Y-42832709D01*
X28249300Y-42909204D01*
X27849935Y-43176052D01*
X27583087Y-43575417D01*
X27489383Y-44046500D01*
X27583087Y-44517583D01*
X27849935Y-44916948D01*
X28249300Y-45183796D01*
X28493537Y-45232378D01*
X28876078Y-45614919D01*
X29205692Y-45835161D01*
X29245233Y-45843026D01*
X29594499Y-45912499D01*
X30559013Y-45912499D01*
X33129324Y-48482811D01*
X32660236Y-48677113D01*
X32561573Y-48943968D01*
X33534500Y-49916895D01*
X33548643Y-49902753D01*
X33728248Y-50082358D01*
X33714105Y-50096500D01*
X34687032Y-51069427D01*
X34953887Y-50970764D01*
X35133585Y-50487072D01*
X35688500Y-51041987D01*
X35688500Y-56476500D01*
X35744761Y-56759343D01*
X35765838Y-56865307D01*
X35986080Y-57194920D01*
X37528500Y-58737341D01*
X37528500Y-59201047D01*
X37403310Y-59224603D01*
X37273635Y-59308046D01*
X37186641Y-59435366D01*
X37156036Y-59586500D01*
X37156036Y-61586500D01*
X37182603Y-61727690D01*
X37266046Y-61857365D01*
X37393366Y-61944359D01*
X37544500Y-61974964D01*
X39544500Y-61974964D01*
X39685690Y-61948397D01*
X39815365Y-61864954D01*
X39879950Y-61770430D01*
X42125245Y-64015726D01*
X42173827Y-64259963D01*
X42440675Y-64659328D01*
X42446240Y-64663046D01*
X42446240Y-65454714D01*
X42440675Y-65458432D01*
X42173827Y-65857797D01*
X42080123Y-66328880D01*
X42173827Y-66799963D01*
X42440675Y-67199328D01*
X42840040Y-67466176D01*
X43311123Y-67559880D01*
X43359357Y-67559880D01*
X43616971Y-67508637D01*
X43859004Y-67750670D01*
X43830440Y-67731584D01*
X43359357Y-67637880D01*
X43311123Y-67637880D01*
X42840040Y-67731584D01*
X42440675Y-67998432D01*
X42173827Y-68397797D01*
X42080123Y-68868880D01*
X42173827Y-69339963D01*
X42440675Y-69739328D01*
X42840040Y-70006176D01*
X43311123Y-70099880D01*
X43359357Y-70099880D01*
X43830440Y-70006176D01*
X43859006Y-69987089D01*
X43616972Y-70229123D01*
X43359357Y-70177880D01*
X43311123Y-70177880D01*
X42840040Y-70271584D01*
X42440675Y-70538432D01*
X42173827Y-70937797D01*
X42080123Y-71408880D01*
X42173827Y-71879963D01*
X42440675Y-72279328D01*
X42840040Y-72546176D01*
X43311123Y-72639880D01*
X43359357Y-72639880D01*
X43830440Y-72546176D01*
X43859004Y-72527090D01*
X43616971Y-72769123D01*
X43359357Y-72717880D01*
X43311123Y-72717880D01*
X42840040Y-72811584D01*
X42440675Y-73078432D01*
X42173827Y-73477797D01*
X42080123Y-73948880D01*
X42173827Y-74419963D01*
X42440675Y-74819328D01*
X42840040Y-75086176D01*
X43311123Y-75179880D01*
X43359357Y-75179880D01*
X43830440Y-75086176D01*
X43859004Y-75067090D01*
X43616971Y-75309123D01*
X43359357Y-75257880D01*
X43311123Y-75257880D01*
X42840040Y-75351584D01*
X42440675Y-75618432D01*
X42173827Y-76017797D01*
X42080123Y-76488880D01*
X42173827Y-76959963D01*
X42440675Y-77359328D01*
X42840040Y-77626176D01*
X43311123Y-77719880D01*
X43359357Y-77719880D01*
X43830440Y-77626176D01*
X43859004Y-77607090D01*
X43616971Y-77849123D01*
X43359357Y-77797880D01*
X43311123Y-77797880D01*
X42840040Y-77891584D01*
X42440675Y-78158432D01*
X42173827Y-78557797D01*
X42080123Y-79028880D01*
X42173827Y-79499963D01*
X42440675Y-79899328D01*
X42840040Y-80166176D01*
X43311123Y-80259880D01*
X43359357Y-80259880D01*
X43830440Y-80166176D01*
X43859004Y-80147090D01*
X43616971Y-80389123D01*
X43359357Y-80337880D01*
X43311123Y-80337880D01*
X42840040Y-80431584D01*
X42440675Y-80698432D01*
X42173827Y-81097797D01*
X42080123Y-81568880D01*
X42173827Y-82039963D01*
X42440675Y-82439328D01*
X42840040Y-82706176D01*
X43311123Y-82799880D01*
X43359357Y-82799880D01*
X43830440Y-82706176D01*
X43859005Y-82687090D01*
X43616972Y-82929123D01*
X43359357Y-82877880D01*
X43311123Y-82877880D01*
X42840040Y-82971584D01*
X42440675Y-83238432D01*
X42173827Y-83637797D01*
X42080123Y-84108880D01*
X42173827Y-84579963D01*
X42440675Y-84979328D01*
X42840040Y-85246176D01*
X43311123Y-85339880D01*
X43359357Y-85339880D01*
X43605168Y-85290985D01*
X43598575Y-85300853D01*
X43567078Y-85459198D01*
X43359357Y-85417880D01*
X43311123Y-85417880D01*
X42840040Y-85511584D01*
X42440675Y-85778432D01*
X42173827Y-86177797D01*
X42080123Y-86648880D01*
X42173827Y-87119963D01*
X42440675Y-87519328D01*
X42840040Y-87786176D01*
X43311123Y-87879880D01*
X43359357Y-87879880D01*
X43830440Y-87786176D01*
X43859004Y-87767090D01*
X43616971Y-88009123D01*
X43359357Y-87957880D01*
X43311123Y-87957880D01*
X42840040Y-88051584D01*
X42440675Y-88318432D01*
X42173827Y-88717797D01*
X42080123Y-89188880D01*
X42173827Y-89659963D01*
X42440675Y-90059328D01*
X42840040Y-90326176D01*
X43311123Y-90419880D01*
X43359357Y-90419880D01*
X43830440Y-90326176D01*
X43859004Y-90307090D01*
X43616971Y-90549123D01*
X43359357Y-90497880D01*
X43311123Y-90497880D01*
X42840040Y-90591584D01*
X42440675Y-90858432D01*
X42173827Y-91257797D01*
X42080123Y-91728880D01*
X42173827Y-92199963D01*
X42440675Y-92599328D01*
X42840040Y-92866176D01*
X43311123Y-92959880D01*
X43359357Y-92959880D01*
X43830440Y-92866176D01*
X43859004Y-92847090D01*
X43616971Y-93089123D01*
X43359357Y-93037880D01*
X43311123Y-93037880D01*
X42840040Y-93131584D01*
X42440675Y-93398432D01*
X42173827Y-93797797D01*
X42080123Y-94268880D01*
X42173827Y-94739963D01*
X42440675Y-95139328D01*
X42840040Y-95406176D01*
X43311123Y-95499880D01*
X43359357Y-95499880D01*
X43830440Y-95406176D01*
X43859004Y-95387090D01*
X43616971Y-95629123D01*
X43359357Y-95577880D01*
X43311123Y-95577880D01*
X42840040Y-95671584D01*
X42440675Y-95938432D01*
X42173827Y-96337797D01*
X42080123Y-96808880D01*
X42173827Y-97279963D01*
X42440675Y-97679328D01*
X42840040Y-97946176D01*
X43311123Y-98039880D01*
X43359357Y-98039880D01*
X43830440Y-97946176D01*
X43859004Y-97927090D01*
X43616971Y-98169123D01*
X43359357Y-98117880D01*
X43311123Y-98117880D01*
X42840040Y-98211584D01*
X42440675Y-98478432D01*
X42173827Y-98877797D01*
X42080123Y-99348880D01*
X42173827Y-99819963D01*
X42440675Y-100219328D01*
X42840040Y-100486176D01*
X43311123Y-100579880D01*
X43359357Y-100579880D01*
X43830440Y-100486176D01*
X44229805Y-100219328D01*
X44496653Y-99819963D01*
X44590357Y-99348880D01*
X44531112Y-99051034D01*
X50914033Y-92668113D01*
X51051684Y-92462104D01*
X51100021Y-92219100D01*
X51100020Y-92219095D01*
X51100020Y-89830473D01*
X51218000Y-89854364D01*
X52209857Y-89854364D01*
X52311968Y-89896764D01*
X52622669Y-89897036D01*
X52725943Y-89854364D01*
X53479857Y-89854364D01*
X53547385Y-89882404D01*
X53547357Y-89914382D01*
X53672767Y-90217898D01*
X53904781Y-90450317D01*
X54208077Y-90576257D01*
X54536482Y-90576543D01*
X54839998Y-90451133D01*
X55072417Y-90219119D01*
X55198357Y-89915823D01*
X55198386Y-89882278D01*
X55265943Y-89854364D01*
X56019857Y-89854364D01*
X56121968Y-89896764D01*
X56432669Y-89897036D01*
X56535943Y-89854364D01*
X57528000Y-89854364D01*
X57669190Y-89827797D01*
X57798865Y-89744354D01*
X57885859Y-89617034D01*
X57916464Y-89465900D01*
X57916464Y-88765900D01*
X57889897Y-88624710D01*
X57806454Y-88495035D01*
X57787186Y-88481869D01*
X57798865Y-88474354D01*
X57885859Y-88347034D01*
X57916464Y-88195900D01*
X57916464Y-87495900D01*
X57889897Y-87354710D01*
X57806454Y-87225035D01*
X57787186Y-87211869D01*
X57798865Y-87204354D01*
X57885859Y-87077034D01*
X57916464Y-86925900D01*
X57916464Y-86225900D01*
X57889897Y-86084710D01*
X57806454Y-85955035D01*
X57787186Y-85941869D01*
X57798865Y-85934354D01*
X57885859Y-85807034D01*
X57916464Y-85655900D01*
X57916464Y-84955900D01*
X57889897Y-84814710D01*
X57806454Y-84685035D01*
X57787186Y-84671869D01*
X57798865Y-84664354D01*
X57885859Y-84537034D01*
X57916464Y-84385900D01*
X57916464Y-83685900D01*
X57889897Y-83544710D01*
X57806454Y-83415035D01*
X57787186Y-83401869D01*
X57798865Y-83394354D01*
X57885859Y-83267034D01*
X57916464Y-83115900D01*
X57916464Y-82415900D01*
X57889897Y-82274710D01*
X57806454Y-82145035D01*
X57787186Y-82131869D01*
X57798865Y-82124354D01*
X57885859Y-81997034D01*
X57916464Y-81845900D01*
X57916464Y-81145900D01*
X57889897Y-81004710D01*
X57806454Y-80875035D01*
X57787186Y-80861869D01*
X57798865Y-80854354D01*
X57885859Y-80727034D01*
X57916464Y-80575900D01*
X57916464Y-79875900D01*
X57889897Y-79734710D01*
X57806454Y-79605035D01*
X57787186Y-79591869D01*
X57798865Y-79584354D01*
X57885859Y-79457034D01*
X57916464Y-79305900D01*
X57916464Y-78605900D01*
X57889897Y-78464710D01*
X57806454Y-78335035D01*
X57787186Y-78321869D01*
X57798865Y-78314354D01*
X57885859Y-78187034D01*
X57916464Y-78035900D01*
X57916464Y-77335900D01*
X57889897Y-77194710D01*
X57806454Y-77065035D01*
X57787186Y-77051869D01*
X57798865Y-77044354D01*
X57885859Y-76917034D01*
X57916464Y-76765900D01*
X57916464Y-76065900D01*
X57889897Y-75924710D01*
X57806454Y-75795035D01*
X57787186Y-75781869D01*
X57798865Y-75774354D01*
X57885859Y-75647034D01*
X57916464Y-75495900D01*
X57916464Y-74795900D01*
X57889897Y-74654710D01*
X57806454Y-74525035D01*
X57787186Y-74511869D01*
X57798865Y-74504354D01*
X57885859Y-74377034D01*
X57916464Y-74225900D01*
X57916464Y-73525900D01*
X57889897Y-73384710D01*
X57806454Y-73255035D01*
X57787186Y-73241869D01*
X57798865Y-73234354D01*
X57885859Y-73107034D01*
X57916464Y-72955900D01*
X57916464Y-72255900D01*
X57889897Y-72114710D01*
X57806454Y-71985035D01*
X57787186Y-71971869D01*
X57798865Y-71964354D01*
X57885859Y-71837034D01*
X57916464Y-71685900D01*
X57916464Y-70985900D01*
X57889897Y-70844710D01*
X57806454Y-70715035D01*
X57787186Y-70701869D01*
X57798865Y-70694354D01*
X57885859Y-70567034D01*
X57916464Y-70415900D01*
X57916464Y-69715900D01*
X57889897Y-69574710D01*
X57806454Y-69445035D01*
X57787186Y-69431869D01*
X57798865Y-69424354D01*
X57885859Y-69297034D01*
X57916464Y-69145900D01*
X57916464Y-68445900D01*
X57889897Y-68304710D01*
X57806454Y-68175035D01*
X57787186Y-68161869D01*
X57798865Y-68154354D01*
X57885859Y-68027034D01*
X57916464Y-67875900D01*
X57916464Y-67175900D01*
X57889897Y-67034710D01*
X57806454Y-66905035D01*
X57787186Y-66891869D01*
X57798865Y-66884354D01*
X57885859Y-66757034D01*
X57916464Y-66605900D01*
X57916464Y-65905900D01*
X57889897Y-65764710D01*
X57806454Y-65635035D01*
X57787186Y-65621869D01*
X57798865Y-65614354D01*
X57885859Y-65487034D01*
X57916464Y-65335900D01*
X57916464Y-64635900D01*
X57889897Y-64494710D01*
X57806454Y-64365035D01*
X57787186Y-64351869D01*
X57798865Y-64344354D01*
X57885859Y-64217034D01*
X57916464Y-64065900D01*
X57916464Y-63365900D01*
X57889897Y-63224710D01*
X57806454Y-63095035D01*
X57787186Y-63081869D01*
X57798865Y-63074354D01*
X57885859Y-62947034D01*
X57916464Y-62795900D01*
X57916464Y-62095900D01*
X57889897Y-61954710D01*
X57806454Y-61825035D01*
X57787186Y-61811869D01*
X57798865Y-61804354D01*
X57885859Y-61677034D01*
X57916464Y-61525900D01*
X57916464Y-60825900D01*
X57889897Y-60684710D01*
X57806454Y-60555035D01*
X57787186Y-60541869D01*
X57798865Y-60534354D01*
X57885859Y-60407034D01*
X57916464Y-60255900D01*
X57916464Y-59555900D01*
X57889897Y-59414710D01*
X57806454Y-59285035D01*
X57787186Y-59271869D01*
X57798865Y-59264354D01*
X57885859Y-59137034D01*
X57916464Y-58985900D01*
X57916464Y-58285900D01*
X57889897Y-58144710D01*
X57806454Y-58015035D01*
X57787186Y-58001869D01*
X57798865Y-57994354D01*
X57885859Y-57867034D01*
X57916464Y-57715900D01*
X57916464Y-57015900D01*
X57889897Y-56874710D01*
X57806454Y-56745035D01*
X57787186Y-56731869D01*
X57798865Y-56724354D01*
X57885859Y-56597034D01*
X57916464Y-56445900D01*
X57916464Y-55745900D01*
X57889897Y-55604710D01*
X57806454Y-55475035D01*
X57787186Y-55461869D01*
X57798865Y-55454354D01*
X57885859Y-55327034D01*
X57916464Y-55175900D01*
X57916464Y-54475900D01*
X57889897Y-54334710D01*
X57806454Y-54205035D01*
X57679134Y-54118041D01*
X57528000Y-54087436D01*
X56536143Y-54087436D01*
X56434032Y-54045036D01*
X56123331Y-54044764D01*
X56020057Y-54087436D01*
X55266143Y-54087436D01*
X55198615Y-54059396D01*
X55198643Y-54027418D01*
X55073233Y-53723902D01*
X54841219Y-53491483D01*
X54537923Y-53365543D01*
X54209518Y-53365257D01*
X53906002Y-53490667D01*
X53673583Y-53722681D01*
X53547643Y-54025977D01*
X53547614Y-54059522D01*
X53480057Y-54087436D01*
X52726143Y-54087436D01*
X52624032Y-54045036D01*
X52313331Y-54044764D01*
X52210057Y-54087436D01*
X51566040Y-54087436D01*
X51446599Y-53967995D01*
X51446599Y-53079591D01*
X128583000Y-53079591D01*
X128583000Y-53270150D01*
X128741750Y-53428900D01*
X129421600Y-53428900D01*
X129419691Y-53434831D01*
X129439921Y-53682900D01*
X128741750Y-53682900D01*
X128583000Y-53841650D01*
X128583000Y-54032209D01*
X128679673Y-54265598D01*
X128839714Y-54425640D01*
X128829536Y-54475900D01*
X128829536Y-55175900D01*
X128856103Y-55317090D01*
X128939546Y-55446765D01*
X128958814Y-55459931D01*
X128947135Y-55467446D01*
X128860141Y-55594766D01*
X128829536Y-55745900D01*
X128829536Y-56445900D01*
X128856103Y-56587090D01*
X128939546Y-56716765D01*
X128958814Y-56729931D01*
X128947135Y-56737446D01*
X128860141Y-56864766D01*
X128829536Y-57015900D01*
X128829536Y-57715900D01*
X128856103Y-57857090D01*
X128939546Y-57986765D01*
X128958814Y-57999931D01*
X128947135Y-58007446D01*
X128860141Y-58134766D01*
X128829536Y-58285900D01*
X128829536Y-58985900D01*
X128856103Y-59127090D01*
X128939546Y-59256765D01*
X128958814Y-59269931D01*
X128947135Y-59277446D01*
X128860141Y-59404766D01*
X128829536Y-59555900D01*
X128829536Y-60255900D01*
X128856103Y-60397090D01*
X128939546Y-60526765D01*
X128958814Y-60539931D01*
X128947135Y-60547446D01*
X128860141Y-60674766D01*
X128829536Y-60825900D01*
X128829536Y-61525900D01*
X128856103Y-61667090D01*
X128939546Y-61796765D01*
X128958814Y-61809931D01*
X128947135Y-61817446D01*
X128860141Y-61944766D01*
X128829536Y-62095900D01*
X128829536Y-62795900D01*
X128856103Y-62937090D01*
X128939546Y-63066765D01*
X128958814Y-63079931D01*
X128947135Y-63087446D01*
X128860141Y-63214766D01*
X128829536Y-63365900D01*
X128829536Y-64065900D01*
X128856103Y-64207090D01*
X128939546Y-64336765D01*
X128958814Y-64349931D01*
X128947135Y-64357446D01*
X128860141Y-64484766D01*
X128829536Y-64635900D01*
X128829536Y-65335900D01*
X128856103Y-65477090D01*
X128939546Y-65606765D01*
X128958814Y-65619931D01*
X128947135Y-65627446D01*
X128860141Y-65754766D01*
X128829536Y-65905900D01*
X128829536Y-66605900D01*
X128856103Y-66747090D01*
X128939546Y-66876765D01*
X128958814Y-66889931D01*
X128947135Y-66897446D01*
X128860141Y-67024766D01*
X128829536Y-67175900D01*
X128829536Y-67875900D01*
X128856103Y-68017090D01*
X128939546Y-68146765D01*
X128958814Y-68159931D01*
X128947135Y-68167446D01*
X128860141Y-68294766D01*
X128829536Y-68445900D01*
X128829536Y-69145900D01*
X128856103Y-69287090D01*
X128939546Y-69416765D01*
X128958814Y-69429931D01*
X128947135Y-69437446D01*
X128860141Y-69564766D01*
X128829536Y-69715900D01*
X128829536Y-70415900D01*
X128856103Y-70557090D01*
X128939546Y-70686765D01*
X128958814Y-70699931D01*
X128947135Y-70707446D01*
X128860141Y-70834766D01*
X128829536Y-70985900D01*
X128829536Y-71685900D01*
X128856103Y-71827090D01*
X128939546Y-71956765D01*
X128958814Y-71969931D01*
X128947135Y-71977446D01*
X128860141Y-72104766D01*
X128829536Y-72255900D01*
X128829536Y-72955900D01*
X128856103Y-73097090D01*
X128939546Y-73226765D01*
X128958814Y-73239931D01*
X128947135Y-73247446D01*
X128860141Y-73374766D01*
X128829536Y-73525900D01*
X128829536Y-74225900D01*
X128856103Y-74367090D01*
X128939546Y-74496765D01*
X128958814Y-74509931D01*
X128947135Y-74517446D01*
X128860141Y-74644766D01*
X128829536Y-74795900D01*
X128829536Y-75495900D01*
X128856103Y-75637090D01*
X128939546Y-75766765D01*
X128958814Y-75779931D01*
X128947135Y-75787446D01*
X128860141Y-75914766D01*
X128829536Y-76065900D01*
X128829536Y-76765900D01*
X128856103Y-76907090D01*
X128939546Y-77036765D01*
X128958814Y-77049931D01*
X128947135Y-77057446D01*
X128860141Y-77184766D01*
X128829536Y-77335900D01*
X128829536Y-78035900D01*
X128856103Y-78177090D01*
X128939546Y-78306765D01*
X128958814Y-78319931D01*
X128947135Y-78327446D01*
X128860141Y-78454766D01*
X128829536Y-78605900D01*
X128829536Y-79305900D01*
X128856103Y-79447090D01*
X128939546Y-79576765D01*
X128958814Y-79589931D01*
X128947135Y-79597446D01*
X128860141Y-79724766D01*
X128829536Y-79875900D01*
X128829536Y-80575900D01*
X128856103Y-80717090D01*
X128939546Y-80846765D01*
X128958814Y-80859931D01*
X128947135Y-80867446D01*
X128860141Y-80994766D01*
X128829536Y-81145900D01*
X128829536Y-81845900D01*
X128856103Y-81987090D01*
X128939546Y-82116765D01*
X128958814Y-82129931D01*
X128947135Y-82137446D01*
X128860141Y-82264766D01*
X128829536Y-82415900D01*
X128829536Y-83115900D01*
X128856103Y-83257090D01*
X128939546Y-83386765D01*
X128958814Y-83399931D01*
X128947135Y-83407446D01*
X128860141Y-83534766D01*
X128829536Y-83685900D01*
X128829536Y-84385900D01*
X128856103Y-84527090D01*
X128939546Y-84656765D01*
X128958814Y-84669931D01*
X128947135Y-84677446D01*
X128860141Y-84804766D01*
X128829536Y-84955900D01*
X128829536Y-85048346D01*
X128819814Y-85062896D01*
X128771478Y-85305900D01*
X128819814Y-85548904D01*
X128829536Y-85563454D01*
X128829536Y-85655900D01*
X128856103Y-85797090D01*
X128939546Y-85926765D01*
X128958814Y-85939931D01*
X128947135Y-85947446D01*
X128860141Y-86074766D01*
X128829536Y-86225900D01*
X128829536Y-86925900D01*
X128856103Y-87067090D01*
X128939546Y-87196765D01*
X128958814Y-87209931D01*
X128947135Y-87217446D01*
X128860141Y-87344766D01*
X128829536Y-87495900D01*
X128829536Y-88195900D01*
X128839107Y-88246767D01*
X128679673Y-88406202D01*
X128583000Y-88639591D01*
X128583000Y-88830150D01*
X128741750Y-88988900D01*
X129421600Y-88988900D01*
X129419691Y-88994831D01*
X129439921Y-89242900D01*
X128741750Y-89242900D01*
X128583000Y-89401650D01*
X128583000Y-89592209D01*
X128648732Y-89750900D01*
X128583000Y-89909591D01*
X128583000Y-90100150D01*
X128741750Y-90258900D01*
X129421600Y-90258900D01*
X129419691Y-90264831D01*
X129439921Y-90512900D01*
X128741750Y-90512900D01*
X128583000Y-90671650D01*
X128583000Y-90862209D01*
X128679673Y-91095598D01*
X128858301Y-91274227D01*
X129091690Y-91370900D01*
X130150194Y-91370900D01*
X130346931Y-91434209D01*
X130757318Y-91400742D01*
X130829363Y-91370900D01*
X131420194Y-91370900D01*
X131616931Y-91434209D01*
X132027318Y-91400742D01*
X132251023Y-91308080D01*
X132271517Y-91138285D01*
X132353370Y-91220138D01*
X132373000Y-91200508D01*
X132392630Y-91220138D01*
X132398309Y-91214459D01*
X132531750Y-91347900D01*
X132618720Y-91347900D01*
X132886931Y-91434209D01*
X133297318Y-91400742D01*
X133369363Y-91370900D01*
X133960194Y-91370900D01*
X134156931Y-91434209D01*
X134567318Y-91400742D01*
X134639363Y-91370900D01*
X135654310Y-91370900D01*
X135887699Y-91274227D01*
X135966500Y-91195426D01*
X135966500Y-93047140D01*
X136014836Y-93290144D01*
X136152487Y-93496153D01*
X141826748Y-99170414D01*
X141767503Y-99468260D01*
X141861207Y-99939343D01*
X142128055Y-100338708D01*
X142527420Y-100605556D01*
X142998503Y-100699260D01*
X143046737Y-100699260D01*
X143517820Y-100605556D01*
X143917185Y-100338708D01*
X144113286Y-100045223D01*
X144199207Y-100173813D01*
X148131903Y-104106509D01*
X148080660Y-104364123D01*
X148080660Y-104412357D01*
X148174364Y-104883440D01*
X148441212Y-105282805D01*
X148840577Y-105549653D01*
X149311660Y-105643357D01*
X149782743Y-105549653D01*
X150182108Y-105282805D01*
X150366660Y-105006604D01*
X150366660Y-105364549D01*
X150463333Y-105597938D01*
X150641961Y-105776567D01*
X150875350Y-105873240D01*
X151565910Y-105873240D01*
X151724660Y-105714490D01*
X151724660Y-104515240D01*
X151978660Y-104515240D01*
X151978660Y-105714490D01*
X152137410Y-105873240D01*
X152827970Y-105873240D01*
X153061359Y-105776567D01*
X153239987Y-105597938D01*
X153336660Y-105364549D01*
X153336660Y-104673990D01*
X153177910Y-104515240D01*
X151978660Y-104515240D01*
X151724660Y-104515240D01*
X151704660Y-104515240D01*
X151704660Y-104261240D01*
X151724660Y-104261240D01*
X151724660Y-103061990D01*
X151978660Y-103061990D01*
X151978660Y-104261240D01*
X153177910Y-104261240D01*
X153336660Y-104102490D01*
X153336660Y-103411931D01*
X153239987Y-103178542D01*
X153061359Y-102999913D01*
X152827970Y-102903240D01*
X152137410Y-102903240D01*
X151978660Y-103061990D01*
X151724660Y-103061990D01*
X151565910Y-102903240D01*
X150875350Y-102903240D01*
X150641961Y-102999913D01*
X150463333Y-103178542D01*
X150366660Y-103411931D01*
X150366660Y-103769876D01*
X150182108Y-103493675D01*
X149782743Y-103226827D01*
X149311660Y-103133123D01*
X149013814Y-103192368D01*
X145283220Y-99461774D01*
X145283220Y-97250840D01*
X145250200Y-97084836D01*
X145250200Y-96143200D01*
X145407416Y-96143200D01*
X145407416Y-97343200D01*
X145433983Y-97484390D01*
X145517426Y-97614065D01*
X145610880Y-97677919D01*
X145610880Y-98707900D01*
X145659216Y-98950904D01*
X145796867Y-99156913D01*
X147585927Y-100945973D01*
X147791936Y-101083624D01*
X148034940Y-101131960D01*
X148154476Y-101131960D01*
X148154476Y-101346960D01*
X148181043Y-101488150D01*
X148264486Y-101617825D01*
X148391806Y-101704819D01*
X148542940Y-101735424D01*
X150242940Y-101735424D01*
X150384130Y-101708857D01*
X150513805Y-101625414D01*
X150600799Y-101498094D01*
X150631404Y-101346960D01*
X150631404Y-99646960D01*
X150604837Y-99505770D01*
X150521394Y-99376095D01*
X150394074Y-99289101D01*
X150242940Y-99258496D01*
X148542940Y-99258496D01*
X148401750Y-99285063D01*
X148272075Y-99368506D01*
X148185081Y-99495826D01*
X148154476Y-99646960D01*
X148154476Y-99718470D01*
X146880880Y-98444874D01*
X146880880Y-97676906D01*
X146966745Y-97621654D01*
X147053739Y-97494334D01*
X147084344Y-97343200D01*
X147084344Y-96143200D01*
X147057777Y-96002010D01*
X146974334Y-95872335D01*
X146847014Y-95785341D01*
X146695880Y-95754736D01*
X145795880Y-95754736D01*
X145654690Y-95781303D01*
X145525015Y-95864746D01*
X145438021Y-95992066D01*
X145407416Y-96143200D01*
X145250200Y-96143200D01*
X145250200Y-95023260D01*
X145407416Y-95023260D01*
X145407416Y-95143200D01*
X145433983Y-95284390D01*
X145517426Y-95414065D01*
X145644746Y-95501059D01*
X145795880Y-95531664D01*
X146695880Y-95531664D01*
X146837070Y-95505097D01*
X146966745Y-95421654D01*
X147053739Y-95294334D01*
X147084344Y-95143200D01*
X147084344Y-93943200D01*
X147057777Y-93802010D01*
X146974334Y-93672335D01*
X146847014Y-93585341D01*
X146695880Y-93554736D01*
X145795880Y-93554736D01*
X145654690Y-93581303D01*
X145525015Y-93664746D01*
X145464536Y-93753260D01*
X144074507Y-93753260D01*
X143917185Y-93517812D01*
X143517820Y-93250964D01*
X143046737Y-93157260D01*
X142998503Y-93157260D01*
X142740889Y-93208503D01*
X142498856Y-92966470D01*
X142527420Y-92985556D01*
X142998503Y-93079260D01*
X143046737Y-93079260D01*
X143517820Y-92985556D01*
X143917185Y-92718708D01*
X144184033Y-92319343D01*
X144277737Y-91848260D01*
X144184033Y-91377177D01*
X143917185Y-90977812D01*
X143517820Y-90710964D01*
X143046737Y-90617260D01*
X142998503Y-90617260D01*
X142740889Y-90668503D01*
X142498856Y-90426470D01*
X142527420Y-90445556D01*
X142998503Y-90539260D01*
X143046737Y-90539260D01*
X143517820Y-90445556D01*
X143917185Y-90178708D01*
X144184033Y-89779343D01*
X144277737Y-89308260D01*
X144184033Y-88837177D01*
X143917185Y-88437812D01*
X143517820Y-88170964D01*
X143046737Y-88077260D01*
X142998503Y-88077260D01*
X142740889Y-88128503D01*
X142498856Y-87886470D01*
X142527420Y-87905556D01*
X142998503Y-87999260D01*
X143046737Y-87999260D01*
X143517820Y-87905556D01*
X143917185Y-87638708D01*
X143948916Y-87591220D01*
X150682933Y-87591220D01*
X150770900Y-87722871D01*
X150709932Y-87763608D01*
X148180727Y-90292813D01*
X148043076Y-90498822D01*
X147994740Y-90741826D01*
X147994740Y-91445456D01*
X147629740Y-91445456D01*
X147488550Y-91472023D01*
X147358875Y-91555466D01*
X147271881Y-91682786D01*
X147241276Y-91833920D01*
X147241276Y-93533920D01*
X147267843Y-93675110D01*
X147351286Y-93804785D01*
X147478606Y-93891779D01*
X147629740Y-93922384D01*
X147994740Y-93922384D01*
X147994740Y-94580100D01*
X148043076Y-94823104D01*
X148180727Y-95029113D01*
X148340183Y-95188569D01*
X148288940Y-95446183D01*
X148288940Y-95494417D01*
X148382644Y-95965500D01*
X148649492Y-96364865D01*
X149048857Y-96631713D01*
X149519940Y-96725417D01*
X149991023Y-96631713D01*
X150390388Y-96364865D01*
X150657236Y-95965500D01*
X150750940Y-95494417D01*
X150750940Y-95446183D01*
X150657236Y-94975100D01*
X150390388Y-94575735D01*
X149991023Y-94308887D01*
X149519940Y-94215183D01*
X149264740Y-94265945D01*
X149264740Y-93922384D01*
X149629740Y-93922384D01*
X149770930Y-93895817D01*
X149900605Y-93812374D01*
X149987599Y-93685054D01*
X150018204Y-93533920D01*
X150018204Y-91833920D01*
X149991637Y-91692730D01*
X149908194Y-91563055D01*
X149780874Y-91476061D01*
X149629740Y-91445456D01*
X149264740Y-91445456D01*
X149264740Y-91004852D01*
X150528426Y-89741166D01*
X150573407Y-89967303D01*
X150840255Y-90366668D01*
X151239620Y-90633516D01*
X151710703Y-90727220D01*
X151758937Y-90727220D01*
X151994740Y-90680316D01*
X151994740Y-91445456D01*
X151629740Y-91445456D01*
X151488550Y-91472023D01*
X151358875Y-91555466D01*
X151271881Y-91682786D01*
X151241276Y-91833920D01*
X151241276Y-93533920D01*
X151267843Y-93675110D01*
X151351286Y-93804785D01*
X151478606Y-93891779D01*
X151629740Y-93922384D01*
X153629740Y-93922384D01*
X153770930Y-93895817D01*
X153900605Y-93812374D01*
X153987599Y-93685054D01*
X154018204Y-93533920D01*
X154018204Y-91833920D01*
X153991637Y-91692730D01*
X153908194Y-91563055D01*
X153780874Y-91476061D01*
X153629740Y-91445456D01*
X153264740Y-91445456D01*
X153264740Y-90391140D01*
X153216404Y-90148136D01*
X153078753Y-89942127D01*
X152930692Y-89794066D01*
X152989937Y-89496220D01*
X152896233Y-89025137D01*
X152694571Y-88723330D01*
X152786906Y-88661634D01*
X153130180Y-88318360D01*
X153130180Y-88652329D01*
X153226853Y-88885718D01*
X153405481Y-89064347D01*
X153638870Y-89161020D01*
X154329430Y-89161020D01*
X154488180Y-89002270D01*
X154488180Y-87653020D01*
X154742180Y-87653020D01*
X154742180Y-89002270D01*
X154900930Y-89161020D01*
X155591490Y-89161020D01*
X155824879Y-89064347D01*
X156003507Y-88885718D01*
X156100180Y-88652329D01*
X156100180Y-87811770D01*
X155941430Y-87653020D01*
X154742180Y-87653020D01*
X154488180Y-87653020D01*
X154468180Y-87653020D01*
X154468180Y-87399020D01*
X154488180Y-87399020D01*
X154488180Y-86049770D01*
X154742180Y-86049770D01*
X154742180Y-87399020D01*
X155941430Y-87399020D01*
X156100180Y-87240270D01*
X156100180Y-86399711D01*
X156003507Y-86166322D01*
X155824879Y-85987693D01*
X155591490Y-85891020D01*
X154900930Y-85891020D01*
X154742180Y-86049770D01*
X154488180Y-86049770D01*
X154329430Y-85891020D01*
X153638870Y-85891020D01*
X153626221Y-85896259D01*
X153626221Y-85753901D01*
X153577885Y-85510897D01*
X153577885Y-85510896D01*
X153440234Y-85304888D01*
X153358954Y-85223608D01*
X153152945Y-85085957D01*
X152978308Y-85051220D01*
X153092820Y-85051220D01*
X153335824Y-85002884D01*
X153541833Y-84865233D01*
X153560068Y-84846998D01*
X153614046Y-84883879D01*
X153765180Y-84914484D01*
X155465180Y-84914484D01*
X155606370Y-84887917D01*
X155736045Y-84804474D01*
X155823039Y-84677154D01*
X155853644Y-84526020D01*
X155853644Y-82526020D01*
X155827077Y-82384830D01*
X155743634Y-82255155D01*
X155616314Y-82168161D01*
X155465180Y-82137556D01*
X153908350Y-82137556D01*
X154350942Y-81694964D01*
X155541380Y-81694964D01*
X155682570Y-81668397D01*
X155812245Y-81584954D01*
X155899239Y-81457634D01*
X155929844Y-81306500D01*
X155929844Y-79306500D01*
X155903277Y-79165310D01*
X155819834Y-79035635D01*
X155692514Y-78948641D01*
X155541380Y-78918036D01*
X153998450Y-78918036D01*
X155140393Y-77776093D01*
X155194602Y-77694964D01*
X155541380Y-77694964D01*
X155682570Y-77668397D01*
X155812245Y-77584954D01*
X155899239Y-77457634D01*
X155929844Y-77306500D01*
X155929844Y-75306500D01*
X155903277Y-75165310D01*
X155819834Y-75035635D01*
X155692514Y-74948641D01*
X155541380Y-74918036D01*
X153841380Y-74918036D01*
X153700190Y-74944603D01*
X153570515Y-75028046D01*
X153483521Y-75155366D01*
X153452916Y-75306500D01*
X153452916Y-77306500D01*
X153479483Y-77447690D01*
X153555151Y-77565283D01*
X152785707Y-78334727D01*
X152804793Y-78306163D01*
X152898497Y-77835080D01*
X152804793Y-77363997D01*
X152537945Y-76964632D01*
X152138580Y-76697784D01*
X151667497Y-76604080D01*
X151619263Y-76604080D01*
X151148180Y-76697784D01*
X150748815Y-76964632D01*
X150591493Y-77200080D01*
X149415800Y-77200080D01*
X149172796Y-77248416D01*
X148966787Y-77386067D01*
X144164947Y-82187907D01*
X144184033Y-82159343D01*
X144277737Y-81688260D01*
X144184033Y-81217177D01*
X143917185Y-80817812D01*
X143517820Y-80550964D01*
X143046737Y-80457260D01*
X142998503Y-80457260D01*
X142740889Y-80508503D01*
X142498856Y-80266470D01*
X142527420Y-80285556D01*
X142998503Y-80379260D01*
X143046737Y-80379260D01*
X143517820Y-80285556D01*
X143917185Y-80018708D01*
X144184033Y-79619343D01*
X144277737Y-79148260D01*
X144184033Y-78677177D01*
X143917185Y-78277812D01*
X143517820Y-78010964D01*
X143046737Y-77917260D01*
X142998503Y-77917260D01*
X142740889Y-77968503D01*
X142498856Y-77726470D01*
X142527420Y-77745556D01*
X142998503Y-77839260D01*
X143046737Y-77839260D01*
X143517820Y-77745556D01*
X143917185Y-77478708D01*
X144184033Y-77079343D01*
X144277737Y-76608260D01*
X144184033Y-76137177D01*
X143917185Y-75737812D01*
X143517820Y-75470964D01*
X143046737Y-75377260D01*
X142998503Y-75377260D01*
X142740889Y-75428503D01*
X142498856Y-75186470D01*
X142527420Y-75205556D01*
X142998503Y-75299260D01*
X143046737Y-75299260D01*
X143517820Y-75205556D01*
X143917185Y-74938708D01*
X144184033Y-74539343D01*
X144202783Y-74445080D01*
X150404916Y-74445080D01*
X150404916Y-76145080D01*
X150431483Y-76286270D01*
X150514926Y-76415945D01*
X150642246Y-76502939D01*
X150793380Y-76533544D01*
X152493380Y-76533544D01*
X152634570Y-76506977D01*
X152764245Y-76423534D01*
X152851239Y-76296214D01*
X152881844Y-76145080D01*
X152881844Y-74954642D01*
X153002553Y-74833933D01*
X153140204Y-74627924D01*
X153188541Y-74384920D01*
X153188540Y-74384915D01*
X153188540Y-73866544D01*
X153553540Y-73866544D01*
X153694730Y-73839977D01*
X153824405Y-73756534D01*
X153911399Y-73629214D01*
X153942004Y-73478080D01*
X153942004Y-71778080D01*
X153915437Y-71636890D01*
X153831994Y-71507215D01*
X153704674Y-71420221D01*
X153553540Y-71389616D01*
X151553540Y-71389616D01*
X151412350Y-71416183D01*
X151282675Y-71499626D01*
X151195681Y-71626946D01*
X151165076Y-71778080D01*
X151165076Y-73478080D01*
X151191643Y-73619270D01*
X151275086Y-73748945D01*
X151402406Y-73835939D01*
X151553540Y-73866544D01*
X151918540Y-73866544D01*
X151918540Y-74056616D01*
X150793380Y-74056616D01*
X150652190Y-74083183D01*
X150522515Y-74166626D01*
X150435521Y-74293946D01*
X150404916Y-74445080D01*
X144202783Y-74445080D01*
X144277737Y-74068260D01*
X144184033Y-73597177D01*
X143917185Y-73197812D01*
X143517820Y-72930964D01*
X143431682Y-72913830D01*
X146918540Y-72913830D01*
X146918540Y-73604390D01*
X147015213Y-73837779D01*
X147193842Y-74016407D01*
X147427231Y-74113080D01*
X148267790Y-74113080D01*
X148426540Y-73954330D01*
X148426540Y-72755080D01*
X148680540Y-72755080D01*
X148680540Y-73954330D01*
X148839290Y-74113080D01*
X149679849Y-74113080D01*
X149913238Y-74016407D01*
X150091867Y-73837779D01*
X150188540Y-73604390D01*
X150188540Y-72913830D01*
X150029790Y-72755080D01*
X148680540Y-72755080D01*
X148426540Y-72755080D01*
X147077290Y-72755080D01*
X146918540Y-72913830D01*
X143431682Y-72913830D01*
X143046737Y-72837260D01*
X142998503Y-72837260D01*
X142740889Y-72888503D01*
X142498856Y-72646470D01*
X142527420Y-72665556D01*
X142998503Y-72759260D01*
X143046737Y-72759260D01*
X143517820Y-72665556D01*
X143917185Y-72398708D01*
X144184033Y-71999343D01*
X144253169Y-71651770D01*
X146918540Y-71651770D01*
X146918540Y-72342330D01*
X147077290Y-72501080D01*
X148426540Y-72501080D01*
X148426540Y-71301830D01*
X148680540Y-71301830D01*
X148680540Y-72501080D01*
X150029790Y-72501080D01*
X150188540Y-72342330D01*
X150188540Y-71651770D01*
X150091867Y-71418381D01*
X149913238Y-71239753D01*
X149679849Y-71143080D01*
X148839290Y-71143080D01*
X148680540Y-71301830D01*
X148426540Y-71301830D01*
X148267790Y-71143080D01*
X147427231Y-71143080D01*
X147193842Y-71239753D01*
X147015213Y-71418381D01*
X146918540Y-71651770D01*
X144253169Y-71651770D01*
X144277737Y-71528260D01*
X144184033Y-71057177D01*
X143917185Y-70657812D01*
X143517820Y-70390964D01*
X143046737Y-70297260D01*
X142998503Y-70297260D01*
X142527420Y-70390964D01*
X142128055Y-70657812D01*
X142015927Y-70825622D01*
X140813565Y-69623260D01*
X141970733Y-69623260D01*
X142128055Y-69858708D01*
X142527420Y-70125556D01*
X142998503Y-70219260D01*
X143046737Y-70219260D01*
X143517820Y-70125556D01*
X143917185Y-69858708D01*
X144184033Y-69459343D01*
X144277737Y-68988260D01*
X144184033Y-68517177D01*
X143917185Y-68117812D01*
X143517820Y-67850964D01*
X143046737Y-67757260D01*
X142998503Y-67757260D01*
X142527420Y-67850964D01*
X142498856Y-67870050D01*
X142740889Y-67628017D01*
X142998503Y-67679260D01*
X143046737Y-67679260D01*
X143517820Y-67585556D01*
X143917185Y-67318708D01*
X144184033Y-66919343D01*
X144277737Y-66448260D01*
X144184033Y-65977177D01*
X143917185Y-65577812D01*
X143517820Y-65310964D01*
X143046737Y-65217260D01*
X142998503Y-65217260D01*
X142527420Y-65310964D01*
X142128055Y-65577812D01*
X141861207Y-65977177D01*
X141767503Y-66448260D01*
X141826748Y-66746106D01*
X141681954Y-66890900D01*
X139472899Y-66890900D01*
X139715903Y-66842564D01*
X139921912Y-66704913D01*
X142015927Y-64610898D01*
X142128055Y-64778708D01*
X142527420Y-65045556D01*
X142998503Y-65139260D01*
X143046737Y-65139260D01*
X143517820Y-65045556D01*
X143917185Y-64778708D01*
X144184033Y-64379343D01*
X144277737Y-63908260D01*
X144184033Y-63437177D01*
X144046604Y-63231500D01*
X147626036Y-63231500D01*
X147626036Y-64931500D01*
X147652603Y-65072690D01*
X147736046Y-65202365D01*
X147863366Y-65289359D01*
X148014500Y-65319964D01*
X149714500Y-65319964D01*
X149855690Y-65293397D01*
X149985365Y-65209954D01*
X150072359Y-65082634D01*
X150102964Y-64931500D01*
X150102964Y-63231500D01*
X150076397Y-63090310D01*
X149992954Y-62960635D01*
X149865634Y-62873641D01*
X149714500Y-62843036D01*
X148014500Y-62843036D01*
X147873310Y-62869603D01*
X147743635Y-62953046D01*
X147656641Y-63080366D01*
X147626036Y-63231500D01*
X144046604Y-63231500D01*
X143917185Y-63037812D01*
X143517820Y-62770964D01*
X143046737Y-62677260D01*
X142998503Y-62677260D01*
X142527420Y-62770964D01*
X142498854Y-62790051D01*
X142740888Y-62548017D01*
X142998503Y-62599260D01*
X143046737Y-62599260D01*
X143517820Y-62505556D01*
X143917185Y-62238708D01*
X144184033Y-61839343D01*
X144243277Y-61541500D01*
X147609383Y-61541500D01*
X147703087Y-62012583D01*
X147969935Y-62411948D01*
X148369300Y-62678796D01*
X148840383Y-62772500D01*
X148888617Y-62772500D01*
X149359700Y-62678796D01*
X149759065Y-62411948D01*
X150025913Y-62012583D01*
X150119617Y-61541500D01*
X150025913Y-61070417D01*
X149759065Y-60671052D01*
X149359700Y-60404204D01*
X148888617Y-60310500D01*
X148840383Y-60310500D01*
X148369300Y-60404204D01*
X147969935Y-60671052D01*
X147703087Y-61070417D01*
X147609383Y-61541500D01*
X144243277Y-61541500D01*
X144277737Y-61368260D01*
X144184033Y-60897177D01*
X143917185Y-60497812D01*
X143517820Y-60230964D01*
X143046737Y-60137260D01*
X142998503Y-60137260D01*
X142527420Y-60230964D01*
X142498856Y-60250050D01*
X142740889Y-60008017D01*
X142998503Y-60059260D01*
X143046737Y-60059260D01*
X143517820Y-59965556D01*
X143917185Y-59698708D01*
X144184033Y-59299343D01*
X144277737Y-58828260D01*
X144184033Y-58357177D01*
X143917185Y-57957812D01*
X143517820Y-57690964D01*
X143046737Y-57597260D01*
X142998503Y-57597260D01*
X142527420Y-57690964D01*
X142498856Y-57710050D01*
X142740889Y-57468017D01*
X142998503Y-57519260D01*
X143046737Y-57519260D01*
X143517820Y-57425556D01*
X143917185Y-57158708D01*
X144184033Y-56759343D01*
X144277737Y-56288260D01*
X144184033Y-55817177D01*
X143917185Y-55417812D01*
X143517820Y-55150964D01*
X143046737Y-55057260D01*
X142998503Y-55057260D01*
X142527420Y-55150964D01*
X142498856Y-55170050D01*
X142740889Y-54928017D01*
X142998503Y-54979260D01*
X143046737Y-54979260D01*
X143517820Y-54885556D01*
X143917185Y-54618708D01*
X144184033Y-54219343D01*
X144277737Y-53748260D01*
X144184033Y-53277177D01*
X144164947Y-53248613D01*
X147925928Y-57009594D01*
X148131937Y-57147245D01*
X148374941Y-57195581D01*
X151561261Y-57195581D01*
X151804265Y-57147245D01*
X152010274Y-57009594D01*
X152477224Y-56542644D01*
X152506140Y-56542644D01*
X152647330Y-56516077D01*
X152772776Y-56435355D01*
X152885006Y-56512039D01*
X153036140Y-56542644D01*
X153776140Y-56542644D01*
X153917330Y-56516077D01*
X154042776Y-56435355D01*
X154155006Y-56512039D01*
X154306140Y-56542644D01*
X155046140Y-56542644D01*
X155187330Y-56516077D01*
X155312776Y-56435355D01*
X155425006Y-56512039D01*
X155576140Y-56542644D01*
X156316140Y-56542644D01*
X156457330Y-56516077D01*
X156587005Y-56432634D01*
X156673999Y-56305314D01*
X156704604Y-56154180D01*
X156704604Y-53873742D01*
X157273150Y-53305195D01*
X157273153Y-53305193D01*
X157410804Y-53099184D01*
X157426922Y-53018155D01*
X157439660Y-52954117D01*
X157439660Y-90550554D01*
X153298404Y-94691810D01*
X153298404Y-94620300D01*
X153271837Y-94479110D01*
X153188394Y-94349435D01*
X153061074Y-94262441D01*
X152909940Y-94231836D01*
X151209940Y-94231836D01*
X151068750Y-94258403D01*
X150939075Y-94341846D01*
X150852081Y-94469166D01*
X150821476Y-94620300D01*
X150821476Y-96320300D01*
X150848043Y-96461490D01*
X150931486Y-96591165D01*
X151058806Y-96678159D01*
X151209940Y-96708764D01*
X151297940Y-96708764D01*
X151297940Y-99445073D01*
X151062492Y-99602395D01*
X150795644Y-100001760D01*
X150701940Y-100472843D01*
X150701940Y-100521077D01*
X150795644Y-100992160D01*
X151062492Y-101391525D01*
X151461857Y-101658373D01*
X151932940Y-101752077D01*
X152404023Y-101658373D01*
X152803388Y-101391525D01*
X153070236Y-100992160D01*
X153163940Y-100521077D01*
X153163940Y-100472843D01*
X153070236Y-100001760D01*
X152803388Y-99602395D01*
X152567940Y-99445073D01*
X152567940Y-96708764D01*
X152909940Y-96708764D01*
X153051130Y-96682197D01*
X153180805Y-96598754D01*
X153267799Y-96471434D01*
X153298404Y-96320300D01*
X153298404Y-96105300D01*
X153417940Y-96105300D01*
X153660944Y-96056964D01*
X153866953Y-95919313D01*
X158523673Y-91262593D01*
X158661324Y-91056584D01*
X158709661Y-90813580D01*
X158709660Y-90813575D01*
X158709660Y-35549160D01*
X158661324Y-35306156D01*
X158523673Y-35100147D01*
X158317664Y-34962496D01*
X158074660Y-34914160D01*
X152989580Y-34914160D01*
X152746575Y-34962496D01*
X152540567Y-35100147D01*
X151889404Y-35751310D01*
X151778828Y-35796999D01*
X151587093Y-35988401D01*
X151483198Y-36238606D01*
X151482962Y-36509525D01*
X151501140Y-36553519D01*
X151501140Y-36705888D01*
X151362449Y-36648440D01*
X151151890Y-36648440D01*
X150993140Y-36807190D01*
X150993140Y-38551440D01*
X151013140Y-38551440D01*
X151013140Y-38805440D01*
X150993140Y-38805440D01*
X150993140Y-38825440D01*
X150739140Y-38825440D01*
X150739140Y-38805440D01*
X150019890Y-38805440D01*
X149861140Y-38964190D01*
X149861140Y-40050040D01*
X149421049Y-40050040D01*
X149310554Y-40004158D01*
X149039635Y-40003922D01*
X148789248Y-40107379D01*
X148597513Y-40298781D01*
X148493618Y-40548986D01*
X148493574Y-40599608D01*
X148493213Y-40599247D01*
X148287204Y-40461596D01*
X148044200Y-40413260D01*
X144074507Y-40413260D01*
X143917185Y-40177812D01*
X143640984Y-39993260D01*
X143998929Y-39993260D01*
X144232318Y-39896587D01*
X144410947Y-39717959D01*
X144507620Y-39484570D01*
X144507620Y-38794010D01*
X144348870Y-38635260D01*
X143149620Y-38635260D01*
X143149620Y-38655260D01*
X142895620Y-38655260D01*
X142895620Y-38635260D01*
X141696370Y-38635260D01*
X141537620Y-38794010D01*
X141537620Y-39484570D01*
X141634293Y-39717959D01*
X141812922Y-39896587D01*
X142046311Y-39993260D01*
X142404256Y-39993260D01*
X142128055Y-40177812D01*
X141861207Y-40577177D01*
X141767503Y-41048260D01*
X141826748Y-41346106D01*
X135485388Y-47687466D01*
X135347737Y-47893475D01*
X135299401Y-48136479D01*
X135299401Y-52570900D01*
X134595806Y-52570900D01*
X134399069Y-52507591D01*
X133988682Y-52541058D01*
X133916637Y-52570900D01*
X133325806Y-52570900D01*
X133129069Y-52507591D01*
X132718682Y-52541058D01*
X132494977Y-52633720D01*
X132474483Y-52803515D01*
X132392630Y-52721662D01*
X132373000Y-52741292D01*
X132353370Y-52721662D01*
X132271517Y-52803515D01*
X132251023Y-52633720D01*
X131859069Y-52507591D01*
X131448682Y-52541058D01*
X131376637Y-52570900D01*
X130785806Y-52570900D01*
X130589069Y-52507591D01*
X130178682Y-52541058D01*
X130106637Y-52570900D01*
X129091690Y-52570900D01*
X128858301Y-52667573D01*
X128679673Y-52846202D01*
X128583000Y-53079591D01*
X51446599Y-53079591D01*
X51446599Y-48405239D01*
X51415748Y-48250140D01*
X51398263Y-48162234D01*
X51260612Y-47956226D01*
X44531112Y-41226726D01*
X44590357Y-40928880D01*
X44496653Y-40457797D01*
X44229805Y-40058432D01*
X43953604Y-39873880D01*
X44311549Y-39873880D01*
X44544938Y-39777207D01*
X44723567Y-39598579D01*
X44820240Y-39365190D01*
X44820240Y-38674630D01*
X44762110Y-38616500D01*
X146234383Y-38616500D01*
X146328087Y-39087583D01*
X146594935Y-39486948D01*
X146994300Y-39753796D01*
X147465383Y-39847500D01*
X147513617Y-39847500D01*
X147984700Y-39753796D01*
X148384065Y-39486948D01*
X148650913Y-39087583D01*
X148744617Y-38616500D01*
X148650913Y-38145417D01*
X148384065Y-37746052D01*
X147984700Y-37479204D01*
X147513617Y-37385500D01*
X147465383Y-37385500D01*
X146994300Y-37479204D01*
X146594935Y-37746052D01*
X146328087Y-38145417D01*
X146234383Y-38616500D01*
X44762110Y-38616500D01*
X44661490Y-38515880D01*
X43462240Y-38515880D01*
X43462240Y-38535880D01*
X43208240Y-38535880D01*
X43208240Y-38515880D01*
X42008990Y-38515880D01*
X41850240Y-38674630D01*
X41850240Y-39365190D01*
X41946913Y-39598579D01*
X42125542Y-39777207D01*
X42358931Y-39873880D01*
X42716876Y-39873880D01*
X42440675Y-40058432D01*
X42173827Y-40457797D01*
X42080123Y-40928880D01*
X42173827Y-41399963D01*
X42440675Y-41799328D01*
X42840040Y-42066176D01*
X43311123Y-42159880D01*
X43359357Y-42159880D01*
X43616971Y-42108637D01*
X43859004Y-42350670D01*
X43830440Y-42331584D01*
X43359357Y-42237880D01*
X43311123Y-42237880D01*
X42840040Y-42331584D01*
X42440675Y-42598432D01*
X42173827Y-42997797D01*
X42080123Y-43468880D01*
X42173827Y-43939963D01*
X42440675Y-44339328D01*
X42840040Y-44606176D01*
X43311123Y-44699880D01*
X43359357Y-44699880D01*
X43616971Y-44648637D01*
X43859004Y-44890670D01*
X43830440Y-44871584D01*
X43359357Y-44777880D01*
X43311123Y-44777880D01*
X42840040Y-44871584D01*
X42683301Y-44976314D01*
X42643830Y-44777880D01*
X42636501Y-44741032D01*
X42416260Y-44411419D01*
X39490500Y-41485660D01*
X39490500Y-41021953D01*
X39615690Y-40998397D01*
X39745365Y-40914954D01*
X39832359Y-40787634D01*
X39862964Y-40636500D01*
X39862964Y-38636500D01*
X39836397Y-38495310D01*
X39752954Y-38365635D01*
X39625634Y-38278641D01*
X39474500Y-38248036D01*
X37474500Y-38248036D01*
X37333310Y-38274603D01*
X37203635Y-38358046D01*
X37116641Y-38485366D01*
X37089276Y-38620500D01*
X36625341Y-38620500D01*
X35417411Y-37412570D01*
X41850240Y-37412570D01*
X41850240Y-38103130D01*
X42008990Y-38261880D01*
X43208240Y-38261880D01*
X43208240Y-37062630D01*
X43462240Y-37062630D01*
X43462240Y-38261880D01*
X44661490Y-38261880D01*
X44820240Y-38103130D01*
X44820240Y-37531950D01*
X141537620Y-37531950D01*
X141537620Y-38222510D01*
X141696370Y-38381260D01*
X142895620Y-38381260D01*
X142895620Y-37182010D01*
X143149620Y-37182010D01*
X143149620Y-38381260D01*
X144348870Y-38381260D01*
X144507620Y-38222510D01*
X144507620Y-37531950D01*
X144410947Y-37298561D01*
X144232318Y-37119933D01*
X143998929Y-37023260D01*
X143308370Y-37023260D01*
X143149620Y-37182010D01*
X142895620Y-37182010D01*
X142736870Y-37023260D01*
X142046311Y-37023260D01*
X141812922Y-37119933D01*
X141634293Y-37298561D01*
X141537620Y-37531950D01*
X44820240Y-37531950D01*
X44820240Y-37412570D01*
X44723567Y-37179181D01*
X44544938Y-37000553D01*
X44311549Y-36903880D01*
X43620990Y-36903880D01*
X43462240Y-37062630D01*
X43208240Y-37062630D01*
X43049490Y-36903880D01*
X42358931Y-36903880D01*
X42125542Y-37000553D01*
X41946913Y-37179181D01*
X41850240Y-37412570D01*
X35417411Y-37412570D01*
X35135519Y-37130679D01*
X34805906Y-36910437D01*
X34728177Y-36894976D01*
X34417099Y-36833099D01*
X32616547Y-36833099D01*
X32227740Y-36910437D01*
X31898127Y-37130678D01*
X31078306Y-37950500D01*
X29421232Y-37950500D01*
X29362864Y-37911500D01*
X29720809Y-37911500D01*
X29954198Y-37814827D01*
X30132827Y-37636199D01*
X30229500Y-37402810D01*
X30229500Y-36712250D01*
X30070750Y-36553500D01*
X28871500Y-36553500D01*
X28871500Y-36573500D01*
X28617500Y-36573500D01*
X28617500Y-36553500D01*
X28597500Y-36553500D01*
X28597500Y-36299500D01*
X28617500Y-36299500D01*
X28617500Y-35100250D01*
X28871500Y-35100250D01*
X28871500Y-36299500D01*
X30070750Y-36299500D01*
X30229500Y-36140750D01*
X30229500Y-35450190D01*
X30136845Y-35226500D01*
X146251036Y-35226500D01*
X146251036Y-36926500D01*
X146277603Y-37067690D01*
X146361046Y-37197365D01*
X146488366Y-37284359D01*
X146639500Y-37314964D01*
X148339500Y-37314964D01*
X148480690Y-37288397D01*
X148610365Y-37204954D01*
X148643041Y-37157130D01*
X149861140Y-37157130D01*
X149861140Y-38392690D01*
X150019890Y-38551440D01*
X150739140Y-38551440D01*
X150739140Y-36807190D01*
X150580390Y-36648440D01*
X150369831Y-36648440D01*
X150136442Y-36745113D01*
X149957813Y-36923741D01*
X149861140Y-37157130D01*
X148643041Y-37157130D01*
X148697359Y-37077634D01*
X148727964Y-36926500D01*
X148727964Y-35226500D01*
X148701397Y-35085310D01*
X148617954Y-34955635D01*
X148490634Y-34868641D01*
X148339500Y-34838036D01*
X146639500Y-34838036D01*
X146498310Y-34864603D01*
X146368635Y-34948046D01*
X146281641Y-35075366D01*
X146251036Y-35226500D01*
X30136845Y-35226500D01*
X30132827Y-35216801D01*
X29954198Y-35038173D01*
X29720809Y-34941500D01*
X29030250Y-34941500D01*
X28871500Y-35100250D01*
X28617500Y-35100250D01*
X28458750Y-34941500D01*
X27768191Y-34941500D01*
X27534802Y-35038173D01*
X27460447Y-35112527D01*
X27460478Y-34456000D01*
X159551559Y-34456000D01*
X159544021Y-118544000D01*
G36*
X130519750Y-90412900D02*
X130615000Y-90412900D01*
X130615000Y-90446790D01*
X130528890Y-90532900D01*
X130407110Y-90532900D01*
X130274253Y-90400043D01*
X130288395Y-90385900D01*
X130274253Y-90371758D01*
X130376430Y-90269580D01*
X130519750Y-90412900D01*
X130519750Y-90412900D01*
G37*
X130519750Y-90412900D02*
X130615000Y-90412900D01*
X130615000Y-90446790D01*
X130528890Y-90532900D01*
X130407110Y-90532900D01*
X130274253Y-90400043D01*
X130288395Y-90385900D01*
X130274253Y-90371758D01*
X130376430Y-90269580D01*
X130519750Y-90412900D01*
G36*
X134425000Y-90325010D02*
X134425000Y-90446790D01*
X134338890Y-90532900D01*
X134217110Y-90532900D01*
X134131000Y-90446790D01*
X134131000Y-90325010D01*
X134217110Y-90238900D01*
X134338890Y-90238900D01*
X134425000Y-90325010D01*
X134425000Y-90325010D01*
G37*
X134425000Y-90325010D02*
X134425000Y-90446790D01*
X134338890Y-90532900D01*
X134217110Y-90532900D01*
X134131000Y-90446790D01*
X134131000Y-90325010D01*
X134217110Y-90238900D01*
X134338890Y-90238900D01*
X134425000Y-90325010D01*
G36*
X134425000Y-89055010D02*
X134425000Y-89176790D01*
X134338890Y-89262900D01*
X134217110Y-89262900D01*
X134131000Y-89176790D01*
X134131000Y-89055010D01*
X134217110Y-88968900D01*
X134338890Y-88968900D01*
X134425000Y-89055010D01*
X134425000Y-89055010D01*
G37*
X134425000Y-89055010D02*
X134425000Y-89176790D01*
X134338890Y-89262900D01*
X134217110Y-89262900D01*
X134131000Y-89176790D01*
X134131000Y-89055010D01*
X134217110Y-88968900D01*
X134338890Y-88968900D01*
X134425000Y-89055010D01*
G36*
X130615000Y-89055010D02*
X130615000Y-89088900D01*
X130519750Y-89088900D01*
X130376430Y-89232220D01*
X130274253Y-89130043D01*
X130288395Y-89115900D01*
X130274253Y-89101758D01*
X130407110Y-88968900D01*
X130528890Y-88968900D01*
X130615000Y-89055010D01*
X130615000Y-89055010D01*
G37*
X130615000Y-89055010D02*
X130615000Y-89088900D01*
X130519750Y-89088900D01*
X130376430Y-89232220D01*
X130274253Y-89130043D01*
X130288395Y-89115900D01*
X130274253Y-89101758D01*
X130407110Y-88968900D01*
X130528890Y-88968900D01*
X130615000Y-89055010D01*
G36*
X150748815Y-78705528D02*
X151148180Y-78972376D01*
X151619263Y-79066080D01*
X151667497Y-79066080D01*
X152138580Y-78972376D01*
X152167144Y-78953290D01*
X151925111Y-79195323D01*
X151667497Y-79144080D01*
X151619263Y-79144080D01*
X151148180Y-79237784D01*
X150748815Y-79504632D01*
X150481967Y-79903997D01*
X150388263Y-80375080D01*
X150481967Y-80846163D01*
X150748815Y-81245528D01*
X151148180Y-81512376D01*
X151619263Y-81606080D01*
X151667497Y-81606080D01*
X152138580Y-81512376D01*
X152537945Y-81245528D01*
X152804793Y-80846163D01*
X152898497Y-80375080D01*
X152839252Y-80077234D01*
X153452916Y-79463570D01*
X153452916Y-80796938D01*
X151725035Y-82524819D01*
X150559699Y-82524819D01*
X150316694Y-82573155D01*
X150110686Y-82710806D01*
X150029406Y-82792086D01*
X149891755Y-82998095D01*
X149843419Y-83241099D01*
X149843419Y-85591341D01*
X149891755Y-85834345D01*
X150029406Y-86040354D01*
X150110686Y-86121634D01*
X150316694Y-86259285D01*
X150559699Y-86307621D01*
X150692020Y-86307621D01*
X150682933Y-86321220D01*
X144188815Y-86321220D01*
X144184033Y-86297177D01*
X143917185Y-85897812D01*
X143517820Y-85630964D01*
X143046737Y-85537260D01*
X142998503Y-85537260D01*
X142740889Y-85588503D01*
X142498856Y-85346470D01*
X142527420Y-85365556D01*
X142998503Y-85459260D01*
X143046737Y-85459260D01*
X143517820Y-85365556D01*
X143917185Y-85098708D01*
X144184033Y-84699343D01*
X144277737Y-84228260D01*
X144218492Y-83930414D01*
X149678826Y-78470080D01*
X150591493Y-78470080D01*
X150748815Y-78705528D01*
X150748815Y-78705528D01*
G37*
X150748815Y-78705528D02*
X151148180Y-78972376D01*
X151619263Y-79066080D01*
X151667497Y-79066080D01*
X152138580Y-78972376D01*
X152167144Y-78953290D01*
X151925111Y-79195323D01*
X151667497Y-79144080D01*
X151619263Y-79144080D01*
X151148180Y-79237784D01*
X150748815Y-79504632D01*
X150481967Y-79903997D01*
X150388263Y-80375080D01*
X150481967Y-80846163D01*
X150748815Y-81245528D01*
X151148180Y-81512376D01*
X151619263Y-81606080D01*
X151667497Y-81606080D01*
X152138580Y-81512376D01*
X152537945Y-81245528D01*
X152804793Y-80846163D01*
X152898497Y-80375080D01*
X152839252Y-80077234D01*
X153452916Y-79463570D01*
X153452916Y-80796938D01*
X151725035Y-82524819D01*
X150559699Y-82524819D01*
X150316694Y-82573155D01*
X150110686Y-82710806D01*
X150029406Y-82792086D01*
X149891755Y-82998095D01*
X149843419Y-83241099D01*
X149843419Y-85591341D01*
X149891755Y-85834345D01*
X150029406Y-86040354D01*
X150110686Y-86121634D01*
X150316694Y-86259285D01*
X150559699Y-86307621D01*
X150692020Y-86307621D01*
X150682933Y-86321220D01*
X144188815Y-86321220D01*
X144184033Y-86297177D01*
X143917185Y-85897812D01*
X143517820Y-85630964D01*
X143046737Y-85537260D01*
X142998503Y-85537260D01*
X142740889Y-85588503D01*
X142498856Y-85346470D01*
X142527420Y-85365556D01*
X142998503Y-85459260D01*
X143046737Y-85459260D01*
X143517820Y-85365556D01*
X143917185Y-85098708D01*
X144184033Y-84699343D01*
X144277737Y-84228260D01*
X144218492Y-83930414D01*
X149678826Y-78470080D01*
X150591493Y-78470080D01*
X150748815Y-78705528D01*
G36*
X148605378Y-45387686D02*
X148605142Y-45658605D01*
X148651260Y-45770220D01*
X148651260Y-52154300D01*
X148699596Y-52397304D01*
X148837247Y-52603313D01*
X150107676Y-53873742D01*
X150107676Y-55925581D01*
X148637967Y-55925581D01*
X144218492Y-51506106D01*
X144277737Y-51208260D01*
X144184033Y-50737177D01*
X143917185Y-50337812D01*
X143517820Y-50070964D01*
X143046737Y-49977260D01*
X142998503Y-49977260D01*
X142527420Y-50070964D01*
X142128055Y-50337812D01*
X141970733Y-50573260D01*
X141820539Y-50573260D01*
X141577535Y-50621596D01*
X141371526Y-50759247D01*
X138550633Y-53580140D01*
X138550633Y-53029893D01*
X141427266Y-50153259D01*
X142172621Y-50153259D01*
X142415625Y-50104923D01*
X142621634Y-49967272D01*
X142740889Y-49848017D01*
X142998503Y-49899260D01*
X143046737Y-49899260D01*
X143517820Y-49805556D01*
X143917185Y-49538708D01*
X144184033Y-49139343D01*
X144277737Y-48668260D01*
X144218492Y-48370414D01*
X147308466Y-45280440D01*
X148649911Y-45280440D01*
X148605378Y-45387686D01*
X148605378Y-45387686D01*
G37*
X148605378Y-45387686D02*
X148605142Y-45658605D01*
X148651260Y-45770220D01*
X148651260Y-52154300D01*
X148699596Y-52397304D01*
X148837247Y-52603313D01*
X150107676Y-53873742D01*
X150107676Y-55925581D01*
X148637967Y-55925581D01*
X144218492Y-51506106D01*
X144277737Y-51208260D01*
X144184033Y-50737177D01*
X143917185Y-50337812D01*
X143517820Y-50070964D01*
X143046737Y-49977260D01*
X142998503Y-49977260D01*
X142527420Y-50070964D01*
X142128055Y-50337812D01*
X141970733Y-50573260D01*
X141820539Y-50573260D01*
X141577535Y-50621596D01*
X141371526Y-50759247D01*
X138550633Y-53580140D01*
X138550633Y-53029893D01*
X141427266Y-50153259D01*
X142172621Y-50153259D01*
X142415625Y-50104923D01*
X142621634Y-49967272D01*
X142740889Y-49848017D01*
X142998503Y-49899260D01*
X143046737Y-49899260D01*
X143517820Y-49805556D01*
X143917185Y-49538708D01*
X144184033Y-49139343D01*
X144277737Y-48668260D01*
X144218492Y-48370414D01*
X147308466Y-45280440D01*
X148649911Y-45280440D01*
X148605378Y-45387686D01*
G36*
X134425000Y-53495010D02*
X134425000Y-53616790D01*
X134338890Y-53702900D01*
X134258000Y-53702900D01*
X134258000Y-53687650D01*
X134131000Y-53560650D01*
X134131000Y-53495010D01*
X134217110Y-53408900D01*
X134338890Y-53408900D01*
X134425000Y-53495010D01*
X134425000Y-53495010D01*
G37*
X134425000Y-53495010D02*
X134425000Y-53616790D01*
X134338890Y-53702900D01*
X134258000Y-53702900D01*
X134258000Y-53687650D01*
X134131000Y-53560650D01*
X134131000Y-53495010D01*
X134217110Y-53408900D01*
X134338890Y-53408900D01*
X134425000Y-53495010D01*
G36*
X130615000Y-53495010D02*
X130615000Y-53560650D01*
X130488000Y-53687650D01*
X130488000Y-53702900D01*
X130407110Y-53702900D01*
X130274253Y-53570043D01*
X130288395Y-53555900D01*
X130274253Y-53541758D01*
X130407110Y-53408900D01*
X130528890Y-53408900D01*
X130615000Y-53495010D01*
X130615000Y-53495010D01*
G37*
X130615000Y-53495010D02*
X130615000Y-53560650D01*
X130488000Y-53687650D01*
X130488000Y-53702900D01*
X130407110Y-53702900D01*
X130274253Y-53570043D01*
X130288395Y-53555900D01*
X130274253Y-53541758D01*
X130407110Y-53408900D01*
X130528890Y-53408900D01*
X130615000Y-53495010D01*
G36*
X154155006Y-44495299D02*
X154306140Y-44525904D01*
X154491172Y-44525904D01*
X153128168Y-45888908D01*
X151704219Y-45888908D01*
X151593724Y-45843026D01*
X151322805Y-45842790D01*
X151072418Y-45946247D01*
X150880683Y-46137649D01*
X150776788Y-46387854D01*
X150776552Y-46658773D01*
X150880009Y-46909160D01*
X151071411Y-47100895D01*
X151321616Y-47204790D01*
X151592535Y-47205026D01*
X151704150Y-47158908D01*
X151872651Y-47158908D01*
X151750888Y-47209219D01*
X151559153Y-47400621D01*
X151455258Y-47650826D01*
X151455022Y-47921745D01*
X151501140Y-48033360D01*
X151501140Y-48722628D01*
X151362449Y-48665180D01*
X151151890Y-48665180D01*
X150993140Y-48823930D01*
X150993140Y-50568180D01*
X151013140Y-50568180D01*
X151013140Y-50822180D01*
X150993140Y-50822180D01*
X150993140Y-52566430D01*
X151151890Y-52725180D01*
X151362449Y-52725180D01*
X151595838Y-52628507D01*
X151749144Y-52475202D01*
X151766140Y-52478644D01*
X152506140Y-52478644D01*
X152647330Y-52452077D01*
X152772776Y-52371355D01*
X152828059Y-52409129D01*
X152730338Y-52644466D01*
X152730102Y-52915385D01*
X152771140Y-53014705D01*
X152771140Y-53081952D01*
X152769504Y-53083005D01*
X152657274Y-53006321D01*
X152506140Y-52975716D01*
X151766140Y-52975716D01*
X151624950Y-53002283D01*
X151499504Y-53083005D01*
X151387274Y-53006321D01*
X151236140Y-52975716D01*
X151005702Y-52975716D01*
X150667778Y-52637792D01*
X150739140Y-52566430D01*
X150739140Y-50822180D01*
X150719140Y-50822180D01*
X150719140Y-50568180D01*
X150739140Y-50568180D01*
X150739140Y-48823930D01*
X150580390Y-48665180D01*
X150369831Y-48665180D01*
X150136442Y-48761853D01*
X149957813Y-48940481D01*
X149921260Y-49028728D01*
X149921260Y-45770289D01*
X149967142Y-45659794D01*
X149967378Y-45388875D01*
X149922574Y-45280440D01*
X152136140Y-45280440D01*
X152379144Y-45232104D01*
X152585153Y-45094453D01*
X152722804Y-44888444D01*
X152771140Y-44645440D01*
X152771140Y-44419668D01*
X152772776Y-44418615D01*
X152885006Y-44495299D01*
X153036140Y-44525904D01*
X153776140Y-44525904D01*
X153917330Y-44499337D01*
X154042776Y-44418615D01*
X154155006Y-44495299D01*
X154155006Y-44495299D01*
G37*
X154155006Y-44495299D02*
X154306140Y-44525904D01*
X154491172Y-44525904D01*
X153128168Y-45888908D01*
X151704219Y-45888908D01*
X151593724Y-45843026D01*
X151322805Y-45842790D01*
X151072418Y-45946247D01*
X150880683Y-46137649D01*
X150776788Y-46387854D01*
X150776552Y-46658773D01*
X150880009Y-46909160D01*
X151071411Y-47100895D01*
X151321616Y-47204790D01*
X151592535Y-47205026D01*
X151704150Y-47158908D01*
X151872651Y-47158908D01*
X151750888Y-47209219D01*
X151559153Y-47400621D01*
X151455258Y-47650826D01*
X151455022Y-47921745D01*
X151501140Y-48033360D01*
X151501140Y-48722628D01*
X151362449Y-48665180D01*
X151151890Y-48665180D01*
X150993140Y-48823930D01*
X150993140Y-50568180D01*
X151013140Y-50568180D01*
X151013140Y-50822180D01*
X150993140Y-50822180D01*
X150993140Y-52566430D01*
X151151890Y-52725180D01*
X151362449Y-52725180D01*
X151595838Y-52628507D01*
X151749144Y-52475202D01*
X151766140Y-52478644D01*
X152506140Y-52478644D01*
X152647330Y-52452077D01*
X152772776Y-52371355D01*
X152828059Y-52409129D01*
X152730338Y-52644466D01*
X152730102Y-52915385D01*
X152771140Y-53014705D01*
X152771140Y-53081952D01*
X152769504Y-53083005D01*
X152657274Y-53006321D01*
X152506140Y-52975716D01*
X151766140Y-52975716D01*
X151624950Y-53002283D01*
X151499504Y-53083005D01*
X151387274Y-53006321D01*
X151236140Y-52975716D01*
X151005702Y-52975716D01*
X150667778Y-52637792D01*
X150739140Y-52566430D01*
X150739140Y-50822180D01*
X150719140Y-50822180D01*
X150719140Y-50568180D01*
X150739140Y-50568180D01*
X150739140Y-48823930D01*
X150580390Y-48665180D01*
X150369831Y-48665180D01*
X150136442Y-48761853D01*
X149957813Y-48940481D01*
X149921260Y-49028728D01*
X149921260Y-45770289D01*
X149967142Y-45659794D01*
X149967378Y-45388875D01*
X149922574Y-45280440D01*
X152136140Y-45280440D01*
X152379144Y-45232104D01*
X152585153Y-45094453D01*
X152722804Y-44888444D01*
X152771140Y-44645440D01*
X152771140Y-44419668D01*
X152772776Y-44418615D01*
X152885006Y-44495299D01*
X153036140Y-44525904D01*
X153776140Y-44525904D01*
X153917330Y-44499337D01*
X154042776Y-44418615D01*
X154155006Y-44495299D01*
G36*
X156121260Y-48775810D02*
X156073140Y-48823930D01*
X156073140Y-50568180D01*
X156093140Y-50568180D01*
X156093140Y-50822180D01*
X156073140Y-50822180D01*
X156073140Y-52566430D01*
X156144502Y-52637792D01*
X155806578Y-52975716D01*
X155576140Y-52975716D01*
X155434950Y-53002283D01*
X155309504Y-53083005D01*
X155197274Y-53006321D01*
X155046140Y-52975716D01*
X154306140Y-52975716D01*
X154164950Y-53002283D01*
X154041140Y-53081952D01*
X154041140Y-53039303D01*
X154092102Y-52916574D01*
X154092338Y-52645655D01*
X153992396Y-52403774D01*
X154042776Y-52371355D01*
X154155006Y-52448039D01*
X154306140Y-52478644D01*
X155046140Y-52478644D01*
X155063341Y-52475407D01*
X155216442Y-52628507D01*
X155449831Y-52725180D01*
X155660390Y-52725180D01*
X155819140Y-52566430D01*
X155819140Y-50822180D01*
X155799140Y-50822180D01*
X155799140Y-50568180D01*
X155819140Y-50568180D01*
X155819140Y-48823930D01*
X155660390Y-48665180D01*
X155449831Y-48665180D01*
X155216442Y-48761853D01*
X155063136Y-48915158D01*
X155046140Y-48911716D01*
X154306140Y-48911716D01*
X154164950Y-48938283D01*
X154039504Y-49019005D01*
X153927274Y-48942321D01*
X153914140Y-48939661D01*
X153914140Y-48758140D01*
X153875471Y-48563737D01*
X153834590Y-48502554D01*
X153765351Y-48398930D01*
X153695533Y-48329112D01*
X153695618Y-48231635D01*
X153592161Y-47981248D01*
X153400759Y-47789513D01*
X153150554Y-47685618D01*
X152879635Y-47685382D01*
X152817206Y-47711177D01*
X152817258Y-47652015D01*
X152713801Y-47401628D01*
X152522399Y-47209893D01*
X152399614Y-47158908D01*
X153391194Y-47158908D01*
X153634198Y-47110572D01*
X153840207Y-46972921D01*
X153905088Y-46908040D01*
X154253490Y-46908040D01*
X156121260Y-48775810D01*
X156121260Y-48775810D01*
G37*
X156121260Y-48775810D02*
X156073140Y-48823930D01*
X156073140Y-50568180D01*
X156093140Y-50568180D01*
X156093140Y-50822180D01*
X156073140Y-50822180D01*
X156073140Y-52566430D01*
X156144502Y-52637792D01*
X155806578Y-52975716D01*
X155576140Y-52975716D01*
X155434950Y-53002283D01*
X155309504Y-53083005D01*
X155197274Y-53006321D01*
X155046140Y-52975716D01*
X154306140Y-52975716D01*
X154164950Y-53002283D01*
X154041140Y-53081952D01*
X154041140Y-53039303D01*
X154092102Y-52916574D01*
X154092338Y-52645655D01*
X153992396Y-52403774D01*
X154042776Y-52371355D01*
X154155006Y-52448039D01*
X154306140Y-52478644D01*
X155046140Y-52478644D01*
X155063341Y-52475407D01*
X155216442Y-52628507D01*
X155449831Y-52725180D01*
X155660390Y-52725180D01*
X155819140Y-52566430D01*
X155819140Y-50822180D01*
X155799140Y-50822180D01*
X155799140Y-50568180D01*
X155819140Y-50568180D01*
X155819140Y-48823930D01*
X155660390Y-48665180D01*
X155449831Y-48665180D01*
X155216442Y-48761853D01*
X155063136Y-48915158D01*
X155046140Y-48911716D01*
X154306140Y-48911716D01*
X154164950Y-48938283D01*
X154039504Y-49019005D01*
X153927274Y-48942321D01*
X153914140Y-48939661D01*
X153914140Y-48758140D01*
X153875471Y-48563737D01*
X153834590Y-48502554D01*
X153765351Y-48398930D01*
X153695533Y-48329112D01*
X153695618Y-48231635D01*
X153592161Y-47981248D01*
X153400759Y-47789513D01*
X153150554Y-47685618D01*
X152879635Y-47685382D01*
X152817206Y-47711177D01*
X152817258Y-47652015D01*
X152713801Y-47401628D01*
X152522399Y-47209893D01*
X152399614Y-47158908D01*
X153391194Y-47158908D01*
X153634198Y-47110572D01*
X153840207Y-46972921D01*
X153905088Y-46908040D01*
X154253490Y-46908040D01*
X156121260Y-48775810D01*
G36*
X157439660Y-48482730D02*
X157410804Y-48337660D01*
X157273153Y-48131651D01*
X154977315Y-45835813D01*
X156287224Y-44525904D01*
X156316140Y-44525904D01*
X156457330Y-44499337D01*
X156587005Y-44415894D01*
X156673999Y-44288574D01*
X156704604Y-44137440D01*
X156704604Y-41347440D01*
X156678037Y-41206250D01*
X156594594Y-41076575D01*
X156467274Y-40989581D01*
X156316140Y-40958976D01*
X155576140Y-40958976D01*
X155434950Y-40985543D01*
X155309504Y-41066265D01*
X155197274Y-40989581D01*
X155046140Y-40958976D01*
X154306140Y-40958976D01*
X154164950Y-40985543D01*
X154042074Y-41064611D01*
X154143192Y-40821094D01*
X154143428Y-40550175D01*
X154070433Y-40373513D01*
X154155006Y-40431299D01*
X154306140Y-40461904D01*
X155046140Y-40461904D01*
X155063341Y-40458667D01*
X155216442Y-40611767D01*
X155449831Y-40708440D01*
X155660390Y-40708440D01*
X155819140Y-40549690D01*
X155819140Y-38805440D01*
X156073140Y-38805440D01*
X156073140Y-40549690D01*
X156231890Y-40708440D01*
X156442449Y-40708440D01*
X156675838Y-40611767D01*
X156854467Y-40433139D01*
X156951140Y-40199750D01*
X156951140Y-38964190D01*
X156792390Y-38805440D01*
X156073140Y-38805440D01*
X155819140Y-38805440D01*
X155799140Y-38805440D01*
X155799140Y-38551440D01*
X155819140Y-38551440D01*
X155819140Y-36807190D01*
X156073140Y-36807190D01*
X156073140Y-38551440D01*
X156792390Y-38551440D01*
X156951140Y-38392690D01*
X156951140Y-37157130D01*
X156854467Y-36923741D01*
X156675838Y-36745113D01*
X156442449Y-36648440D01*
X156231890Y-36648440D01*
X156073140Y-36807190D01*
X155819140Y-36807190D01*
X155660390Y-36648440D01*
X155449831Y-36648440D01*
X155216442Y-36745113D01*
X155063136Y-36898418D01*
X155046140Y-36894976D01*
X154306140Y-36894976D01*
X154164950Y-36921543D01*
X154039504Y-37002265D01*
X153927274Y-36925581D01*
X153914140Y-36922921D01*
X153914140Y-36683140D01*
X153895416Y-36589006D01*
X153895618Y-36356635D01*
X153824353Y-36184160D01*
X157439660Y-36184160D01*
X157439660Y-48482730D01*
X157439660Y-48482730D01*
G37*
X157439660Y-48482730D02*
X157410804Y-48337660D01*
X157273153Y-48131651D01*
X154977315Y-45835813D01*
X156287224Y-44525904D01*
X156316140Y-44525904D01*
X156457330Y-44499337D01*
X156587005Y-44415894D01*
X156673999Y-44288574D01*
X156704604Y-44137440D01*
X156704604Y-41347440D01*
X156678037Y-41206250D01*
X156594594Y-41076575D01*
X156467274Y-40989581D01*
X156316140Y-40958976D01*
X155576140Y-40958976D01*
X155434950Y-40985543D01*
X155309504Y-41066265D01*
X155197274Y-40989581D01*
X155046140Y-40958976D01*
X154306140Y-40958976D01*
X154164950Y-40985543D01*
X154042074Y-41064611D01*
X154143192Y-40821094D01*
X154143428Y-40550175D01*
X154070433Y-40373513D01*
X154155006Y-40431299D01*
X154306140Y-40461904D01*
X155046140Y-40461904D01*
X155063341Y-40458667D01*
X155216442Y-40611767D01*
X155449831Y-40708440D01*
X155660390Y-40708440D01*
X155819140Y-40549690D01*
X155819140Y-38805440D01*
X156073140Y-38805440D01*
X156073140Y-40549690D01*
X156231890Y-40708440D01*
X156442449Y-40708440D01*
X156675838Y-40611767D01*
X156854467Y-40433139D01*
X156951140Y-40199750D01*
X156951140Y-38964190D01*
X156792390Y-38805440D01*
X156073140Y-38805440D01*
X155819140Y-38805440D01*
X155799140Y-38805440D01*
X155799140Y-38551440D01*
X155819140Y-38551440D01*
X155819140Y-36807190D01*
X156073140Y-36807190D01*
X156073140Y-38551440D01*
X156792390Y-38551440D01*
X156951140Y-38392690D01*
X156951140Y-37157130D01*
X156854467Y-36923741D01*
X156675838Y-36745113D01*
X156442449Y-36648440D01*
X156231890Y-36648440D01*
X156073140Y-36807190D01*
X155819140Y-36807190D01*
X155660390Y-36648440D01*
X155449831Y-36648440D01*
X155216442Y-36745113D01*
X155063136Y-36898418D01*
X155046140Y-36894976D01*
X154306140Y-36894976D01*
X154164950Y-36921543D01*
X154039504Y-37002265D01*
X153927274Y-36925581D01*
X153914140Y-36922921D01*
X153914140Y-36683140D01*
X153895416Y-36589006D01*
X153895618Y-36356635D01*
X153824353Y-36184160D01*
X157439660Y-36184160D01*
X157439660Y-48482730D01*
M02*
